<?xml version="1.0" encoding="UTF-8"?>
<svg version="1.1" xmlns="http://www.w3.org/2000/svg" width="1536" height="1024">

<path d="M0 0 C1.06042511 -0.00018127 1.06042511 -0.00018127 2.14227295 -0.00036621 C21.25133175 0.04565521 39.89719343 2.77953741 58.1875 8.375 C59.26386719 8.67019531 60.34023438 8.96539062 61.44921875 9.26953125 C70.15971859 11.73873205 78.12134141 15.34379918 86.1875 19.375 C86.93870117 19.74399414 87.68990234 20.11298828 88.46386719 20.49316406 C99.22443514 25.80478241 109.0257551 31.66083152 118.48046875 39.05322266 C120.10056435 40.30768455 121.75271811 41.52042053 123.40625 42.73046875 C136.61788213 52.49203358 148.42481362 63.99107411 159.1875 76.375 C163.12821164 80.76328784 167.14589781 85.07970955 171.1875 89.375 C171.96915527 90.2098291 171.96915527 90.2098291 172.76660156 91.06152344 C191.68215294 111.1192338 214.26253903 123.36785292 241.1875 129.375 C240.8575 130.035 240.5275 130.695 240.1875 131.375 C217.59321613 137.568357 193.41157856 132.29890113 173.328125 121.29296875 C162.56269809 115.11479012 153.93876012 107.09623865 145.1875 98.375 C144.27742188 97.49070312 143.36734375 96.60640625 142.4296875 95.6953125 C138.46934796 91.81552224 134.74107153 87.79839586 131.12109375 83.6015625 C110.5295953 59.89014004 87.22019968 43.29812551 57.1875 33.375 C56.5275 33.375 55.8675 33.375 55.1875 33.375 C56.21746094 33.87386719 57.24742187 34.37273437 58.30859375 34.88671875 C82.57649594 46.98327265 100.759323 65.06118761 117.921875 85.65625 C123.08487073 91.83756932 128.38462869 97.85578471 133.875 103.75 C134.48069824 104.40411865 135.08639648 105.0582373 135.71044922 105.73217773 C155.6891974 126.98633801 181.17422345 141.43429279 210.69921875 142.6484375 C236.22228649 143.24392061 259.10733434 137.72648072 279.1875 121.375 C279.85136719 120.86195313 280.51523437 120.34890625 281.19921875 119.8203125 C285.66212728 116.23836856 288.9375701 112.06537502 292.1875 107.375 C292.5175 108.035 292.8475 108.695 293.1875 109.375 C292.06606682 111.68601975 290.89471647 113.81240696 289.5625 116 C289.1600708 116.66225586 288.7576416 117.32451172 288.34301758 118.00683594 C269.37069339 148.34830313 238.81887816 169.21179969 204.0625 177.625 C155.01666893 188.57463299 107.08722703 181.57015981 64.1875 155.375 C58.62625139 151.66832353 53.39401651 147.55825339 48.1875 143.375 C47.22714844 142.62605469 46.26679687 141.87710938 45.27734375 141.10546875 C37.87612886 135.23027755 31.04586244 128.75536246 24.1875 122.26611328 C18.81952709 117.19039085 13.42336097 112.14450606 8.02734375 107.09863281 C6.3371733 105.51521941 4.6526876 103.92597131 2.96875 102.3359375 C-13.08401659 87.26625944 -31.64436811 74.35587845 -51.8125 65.375 C-52.59753906 65.01277344 -53.38257813 64.65054688 -54.19140625 64.27734375 C-61.77797942 60.99024532 -69.7918886 59.26064043 -77.8125 57.375 C-78.41078613 57.19702881 -79.00907227 57.01905762 -79.62548828 56.83569336 C-84.40679046 55.8285135 -89.40505421 56.14881297 -94.27246094 56.13476562 C-96.27811647 56.12516459 -98.28363167 56.09401954 -100.2890625 56.0625 C-111.41017926 56.01828085 -121.07173264 57.87642278 -131.25 62.3125 C-132.94962891 63.03759766 -132.94962891 63.03759766 -134.68359375 63.77734375 C-137.76344719 65.34995306 -140.20435013 67.11785348 -142.8125 69.375 C-143.4725 69.045 -144.1325 68.715 -144.8125 68.375 C-118.14969486 36.45474033 -80.46792049 14.79460142 -40.375 4.5 C-39.6317749 4.30873535 -38.8885498 4.1174707 -38.12280273 3.92041016 C-25.54552047 0.9071172 -12.89789148 -0.03435671 0 0 Z " fill="#31548F" transform="translate(626.8125,310.625)"/>
<path d="M0 0 C2.46149294 0.61005466 4.932883 1.16733188 7.40673828 1.72509766 C27.87645736 6.41112907 27.87645736 6.41112907 34.09033203 9.51806641 C34.09033203 10.17806641 34.09033203 10.83806641 34.09033203 11.51806641 C35.03908203 11.66244141 35.98783203 11.80681641 36.96533203 11.95556641 C40.09033203 12.51806641 40.09033203 12.51806641 42.09033203 13.51806641 C42.09033203 14.17806641 42.09033203 14.83806641 42.09033203 15.51806641 C42.93853516 15.76685547 43.78673828 16.01564453 44.66064453 16.27197266 C48.37424321 17.62121865 51.61463498 19.39921264 54.96533203 21.45556641 C55.60954102 21.8481665 56.25375 22.2407666 56.91748047 22.64526367 C67.69277345 29.28690892 77.8981403 36.15101782 87.13330078 44.84619141 C99.02317445 55.58948544 112.05057399 64.77921136 127.09033203 70.51806641 C126.53110924 74.19759026 125.18717542 75.73527231 122.40283203 78.14306641 C121.73896484 78.73345703 121.07509766 79.32384766 120.39111328 79.93212891 C111.8898942 85.79205242 99.29647017 84.34774212 89.52783203 82.64306641 C76.5261595 79.23940275 65.45974867 68.73297707 55.42236328 60.26806641 C39.66068567 47.10739906 21.226342 37.94390412 3.09033203 28.51806641 C3.95646118 29.06950317 3.95646118 29.06950317 4.84008789 29.63208008 C19.42649686 38.99093 32.08340665 51.06230288 43.77783203 63.76806641 C55.27803245 76.21059581 68.90582279 87.92528794 86.59033203 88.79931641 C94.470367 89.01811975 101.85290997 89.05988777 109.27783203 86.07666016 C111.09033203 85.51806641 111.09033203 85.51806641 114.09033203 86.51806641 C112.63583803 87.52364251 111.1766076 88.52237075 109.71533203 89.51806641 C108.90322266 90.07494141 108.09111328 90.63181641 107.25439453 91.20556641 C105.09033203 92.51806641 105.09033203 92.51806641 103.09033203 92.51806641 C103.09033203 93.17806641 103.09033203 93.83806641 103.09033203 94.51806641 C98.43964157 96.32115719 93.7771707 98.08273152 89.08935547 99.78710938 C87.49284057 100.37088632 85.90354504 100.97439436 84.31689453 101.58447266 C67.79034571 107.12006425 46.95327074 103.99536282 31.21533203 97.20556641 C29.49263203 96.33768113 27.78396329 95.44139371 26.09033203 94.51806641 C25.17638672 94.03853516 24.26244141 93.55900391 23.32080078 93.06494141 C10.95389108 86.24410232 -0.11244451 77.41666631 -10.41748047 67.81494141 C-21.43097162 57.66457652 -34.20729216 48.64383441 -47.90966797 42.51806641 C-47.90966797 41.85806641 -47.90966797 41.19806641 -47.90966797 40.51806641 C-49.73074766 40.06279648 -51.55211627 39.60866559 -53.37451172 39.15869141 C-55.16271563 38.70681861 -56.94625235 38.23627648 -58.72607422 37.75244141 C-69.81742077 34.80246136 -80.46545433 34.24783704 -91.90966797 34.51806641 C-92.94994141 34.52322266 -93.99021484 34.52837891 -95.06201172 34.53369141 C-112.19507456 35.12667751 -127.05557057 44.15718979 -140.90966797 53.51806641 C-130.51464672 31.17128159 -102.99430809 14.27151207 -80.90966797 5.51806641 C-55.86736149 -3.36608209 -25.95782571 -6.48440627 0 0 Z " fill="#D79447" transform="translate(935.90966796875,324.48193359375)"/>
<path d="M0 0 C1.51974085 0.48262041 3.04055041 0.96189075 4.5625 1.4375 C5.34882812 1.69273437 6.13515625 1.94796875 6.9453125 2.2109375 C12.93660034 3.75855917 19.10192518 4.44662368 25.22265625 5.30859375 C28.7982038 5.81304224 32.33368866 6.41463294 35.875 7.125 C41.19715509 8.14557174 46.52837146 8.45797788 51.93359375 8.75390625 C55 9 55 9 56.95133972 9.49615479 C60.44458281 10.35527908 64.0322913 10.37977196 67.61328125 10.546875 C68.4865657 10.58850769 69.35985016 10.63014038 70.25959778 10.67303467 C80.76291723 11.13129959 91.26743059 11.22213215 101.77954102 11.24023438 C105.16642843 11.24993962 108.55270675 11.28110263 111.93945312 11.3125 C130.95054045 11.40373518 149.94455822 10.18357607 168.42578125 5.453125 C171.03060068 4.99461354 172.53023727 5.13176987 175 6 C170.01622241 8.0425318 165.01563889 10.03708481 160 12 C159.04480469 12.37898438 158.08960938 12.75796875 157.10546875 13.1484375 C147.07006582 16.82171822 136.52216478 18.38726012 126 20 C125.03787598 20.15388184 124.07575195 20.30776367 123.08447266 20.46630859 C87.34259194 25.95729675 45.53144943 26.84147058 10.171875 18.47314453 C6.25603881 17.6200768 2.28198789 17.15877142 -1.6875 16.625 C-9.04928612 15.58660645 -15.95833511 14.11639993 -23.0546875 11.8671875 C-26.02638862 10.99223041 -28.93747555 10.44795134 -32 10 C-32 9.34 -32 8.68 -32 8 C-12.15623539 -4.25468239 -12.15623539 -4.25468239 0 0 Z " fill="#647F65" transform="translate(884,486)"/>
<path d="M0 0 C48.90438198 -0.73966051 48.90438198 -0.73966051 69.08959961 4.58251953 C71.06247414 5.08953755 73.0394983 5.52269249 75.03369141 5.9375 C83.48288238 7.70549595 91.79956975 9.75911193 100.08056641 12.203125 C100.95551758 12.45674805 101.83046875 12.71037109 102.73193359 12.97167969 C103.94284668 13.3376123 103.94284668 13.3376123 105.17822266 13.7109375 C105.89631104 13.92637207 106.61439941 14.14180664 107.35424805 14.36376953 C109.01806641 15.078125 109.01806641 15.078125 110.01806641 17.078125 C104.19977559 16.54503958 98.42427793 15.88031601 92.64477539 15.0246582 C64.10938712 10.85269373 35.7927147 10.70464226 7.01806641 11.078125 C6.25381348 11.08779297 5.48956055 11.09746094 4.70214844 11.10742188 C-11.4161903 11.32597562 -27.23534527 12.35840774 -43.19140625 14.6796875 C-45.92467517 15.06994952 -48.66029619 15.42298747 -51.39990234 15.765625 C-66.0809196 17.64787599 -80.71174745 20.35729061 -94.66943359 25.390625 C-99.72721994 27.18298257 -104.63758967 27.9936899 -109.98193359 27.078125 C-110.64193359 26.418125 -111.30193359 25.758125 -111.98193359 25.078125 C-111.98193359 23.140625 -111.98193359 23.140625 -110.98193359 21.078125 C-81.90363315 4.1969426 -39.9962819 0.45670056 -7.14105225 0.10351562 C-4.7605745 0.07552188 -2.38033839 0.03800488 0 0 Z " fill="#647E65" transform="translate(592.98193359375,468.921875)"/>
<path d="M0 0 C1.25619141 0.02707031 2.51238281 0.05414062 3.80664062 0.08203125 C6.89370748 0.15245863 9.97720152 0.25091354 13.0625 0.375 C12.7325 2.025 12.4025 3.675 12.0625 5.375 C10.4125 5.375 8.7625 5.375 7.0625 5.375 C7.18109375 5.95507812 7.2996875 6.53515625 7.421875 7.1328125 C8.13423771 11.44973051 8.38285671 13.70964375 6.4375 17.75 C2.31100326 22.31086482 -1.14335181 23.72696988 -7.25 24.0625 C-8.31863281 24.12824219 -9.38726563 24.19398438 -10.48828125 24.26171875 C-11.29652344 24.29910156 -12.10476563 24.33648438 -12.9375 24.375 C-12.9375 25.365 -12.9375 26.355 -12.9375 27.375 C-11.07544922 27.43107422 -11.07544922 27.43107422 -9.17578125 27.48828125 C-7.53382489 27.5539595 -5.89189913 27.6204062 -4.25 27.6875 C-3.43337891 27.71005859 -2.61675781 27.73261719 -1.77539062 27.75585938 C4.16029134 28.02020149 7.75144766 29.06394766 12.0625 33.375 C12.65011157 37.7401145 12.42345661 39.79972541 10.0625 43.5625 C4.67034322 49.13389745 -0.41097008 50.6208949 -8.125 50.75 C-13.36190837 50.69226121 -17.27783661 50.02582555 -21.75 47.25 C-23.72433011 44.13263668 -23.70047247 40.87649865 -22.9375 37.375 C-20.4375 34.375 -20.4375 34.375 -17.9375 32.375 C-18.2675 32.045 -18.5975 31.715 -18.9375 31.375 C-18.55806512 27.27710331 -18.24444043 24.83541065 -15.9375 21.375 C-16.5975 21.375 -17.2575 21.375 -17.9375 21.375 C-20.78094143 18.39148757 -21.43695642 16.07445997 -21.5625 12 C-21.61664062 11.08476563 -21.67078125 10.16953125 -21.7265625 9.2265625 C-20.71190253 5.55972201 -19.32304244 3.87356261 -16.34863281 1.53955078 C-11.23951561 -0.92809695 -5.54052738 -0.22661832 0 0 Z " fill="#D99E5B" transform="translate(956.9375,556.625)"/>
<path d="M0 0 C1.74506836 0.00966797 1.74506836 0.00966797 3.52539062 0.01953125 C4.74033203 0.03628906 5.95527344 0.05304687 7.20703125 0.0703125 C8.43357422 0.07933594 9.66011719 0.08835937 10.92382812 0.09765625 C13.9559242 0.12125233 16.98763063 0.15417409 20.01953125 0.1953125 C20.01953125 1.8453125 20.01953125 3.4953125 20.01953125 5.1953125 C17.70953125 5.1953125 15.39953125 5.1953125 13.01953125 5.1953125 C13.34953125 5.7315625 13.67953125 6.2678125 14.01953125 6.8203125 C15.66977881 10.73965045 15.50244872 13.84314359 14.08203125 17.8203125 C9.92168798 22.61101081 4.12041646 24.24426394 -2.04296875 24.9453125 C-3.99203125 25.0690625 -3.99203125 25.0690625 -5.98046875 25.1953125 C-5.98046875 25.8553125 -5.98046875 26.5153125 -5.98046875 27.1953125 C-1.46597705 28.63386815 3.30309919 28.47175361 8 28.53710938 C13.08998082 28.74320088 16.13115774 29.9129972 20.01953125 33.1953125 C20.88027348 37.15472675 20.21649157 38.83656334 18.26953125 42.3828125 C14.53328861 47.0531158 10.9635751 49.27136786 5.01953125 50.1953125 C-7.75612862 51.10898485 -7.75612862 51.10898485 -12.98046875 47.1953125 C-15.3079622 43.70407233 -15.48346191 42.30308999 -14.98046875 38.1953125 C-14.29984375 37.5971875 -13.61921875 36.9990625 -12.91796875 36.3828125 C-10.74145796 34.41958902 -10.74145796 34.41958902 -11.0078125 32.08984375 C-11.2350769 30.5245283 -11.50314137 28.96445816 -11.81640625 27.4140625 C-12.01329561 24.75136827 -11.34296112 23.44905928 -9.98046875 21.1953125 C-10.45484375 20.7621875 -10.92921875 20.3290625 -11.41796875 19.8828125 C-14.26936908 16.80330015 -14.37339424 13.27060547 -14.3359375 9.1953125 C-13.73077674 5.79045194 -11.59669885 4.26395956 -8.98046875 2.1953125 C-5.48710057 -0.13359962 -4.1203901 -0.04019893 0 0 Z " fill="#3D598B" transform="translate(651.98046875,556.8046875)"/>
<path d="M0 0 C22.00590919 6.20774803 42.56587337 21.85542449 59.83203125 36.3828125 C77.62137207 51.33315164 91.78498588 55.62493059 115 55 C115 55.99 115 56.98 115 58 C114.26007813 58.13277344 113.52015625 58.26554687 112.7578125 58.40234375 C110.30719094 58.93342746 108.20773955 59.67158287 105.875 60.5625 C92.45512644 64.62060548 78.40588006 62.54844134 66.02734375 56.5625 C53.79371572 49.99580418 44.81643442 39.89355259 35.49902344 29.84741211 C25.55342451 19.16392213 14.69005553 9.7283036 2.0859375 2.27734375 C1.39757812 1.85582031 0.70921875 1.43429687 0 1 C0 0.67 0 0.34 0 0 Z " fill="#FCF9F5" transform="translate(937,352)"/>
<path d="M0 0 C22.36921277 -0.78764834 22.36921277 -0.78764834 29 5 C32.607739 9.79114314 32.62429543 13.99721937 32.47265625 19.83203125 C31.88974426 23.73898679 30.78249386 25.71944393 28.09375 28.53515625 C21.58136448 33.09139612 16.42924931 34.58308742 8.5 34.25 C4.2925 34.12625 4.2925 34.12625 0 34 C0 22.78 0 11.56 0 0 Z " fill="#738E75" transform="translate(630,628)"/>
<path d="M0 0 C5.1513263 2.46082467 8.46403201 5.89805256 11 11 C11.88069223 15.9496269 12.04579102 20.87457358 9.79296875 25.453125 C6.59151322 29.82979839 3.22016154 33.25994615 -2 35 C-8.04738829 35.83494513 -12.09814276 34.93518874 -17.17578125 31.58203125 C-20.75976852 28.47386242 -22.78592857 26.25384693 -23.6015625 21.4765625 C-23.6726406 9.79606078 -23.6726406 9.79606078 -20.3125 5.75 C-14.24457586 -0.08273328 -8.20774061 -1.31834176 0 0 Z " fill="#39568A" transform="translate(602,557)"/>
<path d="M0 0 C0 3.96 0 7.92 0 12 C-0.99 12 -1.98 12 -3 12 C-3.061875 11.05125 -3.12375 10.1025 -3.1875 9.125 C-3.455625 8.09375 -3.72375 7.0625 -4 6 C-6.38119246 4.59742124 -6.38119246 4.59742124 -9 4 C-9.66 3.67 -10.32 3.34 -11 3 C-16.68331608 2.40893513 -21.14777003 2.72756584 -26 6 C-30.48069483 10.96509427 -31.20283806 14.14967594 -31.25 20.6875 C-31.270625 21.38294922 -31.29125 22.07839844 -31.3125 22.79492188 C-31.36114423 29.30716824 -29.86463999 33.90796489 -25.4375 38.875 C-21.4473082 42.35362875 -18.46099831 42.12349444 -13.375 42.0625 C-12.66859375 42.05798828 -11.9621875 42.05347656 -11.234375 42.04882812 C-9.48954725 42.03703875 -7.744763 42.01910324 -6 42 C-6.01256513 37.5959216 -6.13157267 33.32575123 -7 29 C-9.84100775 26.53025527 -9.84100775 26.53025527 -13 26 C-13 25.01 -13 24.02 -13 23 C-7.06 23 -1.12 23 5 23 C5 23.99 5 24.98 5 26 C4.01 26.66 3.02 27.32 2 28 C1.71431376 31.20191205 1.66043118 34.29303011 1.73632812 37.50195312 C1.69921875 39.49609375 1.69921875 39.49609375 1 43 C-1.79296875 44.91015625 -1.79296875 44.91015625 -5 46 C-5.62261719 46.22171875 -6.24523437 46.4434375 -6.88671875 46.671875 C-10.18817396 47.18448542 -13.47986114 47.22538217 -16.8125 47.25 C-17.49892578 47.270625 -18.18535156 47.29125 -18.89257812 47.3125 C-24.76093068 47.35691516 -29.55697381 46.12181348 -34.109375 42.16796875 C-34.65078125 41.51441406 -35.1921875 40.86085938 -35.75 40.1875 C-36.30171875 39.54167969 -36.8534375 38.89585937 -37.421875 38.23046875 C-42.88524987 30.50871863 -43.10111226 23.07966339 -42 14 C-39.61636456 7.79578577 -34.95857705 2.93004409 -29 0 C-20.07795328 -3.39037775 -8.83123385 -3.37704238 0 0 Z " fill="#D9974F" transform="translate(848,544)"/>
<path d="M0 0 C3.27525992 1.63463612 5.34002247 3.68004495 7 7 C7.50577159 13.49721971 7.89661175 19.49099718 4 25 C0.30253463 29.29705435 -3.4205753 32.53752566 -9.20703125 33.28515625 C-13.9162421 33.46477789 -17.3434614 33.23864847 -21 30 C-24.34946372 25.47369768 -25.73404937 21.92486772 -25.4453125 16.265625 C-24.63407543 12.13827849 -22.6344434 9.2138862 -20 6 C-19.52691406 5.39542969 -19.05382812 4.79085937 -18.56640625 4.16796875 C-13.43967446 -1.29116959 -7.0755557 -1.24435318 0 0 Z " fill="#708A73" transform="translate(778,559)"/>
<path d="M0 0 C1.53333984 0.03383789 1.53333984 0.03383789 3.09765625 0.06835938 C5.60829581 0.12701918 8.11587379 0.20904072 10.625 0.3125 C10.625 1.6325 10.625 2.9525 10.625 4.3125 C8.975 4.3125 7.325 4.3125 5.625 4.3125 C5.68300781 4.91578125 5.74101563 5.5190625 5.80078125 6.140625 C5.94034405 8.6128804 5.97611888 10.85889818 5.625 13.3125 C2.97485518 16.10212613 0.38927412 18.23288474 -3.5390625 18.41015625 C-4.75722656 18.39275391 -4.75722656 18.39275391 -6 18.375 C-7.22589844 18.36146484 -7.22589844 18.36146484 -8.4765625 18.34765625 C-9.10304688 18.33605469 -9.72953125 18.32445312 -10.375 18.3125 C-10.045 19.3025 -9.715 20.2925 -9.375 21.3125 C-8.42238281 21.34988281 -7.46976563 21.38726563 -6.48828125 21.42578125 C-5.23402344 21.49152344 -3.97976563 21.55726563 -2.6875 21.625 C-0.82544922 21.71201172 -0.82544922 21.71201172 1.07421875 21.80078125 C4.73475149 22.32831677 6.75586968 23.0042523 9.625 25.3125 C10.26712874 29.23662007 10.3137184 31.33240074 8 34.625 C2.2894474 38.6824979 -3.59770168 38.84783162 -10.375 38.3125 C-13.98897303 37.66264797 -16.71094738 36.97655262 -19.375 34.3125 C-19.75442388 31.35299371 -19.82922179 29.91124691 -18 27.5 C-16.375 26.3125 -16.375 26.3125 -14.375 26.3125 C-15.035 25.3225 -15.695 24.3325 -16.375 23.3125 C-16.0625 21.3125 -16.0625 21.3125 -15.375 19.3125 C-15.045 18.3225 -14.715 17.3325 -14.375 16.3125 C-15.0865625 15.44625 -15.0865625 15.44625 -15.8125 14.5625 C-18.09521231 11.27539428 -17.99256851 9.22376725 -17.375 5.3125 C-12.27298318 -0.62127418 -7.48399597 -0.31384499 0 0 Z " fill="#789077" transform="translate(802.375,635.6875)"/>
<path d="M0 0 C2.76083748 3.23684395 2.96800174 5.16804519 3.12890625 9.3515625 C3.17080078 10.3828125 3.21269531 11.4140625 3.25585938 12.4765625 C3.29517578 13.55679688 3.33449219 14.63703125 3.375 15.75 C3.41818359 16.83796875 3.46136719 17.9259375 3.50585938 19.046875 C3.6121453 21.7394517 3.71418057 24.43212253 3.8125 27.125 C5.4625 27.455 7.1125 27.785 8.8125 28.125 C7.8125 31.125 7.8125 31.125 5.8125 32.125 C4.26636986 32.03848369 2.72340613 31.88497364 1.1875 31.6875 C0.37023437 31.58566406 -0.44703125 31.48382812 -1.2890625 31.37890625 C-1.91554688 31.29511719 -2.54203125 31.21132813 -3.1875 31.125 C-3.1875 30.135 -3.1875 29.145 -3.1875 28.125 C-5.17241642 28.39176204 -5.17241642 28.39176204 -7.1875 29.125 C-7.5175 30.115 -7.8475 31.105 -8.1875 32.125 C-19.17454358 32.90238516 -19.17454358 32.90238516 -22.875 30.0625 C-24.49897046 26.42789945 -25.39898434 24.14320243 -25.1875 20.125 C-22.6947252 16.19753466 -19.48205875 14.46152087 -15.046875 13.30859375 C-12.09485876 12.80842986 -9.16750836 12.40881032 -6.1875 12.125 C-5.97779441 7.98406302 -5.97779441 7.98406302 -7.1875 4.125 C-10.4875 4.125 -13.7875 4.125 -17.1875 4.125 C-17.5175 5.775 -17.8475 7.425 -18.1875 9.125 C-19.5075 9.125 -20.8275 9.125 -22.1875 9.125 C-22.41025681 5.85790013 -22.51413401 3.72927292 -20.9375 0.8125 C-16.03775554 -3.91225358 -5.4306302 -3.19448835 0 0 Z " fill="#D7934C" transform="translate(997.1875,558.875)"/>
<path d="M0 0 C1.18207031 -0.04253906 2.36414063 -0.08507812 3.58203125 -0.12890625 C7.65826926 0.65277753 9.82597648 1.6721331 12.81958008 4.5012207 C15.60733443 8.70200778 15.17611564 13.55445329 15.125 18.4375 C15.14111328 19.50742187 15.15722656 20.57734375 15.17382812 21.6796875 C15.20903679 24.30860143 15.21264946 26.93358555 15.1875 29.5625 C16.5075 29.8925 17.8275 30.2225 19.1875 30.5625 C18.8575 31.8825 18.5275 33.2025 18.1875 34.5625 C14.8875 34.5625 11.5875 34.5625 8.1875 34.5625 C7.8575 33.5725 7.5275 32.5825 7.1875 31.5625 C6.0428125 32.0265625 6.0428125 32.0265625 4.875 32.5 C-0.2106217 34.51059463 -4.78158309 35.62741675 -10.125 33.75 C-11.8125 32.5625 -11.8125 32.5625 -13.8125 29.5625 C-14.24466534 25.67301193 -14.16519635 23.28392435 -12.4375 19.75 C-7.32776955 15.4918913 -0.28452819 15.22186694 6.1875 15.5625 C6.084375 14.28375 5.98125 13.005 5.875 11.6875 C5.81699219 10.96820312 5.75898437 10.24890625 5.69921875 9.5078125 C5.31356964 7.16730784 5.31356964 7.16730784 2.1875 5.5625 C-0.14449388 5.48344936 -2.48082622 5.47451231 -4.8125 5.5625 C-5.4725 7.5425 -6.1325 9.5225 -6.8125 11.5625 C-8.1325 11.5625 -9.4525 11.5625 -10.8125 11.5625 C-11.203125 5.60546875 -11.203125 5.60546875 -10.8125 3.5625 C-7.65186646 0.13006751 -4.50904778 0.07327813 0 0 Z " fill="#DC9D57" transform="translate(870.8125,556.4375)"/>
<path d="M0 0 C5.61 0 11.22 0 17 0 C17 0.99 17 1.98 17 3 C16.278125 3.350625 15.55625 3.70125 14.8125 4.0625 C10.50254567 7.03157965 9.0579997 11.29979423 7 16 C6.51660156 17.08925781 6.03320312 18.17851563 5.53515625 19.30078125 C3.54107697 23.97266038 1.95377672 28.78288876 0.33789062 33.59570312 C-1.39726478 38.63635246 -3.53241468 43.27268212 -6 48 C-8.2421875 48.078125 -8.2421875 48.078125 -11 47 C-12.81298557 44.09858751 -13.93364845 40.94734269 -15.125 37.75 C-15.79088957 36.03514153 -16.46007475 34.32155852 -17.1328125 32.609375 C-17.44959961 31.79855469 -17.76638672 30.98773437 -18.09277344 30.15234375 C-19.16528927 27.60786055 -20.55408033 25.3486209 -22 23 C-23.32132508 19.74502845 -24.51583467 16.45655615 -25.71875 13.15625 C-26.92529984 10.18401746 -28.14326326 7.61458847 -30 5 C-30.99 4.67 -31.98 4.34 -33 4 C-33 3.01 -33 2.02 -33 1 C-26.73 1 -20.46 1 -14 1 C-14.33 1.99 -14.66 2.98 -15 4 C-15.99 4.33 -16.98 4.66 -18 5 C-17.38687551 8.5730358 -16.42647213 11.68048247 -15.00390625 15.01171875 C-14.61009766 15.93404297 -14.21628906 16.85636719 -13.81054688 17.80664062 C-13.39869141 18.75732422 -12.98683594 19.70800781 -12.5625 20.6875 C-12.15451172 21.64978516 -11.74652344 22.61207031 -11.32617188 23.60351562 C-10.93107422 24.52197266 -10.53597656 25.44042969 -10.12890625 26.38671875 C-9.76869385 27.22420654 -9.40848145 28.06169434 -9.03735352 28.92456055 C-8.06268487 31.14822292 -8.06268487 31.14822292 -6 33 C0.80338297 18.95786263 0.80338297 18.95786263 5 4 C2.525 3.505 2.525 3.505 0 3 C0 2.01 0 1.02 0 0 Z " fill="#365489" transform="translate(566,543)"/>
<path d="M0 0 C2.25390625 1.59765625 2.25390625 1.59765625 4.25390625 3.59765625 C4.57275391 5.93603516 4.57275391 5.93603516 4.66796875 8.82421875 C4.70664062 9.85546875 4.7453125 10.88671875 4.78515625 11.94921875 C4.81609375 13.02945313 4.84703125 14.1096875 4.87890625 15.22265625 C4.91757812 16.310625 4.95625 17.39859375 4.99609375 18.51953125 C5.09056872 21.2120679 5.17613056 23.90459382 5.25390625 26.59765625 C6.90390625 27.25765625 8.55390625 27.91765625 10.25390625 28.59765625 C10.25390625 29.58765625 10.25390625 30.57765625 10.25390625 31.59765625 C6.75243584 32.76481305 3.92720589 32.73123078 0.25390625 32.59765625 C-0.40609375 32.26765625 -1.06609375 31.93765625 -1.74609375 31.59765625 C-1.74609375 30.93765625 -1.74609375 30.27765625 -1.74609375 29.59765625 C-2.71546875 30.09265625 -3.68484375 30.58765625 -4.68359375 31.09765625 C-9.02553924 32.92955212 -13.0940787 33.50197319 -17.74609375 32.59765625 C-20.81266029 30.59500055 -22.35107376 29.24629338 -23.21875 25.625 C-23.37109375 23.53515625 -23.37109375 23.53515625 -22.74609375 19.59765625 C-17.93044472 14.05236343 -10.69183873 13.44815564 -3.74609375 12.59765625 C-3.41211588 9.723525 -3.41211588 9.723525 -3.74609375 6.59765625 C-5.28422796 4.56869413 -5.28422796 4.56869413 -7.74609375 3.59765625 C-10.91341796 3.34678901 -10.91341796 3.34678901 -13.74609375 3.59765625 C-14.73609375 5.57765625 -15.72609375 7.55765625 -16.74609375 9.59765625 C-18.06609375 9.59765625 -19.38609375 9.59765625 -20.74609375 9.59765625 C-21.12109375 6.34765625 -21.12109375 6.34765625 -20.74609375 2.59765625 C-15.63991261 -2.93403998 -6.56195289 -3.35098305 0 0 Z " fill="#3E5B8B" transform="translate(698.74609375,558.40234375)"/>
<path d="M0 0 C3.41672758 2.10136767 5.70143572 4.10430717 7 8 C7.113527 9.67601703 7.1779134 11.35562332 7.2109375 13.03515625 C7.23929688 14.00904297 7.26765625 14.98292969 7.296875 15.98632812 C7.34905283 18.04083004 7.39329561 20.09554848 7.4296875 22.15039062 C7.460625 23.12298828 7.4915625 24.09558594 7.5234375 25.09765625 C7.5531665 26.43582397 7.5531665 26.43582397 7.58349609 27.80102539 C7.72094238 28.52668701 7.85838867 29.25234863 8 30 C8.99 30.66 9.98 31.32 11 32 C11 32.66 11 33.32 11 34 C5.72 34 0.44 34 -5 34 C-5 33.34 -5 32.68 -5 32 C-4.01 31.67 -3.02 31.34 -2 31 C-1.97112488 27.35418313 -1.95324415 23.70839537 -1.9375 20.0625 C-1.92912109 19.02158203 -1.92074219 17.98066406 -1.91210938 16.90820312 C-1.90888672 15.91884766 -1.90566406 14.92949219 -1.90234375 13.91015625 C-1.89710693 12.99371338 -1.89187012 12.07727051 -1.88647461 11.13305664 C-1.76078789 9.01636977 -1.76078789 9.01636977 -3 8 C-4.66429051 7.90176063 -6.33281931 7.87026369 -8 7.875 C-8.9075 7.87242187 -9.815 7.86984375 -10.75 7.8671875 C-12.96966611 7.74826221 -12.96966611 7.74826221 -14 9 C-14.27834768 12.47133297 -14.23176202 15.95632504 -14.25 19.4375 C-14.270625 20.41783203 -14.29125 21.39816406 -14.3125 22.40820312 C-14.31765625 23.34470703 -14.3228125 24.28121094 -14.328125 25.24609375 C-14.3374707 26.10904053 -14.34681641 26.9719873 -14.35644531 27.86108398 C-14.23881836 28.56692627 -14.12119141 29.27276855 -14 30 C-13.01 30.66 -12.02 31.32 -11 32 C-11 32.66 -11 33.32 -11 34 C-16.28 34 -21.56 34 -27 34 C-27 33.34 -27 32.68 -27 32 C-25.68 31.67 -24.36 31.34 -23 31 C-23.33 23.08 -23.66 15.16 -24 7 C-25.32 6.34 -26.64 5.68 -28 5 C-27.67 4.01 -27.34 3.02 -27 2 C-21.06 1.505 -21.06 1.505 -15 1 C-15 1.99 -15 2.98 -15 4 C-14.41992188 3.71125 -13.83984375 3.4225 -13.2421875 3.125 C-4.69208211 -0.93841642 -4.69208211 -0.93841642 0 0 Z " fill="#DB9851" transform="translate(920,556)"/>
<path d="M0 0 C4.66475434 1.64130245 7.55107442 3.66728551 10 8 C10.85486928 12.71922738 10.46140157 16.07719686 8.3125 20.375 C5.19020043 23.91923195 3.22444494 25.69388372 -1.5546875 26.3515625 C-6.19324742 26.59040434 -9.848055 26.71577905 -13.5625 23.6875 C-17.67291364 19.15550547 -18.54814863 16.53855149 -18.4609375 10.58203125 C-17.70118824 6.32614766 -15.23010264 3.73638229 -12 1 C-8.30506957 -0.84746521 -4.04115396 -0.3419438 0 0 Z " fill="#718C73" transform="translate(765,636)"/>
<path d="M0 0 C4.29 0 8.58 0 13 0 C13.0093457 1.40282227 13.01869141 2.80564453 13.02832031 4.25097656 C13.06818564 9.45458762 13.13393537 14.65760531 13.20751953 19.86083984 C13.23574911 22.11304096 13.2569537 24.36534152 13.27099609 26.61767578 C13.2923976 29.85501083 13.33903495 33.09114774 13.390625 36.328125 C13.39185364 37.33554749 13.39308228 38.34296997 13.39434814 39.38092041 C13.41406677 40.32159363 13.4337854 41.26226685 13.45410156 42.23144531 C13.46298401 43.05751282 13.47186646 43.88358032 13.48101807 44.73468018 C13.93665471 47.64511299 13.93665471 47.64511299 18 51 C12.06 51 6.12 51 0 51 C0 50.34 0 49.68 0 49 C1.32 48.34 2.64 47.68 4 47 C4.33 33.14 4.66 19.28 5 5 C2.525 4.01 2.525 4.01 0 3 C0 2.01 0 1.02 0 0 Z " fill="#456191" transform="translate(616,539)"/>
<path d="M0 0 C4.91666667 1.91666667 4.91666667 1.91666667 7 4 C7.23701239 6.85877909 7.42219182 9.69883297 7.5625 12.5625 C7.60568359 13.36880859 7.64886719 14.17511719 7.69335938 15.00585938 C7.79975262 17.00368805 7.90040888 19.0018207 8 21 C8.99 21.33 9.98 21.66 11 22 C10.67 23.32 10.34 24.64 10 26 C7.69 26 5.38 26 3 26 C2.67 25.01 2.34 24.02 2 23 C1.175 23.495 0.35 23.99 -0.5 24.5 C-4.90158735 26.38639458 -7.24756711 26.536565 -12 26 C-14.5 24.375 -14.5 24.375 -16 22 C-16.5 19 -16.5 19 -16 16 C-13.76793569 13.15219381 -12.45007001 12.15002334 -9 11 C-7.27204648 10.93197033 -5.54164635 10.91504355 -3.8125 10.9375 C-2.91144531 10.94652344 -2.01039063 10.95554687 -1.08203125 10.96484375 C-0.39496094 10.97644531 0.29210937 10.98804688 1 11 C1 9.35 1 7.7 1 6 C-3.95 5.67 -8.9 5.34 -14 5 C-14 3.68 -14 2.36 -14 1 C-9.84584361 -1.07707819 -4.53544952 -0.34888073 0 0 Z " fill="#7A9579" transform="translate(708,636)"/>
<path d="M0 0 C3.11765092 1.26176049 3.81914666 2.18784701 6 5 C6 7.97 6 10.94 6 14 C0.06 14 -5.88 14 -12 14 C-11.34 15.98 -10.68 17.96 -10 20 C-4.72 20.33 0.56 20.66 6 21 C6 22.32 6 23.64 6 25 C1.30161248 27.34919376 -4.91769287 26.61689474 -10 26 C-13.6689014 24.09521892 -16.15262072 21.69475857 -18 18 C-18.61029595 12.58580311 -19.05214882 8.39338627 -15.6875 3.9375 C-10.16428549 -0.04435232 -6.75707339 -0.98475178 0 0 Z " fill="#799179" transform="translate(876,636)"/>
<path d="M0 0 C1.20527344 0.00966797 2.41054688 0.01933594 3.65234375 0.02929688 C4.90660156 0.05443359 6.16085937 0.07957031 7.453125 0.10546875 C8.72285156 0.11900391 9.99257813 0.13253906 11.30078125 0.14648438 C14.43532344 0.18183635 17.56901045 0.23118627 20.703125 0.29296875 C20.373125 1.94296875 20.043125 3.59296875 19.703125 5.29296875 C18.053125 5.29296875 16.403125 5.29296875 14.703125 5.29296875 C14.82171875 5.87304688 14.9403125 6.453125 15.0625 7.05078125 C15.80603632 11.55661138 16.02570313 13.65893588 13.890625 17.85546875 C12.8078125 19.06203125 12.8078125 19.06203125 11.703125 20.29296875 C11.043125 20.29296875 10.383125 20.29296875 9.703125 20.29296875 C9.703125 19.63296875 9.703125 18.97296875 9.703125 18.29296875 C6.94671084 18.79052967 6.94671084 18.79052967 4.703125 20.29296875 C-1.50103766 20.87826711 -1.50103766 20.87826711 -4.51171875 18.6640625 C-6.81962917 15.59863225 -6.71170358 13.83402607 -6.546875 10.04296875 C-6.51078125 8.9653125 -6.4746875 7.88765625 -6.4375 6.77734375 C-6.39109375 5.9575 -6.3446875 5.13765625 -6.296875 4.29296875 C-7.616875 3.96296875 -8.936875 3.63296875 -10.296875 3.29296875 C-6.90097291 0.16079097 -4.55175422 -0.06441162 0 0 Z " fill="#DB954B" transform="translate(949.296875,556.70703125)"/>
<path d="M0 0 C3.10137864 2.23321103 3.90776633 3.43710331 4.53125 7.2421875 C4.42626 19.44727543 4.42626 19.44727543 0 24 C-3.21436529 26.14291019 -5.17426609 26.30025791 -8.96484375 26.4609375 C-11.99358543 25.7749653 -13.14344906 24.44950223 -15 22 C-16.1981918 15.31088201 -15.47401695 8.8313856 -12 3 C-8.89253988 -0.56782458 -4.48770124 -1.11316027 0 0 Z " fill="#FAFAFA" transform="translate(775,562)"/>
<path d="M0 0 C3.392924 0.21522279 4.13375459 0.67957798 7 2.875 C10.94584599 8.13612798 10.61985693 14.24845886 10.0625 20.625 C8.89005696 23.17378922 7.99952622 24.68797378 6.0625 26.625 C1.69794812 27.16503583 -1.80435863 27.44652749 -5.4375 24.8125 C-8.13330279 20.88112093 -8.15638947 17.41081908 -8.25 12.75 C-8.28738281 11.53570313 -8.32476563 10.32140625 -8.36328125 9.0703125 C-7.65731217 3.35779203 -5.68604808 0.90254731 0 0 Z " fill="#F6F7F9" transform="translate(594.9375,560.375)"/>
<path d="M0 0 C2.31 0 4.62 0 7 0 C7.33 6.6 7.66 13.2 8 20 C10.97 20 13.94 20 17 20 C17.33 13.4 17.66 6.8 18 0 C20.31 0 22.62 0 25 0 C25 8.58 25 17.16 25 26 C21.803125 26.12375 18.60625 26.2475 15.3125 26.375 C14.31387939 26.42962402 13.31525879 26.48424805 12.28637695 26.54052734 C7.70785705 26.62633134 5.61536245 26.46767546 1.875 23.625 C-0.99332502 19.32918299 -0.54303969 14.59756387 -0.3125 9.625 C-0.28994141 8.69816406 -0.26738281 7.77132812 -0.24414062 6.81640625 C-0.18553677 4.54257665 -0.1035693 2.27215114 0 0 Z " fill="#799079" transform="translate(822,636)"/>
<path d="M0 0 C11.47058824 0 11.47058824 0 17 4 C18.84467846 7.68935692 18.35009552 11.96435342 18 16 C16.71866686 19.16961356 15.4799767 20.57820229 12.9375 22.8125 C10 24 10 24 0 24 C0 16.08 0 8.16 0 0 Z " fill="#F9FAFA" transform="translate(637,633)"/>
<path d="M0 0 C1.03125 -0.03738281 2.0625 -0.07476563 3.125 -0.11328125 C6.65703893 0.40980604 7.77548624 1.60137385 10 4.3125 C8.35 4.6425 6.7 4.9725 5 5.3125 C5 6.01117187 5 6.70984375 5 7.4296875 C5 14.05729167 5 20.68489583 5 27.3125 C1.17295376 29.42368375 -1.60474184 29.71206892 -6 29.3125 C-8 28.3125 -8 28.3125 -9 26.3125 C-8.92916024 23.54974924 -8.4936818 21.05019 -8 18.3125 C-9.32 18.6425 -10.64 18.9725 -12 19.3125 C-9.40019136 15.98292052 -6.88935445 15.69488288 -2.8125 15.125 C-1.72582031 14.96644531 -0.63914062 14.80789063 0.48046875 14.64453125 C1.31191406 14.53496094 2.14335938 14.42539062 3 14.3125 C3.20970559 10.17156302 3.20970559 10.17156302 2 6.3125 C-1.3 6.3125 -4.6 6.3125 -8 6.3125 C-8.33 7.9625 -8.66 9.6125 -9 11.3125 C-10.32 11.3125 -11.64 11.3125 -13 11.3125 C-13.22275681 8.04540013 -13.32663401 5.91677292 -11.75 3 C-8.47422533 -0.15878272 -4.38260192 0.1040868 0 0 Z " fill="#D69951" transform="translate(988,556.6875)"/>
<path d="M0 0 C1.65 0 3.3 0 5 0 C5.33 4.62 5.66 9.24 6 14 C9.55353929 15.1845131 12.27013478 15.26641894 16 15 C17.94369738 13.64570159 17.94369738 13.64570159 19 12 C19 12.66 19 13.32 19 14 C19.66 14 20.32 14 21 14 C20.625 15.9375 20.625 15.9375 20 18 C17.29816945 19.35091528 14.88191794 19.33858058 11.875 19.5625 C10.77929688 19.64628906 9.68359375 19.73007812 8.5546875 19.81640625 C7.71164062 19.87699219 6.86859375 19.93757812 6 20 C6 20.99 6 21.98 6 23 C12.6 23.99 19.2 24.98 26 26 C25.34 26.33 24.68 26.66 24 27 C23.67 27.66 23.34 28.32 23 29 C22 30 22 30 20.23413086 30.11352539 C19.48526611 30.10828857 18.73640137 30.10305176 17.96484375 30.09765625 C17.15595703 30.09443359 16.34707031 30.09121094 15.51367188 30.08789062 C14.66353516 30.07951172 13.81339844 30.07113281 12.9375 30.0625 C12.08349609 30.05798828 11.22949219 30.05347656 10.34960938 30.04882812 C8.23304337 30.03700373 6.11651315 30.01906769 4 30 C3.67 29.01 3.34 28.02 3 27 C2.01 27 1.02 27 0 27 C0.75 20.375 0.75 20.375 3 17 C2.34 17 1.68 17 1 17 C-1.17521331 14.7665693 -1.9485895 13.38585514 -2.36328125 10.2734375 C-2.33814453 8.83871094 -2.33814453 8.83871094 -2.3125 7.375 C-2.30863281 6.41335938 -2.30476562 5.45171875 -2.30078125 4.4609375 C-2 2 -2 2 0 0 Z " fill="#DB9955" transform="translate(938,561)"/>
<path d="M0 0 C1.32 0 2.64 0 4 0 C4 2.97 4 5.94 4 9 C6.97 9 9.94 9 13 9 C13 9.99 13 10.98 13 12 C9.7 12 6.4 12 3 12 C2.29223008 19.35575165 1.85284308 26.6094524 2 34 C4.64 34.33 7.28 34.66 10 35 C10 35.66 10 36.32 10 37 C6.86376336 38.83068697 4.49454451 39.29629308 0.875 39.3125 C-0.42824219 39.33763672 -0.42824219 39.33763672 -1.7578125 39.36328125 C-2.49773438 39.24339844 -3.23765625 39.12351562 -4 39 C-7.51916568 33.72125148 -6.09297457 27.57190493 -4.93359375 21.609375 C-4.79050781 20.91328125 -4.64742187 20.2171875 -4.5 19.5 C-4.35691406 18.77296875 -4.21382812 18.0459375 -4.06640625 17.296875 C-3.71766302 15.52990929 -3.35980277 13.76474691 -3 12 C-4.65 12 -6.3 12 -8 12 C-7.67 11.01 -7.34 10.02 -7 9 C-5.02 9 -3.04 9 -1 9 C-0.67 6.03 -0.34 3.06 0 0 Z " fill="#6D8871" transform="translate(737,552)"/>
<path d="M0 0 C0.99 0.33 1.98 0.66 3 1 C3 2.32 3 3.64 3 5 C-2.445 5.495 -2.445 5.495 -8 6 C-7.67 6.99 -7.34 7.98 -7 9 C-5.26644639 9.91218184 -5.26644639 9.91218184 -3.1875 10.5 C2.89183319 12.62831234 2.89183319 12.62831234 5 15 C5.5 17.9375 5.5 17.9375 5 21 C2.76793569 23.84780619 1.45007001 24.84997666 -2 26 C-3.66458673 26.09308544 -5.33281997 26.12996185 -7 26.125 C-8.299375 26.12886719 -8.299375 26.12886719 -9.625 26.1328125 C-12 26 -12 26 -15 25 C-15 23.68 -15 22.36 -15 21 C-11.04 21 -7.08 21 -3 21 C-2.67 19.68 -2.34 18.36 -2 17 C-2.60328125 16.81824219 -3.2065625 16.63648438 -3.828125 16.44921875 C-12.85631068 13.60970874 -12.85631068 13.60970874 -15 11 C-15.5625 7.5625 -15.5625 7.5625 -15 4 C-11.09081015 -1.0819468 -5.89141398 -0.60911229 0 0 Z " fill="#799179" transform="translate(908,636)"/>
<path d="M0 0 C1.77007714 -0.08114106 3.54122098 -0.13925505 5.3125 -0.1875 C6.29863281 -0.22230469 7.28476562 -0.25710938 8.30078125 -0.29296875 C11 0 11 0 12.79296875 1.32421875 C15.03984484 4.44366808 15.13792434 7.32186763 15.2109375 11.03515625 C15.23929688 12.00904297 15.26765625 12.98292969 15.296875 13.98632812 C15.34905283 16.04083004 15.39329561 18.09554848 15.4296875 20.15039062 C15.460625 21.12298828 15.4915625 22.09558594 15.5234375 23.09765625 C15.54325684 23.98976807 15.56307617 24.88187988 15.58349609 25.80102539 C15.72094238 26.52668701 15.85838867 27.25234863 16 28 C16.99 28.66 17.98 29.32 19 30 C19 30.66 19 31.32 19 32 C13.72 32 8.44 32 3 32 C3 31.34 3 30.68 3 30 C4.32 29.34 5.64 28.68 7 28 C7.33 20.41 7.66 12.82 8 5 C3.545 4.01 3.545 4.01 -1 3 C-0.67 2.01 -0.34 1.02 0 0 Z " fill="#DA9C58" transform="translate(912,558)"/>
<path d="M0 0 C3.3 0 6.6 0 10 0 C10 12.21 10 24.42 10 37 C7.69 37 5.38 37 3 37 C2.67 25.78 2.34 14.56 2 3 C1.34 2.67 0.68 2.34 0 2 C0 1.34 0 0.68 0 0 Z " fill="#708B73" transform="translate(726,624)"/>
<path d="M0 0 C5.61 0 11.22 0 17 0 C17 0.99 17 1.98 17 3 C15.9171875 3.5259375 15.9171875 3.5259375 14.8125 4.0625 C10.49450283 7.03712027 9.07620517 11.29587081 7 16 C6.505 17.0725 6.01 18.145 5.5 19.25 C3.06782601 25.05628819 1.08353311 31.06234241 -1 37 C-2.98 36.67 -4.96 36.34 -7 36 C-6.10534418 33.74952556 -5.20944921 31.49956056 -4.3125 29.25 C-4.04284424 28.57275879 -3.77318848 27.89551758 -3.49536133 27.19775391 C-1.40235557 21.95939999 0.778983 16.76312667 3.01953125 11.5859375 C3.97762283 9.05901866 4.55336681 6.6605891 5 4 C3.35 3.67 1.7 3.34 0 3 C0 2.01 0 1.02 0 0 Z " fill="#476190" transform="translate(566,543)"/>
<path d="M0 0 C2.375 1.375 2.375 1.375 4 4 C4.75641665 8.64655944 4.88955418 12.56302787 2.375 16.625 C-0.75425992 18.43667679 -2.44196446 18.66713166 -6 18 C-8.64736319 15.84030898 -9.79186119 14.19361235 -10.3828125 10.8046875 C-10.57133224 6.9965887 -10.44333696 4.69910828 -8.375 1.4375 C-5.27451464 -0.43910956 -3.56716403 -0.59452734 0 0 Z " fill="#FBFBFB" transform="translate(764,640)"/>
<path d="M0 0 C1.19496094 -0.00386719 1.19496094 -0.00386719 2.4140625 -0.0078125 C3.24679687 -0.00007812 4.07953125 0.00765625 4.9375 0.015625 C5.77023437 0.00789062 6.60296875 0.00015625 7.4609375 -0.0078125 C8.25757813 -0.00523437 9.05421875 -0.00265625 9.875 0 C10.60589844 0.00225586 11.33679688 0.00451172 12.08984375 0.00683594 C13.9375 0.265625 13.9375 0.265625 15.9375 2.265625 C15.77471806 5.43987276 15.4091111 6.82545464 13.0625 9.015625 C8.2826012 11.82733017 3.33837987 11.90206256 -2.0625 11.265625 C-4.6875 9.578125 -4.6875 9.578125 -6.0625 7.265625 C-6.4375 4.640625 -6.4375 4.640625 -6.0625 2.265625 C-3.69681778 -0.10005722 -3.21017774 0.00990796 0 0 Z " fill="#F2F4F7" transform="translate(649.0625,591.734375)"/>
<path d="M0 0 C0.66 0.99 1.32 1.98 2 3 C1.125 5.6875 1.125 5.6875 0 8 C1.32 8 2.64 8 4 8 C4 8.66 4 9.32 4 10 C2.68 10 1.36 10 0 10 C0.66 12.31 1.32 14.62 2 17 C7.28 17.33 12.56 17.66 18 18 C18 19.32 18 20.64 18 22 C13.30161248 24.34919376 7.08230713 23.61689474 2 23 C-1.6689014 21.09521892 -4.15262072 18.69475857 -6 15 C-6.46769663 11.27026736 -6.60935281 7.71650315 -6 4 C-4.14714676 1.76901344 -2.7189131 1.18952448 0 0 Z " fill="#798F79" transform="translate(864,639)"/>
<path d="M0 0 C0.79341797 -0.00386719 1.58683594 -0.00773438 2.40429688 -0.01171875 C8.31086933 -0.00163067 8.31086933 -0.00163067 9.4375 1.125 C9.8125 3.4375 9.8125 3.4375 9.4375 6.125 C5.37270412 10.07993654 2.01381676 11.27542291 -3.5625 11.375 C-4.861875 11.41367187 -4.861875 11.41367187 -6.1875 11.453125 C-8.5625 11.125 -8.5625 11.125 -10.38671875 9.8359375 C-11.5625 8.125 -11.5625 8.125 -11.375 4.5 C-11.106875 3.38625 -10.83875 2.2725 -10.5625 1.125 C-7.26572112 -0.52338944 -3.61933956 -0.01772738 0 0 Z " fill="#FCF8F3" transform="translate(952.5625,591.875)"/>
<path d="M0 0 C0 1.32 0 2.64 0 4 C-2.31 4 -4.62 4 -7 4 C-6.67 4.53625 -6.34 5.0725 -6 5.625 C-4.72351411 8.65665399 -4.66643066 10.73102046 -5 14 C-6.36645978 17.26432059 -7.6342894 18.73485981 -10.5 20.8125 C-15.36679233 22.46373311 -19.90929578 22.2445712 -25 22 C-22.80832125 20.8808449 -20.678479 19.87751581 -18.375 19 C-15.86923233 18.12076359 -15.86923233 18.12076359 -14 16 C-13.71852807 13.69686893 -13.71852807 13.69686893 -13.8125 11.125 C-13.81894531 10.26132812 -13.82539062 9.39765625 -13.83203125 8.5078125 C-13.98606333 6.20807774 -14.35838224 4.20716511 -15 2 C-9.75614911 0.2520497 -5.52677733 -0.19392201 0 0 Z " fill="#3A578C" transform="translate(672,558)"/>
<path d="M0 0 C2.375 1.375 2.375 1.375 4 4 C5.21516315 12.34229982 5.21516315 12.34229982 2.69140625 15.78515625 C-0.13525399 17.81539028 -2.65125733 17.35879386 -6 17 C-7.6953125 15.8203125 -7.6953125 15.8203125 -9 14 C-9.3984375 11.40625 -9.3984375 11.40625 -9.375 8.5 C-9.38273438 7.5409375 -9.39046875 6.581875 -9.3984375 5.59375 C-9 3 -9 3 -7.66015625 1.18359375 C-5.03403727 -0.6886746 -3.12825865 -0.44689409 0 0 Z " fill="#F5F6F9" transform="translate(655,560)"/>
<path d="M0 0 C2.58932418 0.47684584 3.4392003 1.24003455 4.97265625 3.36328125 C5.72502439 7.36853516 5.46825016 11.16802534 3.91015625 14.92578125 C0.9333766 17.1343597 -1.43300979 16.74838846 -5.02734375 16.36328125 C-6.01734375 15.70328125 -7.00734375 15.04328125 -8.02734375 14.36328125 C-8.390625 11.61328125 -8.390625 11.61328125 -8.33984375 8.36328125 C-8.33597656 7.29078125 -8.33210937 6.21828125 -8.328125 5.11328125 C-7.73764723 -0.28537267 -4.78378428 0.11624149 0 0 Z " fill="#FCF8F3" transform="translate(952.02734375,560.63671875)"/>
<path d="M0 0 C2.31 0 4.62 0 7 0 C7 8.58 7 17.16 7 26 C4.69 26 2.38 26 0 26 C0 17.42 0 8.84 0 0 Z " fill="#79937B" transform="translate(674,636)"/>
<path d="M0 0 C1.7634375 -0.02126953 1.7634375 -0.02126953 3.5625 -0.04296875 C7.03613815 0.1899229 9.76451979 0.93966998 13 2.1875 C13 6.1475 13 10.1075 13 14.1875 C12.01 14.1875 11.02 14.1875 10 14.1875 C9.938125 13.23875 9.87625 12.29 9.8125 11.3125 C9.544375 10.28125 9.27625 9.25 9 8.1875 C6.61880754 6.78492124 6.61880754 6.78492124 4 6.1875 C3.34 5.8575 2.68 5.5275 2 5.1875 C-3.78570541 4.58578664 -7.9414641 5.10302689 -13 8.1875 C-13.99 8.6825 -13.99 8.6825 -15 9.1875 C-15 7.8675 -15 6.5475 -15 5.1875 C-16.32 4.8575 -17.64 4.5275 -19 4.1875 C-12.64809003 0.70907311 -7.18209689 0.03937553 0 0 Z " fill="#DFA25D" transform="translate(835,541.8125)"/>
<path d="M0 0 C-0.680625 0.556875 -1.36125 1.11375 -2.0625 1.6875 C-2.701875 2.450625 -3.34125 3.21375 -4 4 C-3.67703659 6.61588287 -3.67703659 6.61588287 -3 9 C-1.95199219 8.98839844 -0.90398438 8.97679687 0.17578125 8.96484375 C1.55468572 8.95546345 2.93359211 8.9463635 4.3125 8.9375 C5.00279297 8.92912109 5.69308594 8.92074219 6.40429688 8.91210938 C9.5483025 8.89692094 11.99420019 8.99806673 15 10 C14.67 11.32 14.34 12.64 14 14 C11.69 14 9.38 14 7 14 C6.67 13.01 6.34 12.02 6 11 C5.175 11.495 4.35 11.99 3.5 12.5 C-0.90158735 14.38639458 -3.24756711 14.536565 -8 14 C-10.5 12.375 -10.5 12.375 -12 10 C-12.60024477 6.39853135 -12.45562482 4.72140596 -10.5 1.625 C-6.86748926 -0.73613198 -4.28156703 -0.2854378 0 0 Z " fill="#768F76" transform="translate(704,648)"/>
<path d="M0 0 C0 2.22926402 -0.01067066 4.45883857 -0.0625 6.6875 C-0.26626225 8.96298597 -0.26626225 8.96298597 1 10 C2.68608966 10.07205511 4.37500659 10.08386068 6.0625 10.0625 C6.98160156 10.05347656 7.90070312 10.04445313 8.84765625 10.03515625 C9.55792969 10.02355469 10.26820313 10.01195312 11 10 C10.02719642 12.43200895 9.36401841 13.75911678 7.15234375 15.22265625 C3.41320387 16.57308971 -0.09267083 16.66049159 -4 16 C-7.0625 14 -7.0625 14 -9 11 C-9.71502244 7.43182977 -9.70581995 4.25479102 -7.875 1 C-5.21065116 -0.42098605 -2.96508915 -0.19767261 0 0 Z " fill="#3C5786" transform="translate(685,575)"/>
<path d="M0 0 C2.8758304 1.87554156 5.43969413 3.87938826 7 7 C7.51701173 13.64161218 7.77013995 19.34479007 4 25 C2.35 25 0.7 25 -1 25 C-0.83701416 24.42024414 -0.67402832 23.84048828 -0.50610352 23.24316406 C0.27677556 19.77326877 0.10312359 16.287377 0.0625 12.75 C0.05798828 12.00492188 0.05347656 11.25984375 0.04882812 10.4921875 C0.03709246 8.6614236 0.0191585 6.83070127 0 5 C-4.455 4.01 -4.455 4.01 -9 3 C-5.95943908 0.29727919 -4.07400852 -0.77600162 0 0 Z " fill="#79907B" transform="translate(778,559)"/>
<path d="M0 0 C-0.06510417 2.01822917 -0.13020833 4.03645833 -0.1953125 6.0546875 C-0.18331689 8.23863645 -0.18331689 8.23863645 2 10 C5.45828022 10.16669318 5.45828022 10.16669318 9 10 C9.99 10 10.98 10 12 10 C12 10.99 12 11.98 12 13 C11.34 13 10.68 13 10 13 C9.67 13.99 9.34 14.98 9 16 C-1.98704358 16.77738516 -1.98704358 16.77738516 -5.6875 13.9375 C-7.22737405 10.49111523 -7.92997373 7.78141853 -8 4 C-6.02333429 1.03500143 -3.60248266 0 0 0 Z " fill="#D7A56A" transform="translate(980,575)"/>
<path d="M0 0 C0 0.66 0 1.32 0 2 C0.8971875 2.4021875 0.8971875 2.4021875 1.8125 2.8125 C3.98316883 3.99086308 5.30817212 5.23060981 7 7 C5.91460938 7.53109375 4.82921875 8.0621875 3.7109375 8.609375 C2.26551761 9.3226991 0.82021111 10.03625301 -0.625 10.75 C-1.33785156 11.09804688 -2.05070313 11.44609375 -2.78515625 11.8046875 C-7.08205053 13.93342411 -11.05110248 16.25900054 -15 19 C-16.66026356 20.01059521 -18.32470102 21.01453001 -20 22 C-17.09087793 15.74609024 -7.31459979 0 0 0 Z " fill="#DB9950" transform="translate(815,356)"/>
<path d="M0 0 C0 1.32 0 2.64 0 4 C-1.65 4 -3.3 4 -5 4 C-4.91298828 4.90492188 -4.91298828 4.90492188 -4.82421875 5.828125 C-4.45523329 12.36443884 -4.45523329 12.36443884 -7.25 15.625 C-10 17 -10 17 -12.3125 16.75 C-12.869375 16.5025 -13.42625 16.255 -14 16 C-13.67 15.484375 -13.34 14.96875 -13 14.4375 C-11.64625996 11.13775866 -11.67316064 8.52986508 -12 5 C-12.99 4.34 -13.98 3.68 -15 3 C-15 2.34 -15 1.68 -15 1 C-9.91913204 0.15318867 -5.15171623 -0.09038099 0 0 Z " fill="#71886F" transform="translate(813,636)"/>
<path d="M0 0 C0.144375 1.0725 0.28875 2.145 0.4375 3.25 C0.83749442 5.91662949 1.27591924 8.41399729 2 11 C3.98 11 5.96 11 8 11 C8 11.99 8 12.98 8 14 C4.97562661 15.5121867 2.33758466 15.17263369 -1 15 C-4.38031589 13.81232145 -4.93216817 13.10174775 -7 10 C-7.07905064 7.66800612 -7.08798769 5.33167378 -7 3 C-1.125 0 -1.125 0 0 0 Z " fill="#D99650" transform="translate(864,576)"/>
<path d="M0 0 C7.35185443 1.5484214 14.5670998 3.36691386 21.75 5.5625 C22.45318359 5.77221436 23.15636719 5.98192871 23.88085938 6.19799805 C25.60749748 6.73767898 27.30720721 7.36204451 29 8 C29.495 8.99 29.495 8.99 30 10 C23.04986089 9.36237256 16.15753093 8.49177216 9.25 7.5 C0.8365066 6.31749767 -7.50971923 5.42016748 -16 5 C-16 4.67 -16 4.34 -16 4 C-9.4 4 -2.8 4 4 4 C4 3.34 4 2.68 4 2 C2.68 1.67 1.36 1.34 0 1 C0 0.67 0 0.34 0 0 Z " fill="#849784" transform="translate(673,476)"/>
<path d="M0 0 C2.03686197 0.44880009 4.07245542 0.90406707 6.1015625 1.38671875 C11.68172414 2.56742681 17.34920867 3.24441766 23 4 C22.01 4.495 22.01 4.495 21 5 C20.67 5.66 20.34 6.32 20 7 C19 8 19 8 17.23413086 8.11352539 C16.48526611 8.10828857 15.73640137 8.10305176 14.96484375 8.09765625 C14.15595703 8.09443359 13.34707031 8.09121094 12.51367188 8.08789062 C11.66353516 8.07951172 10.81339844 8.07113281 9.9375 8.0625 C9.08349609 8.05798828 8.22949219 8.05347656 7.34960938 8.04882812 C5.23304337 8.03700373 3.11651315 8.01906769 1 8 C0.67 7.01 0.34 6.02 0 5 C-0.66 5 -1.32 5 -2 5 C-1.125 1.125 -1.125 1.125 0 0 Z " fill="#D69147" transform="translate(941,583)"/>
<path d="M0 0 C0.08096803 1.45742463 0.13917774 2.91612807 0.1875 4.375 C0.22230469 5.18710937 0.25710938 5.99921875 0.29296875 6.8359375 C0.19628906 7.55007813 0.09960938 8.26421875 0 9 C-3.67346771 11.44897847 -5.66356399 11.31537716 -10 11 C-12 9 -12 9 -12.3125 6.5625 C-12 4 -12 4 -10.75 2.25 C-7.351958 -0.17717286 -4.07763628 -0.11326767 0 0 Z " fill="#F1F3F6" transform="translate(696,575)"/>
<path d="M0 0 C5.61 0 11.22 0 17 0 C17 0.99 17 1.98 17 3 C16.236875 3.4125 15.47375 3.825 14.6875 4.25 C10.99016885 6.65756447 10.46934046 8.90131345 9 13 C8.67 12.34 8.34 11.68 8 11 C6.35 11.66 4.7 12.32 3 13 C3.66 10.03 4.32 7.06 5 4 C3.35 3.67 1.7 3.34 0 3 C0 2.01 0 1.02 0 0 Z " fill="#536D99" transform="translate(566,543)"/>
<path d="M0 0 C1.21236328 0.04060547 1.21236328 0.04060547 2.44921875 0.08203125 C3.06410156 0.11683594 3.67898438 0.15164063 4.3125 0.1875 C4.60546875 6.2421875 4.60546875 6.2421875 4.3125 8.1875 C0.63903229 10.63647847 -1.35106399 10.50287716 -5.6875 10.1875 C-7.6875 8.1875 -7.6875 8.1875 -8 5.75 C-7.6875 3.1875 -7.6875 3.1875 -6.4609375 1.5390625 C-4.16572234 -0.21015434 -2.85019248 -0.12392141 0 0 Z " fill="#FAF5ED" transform="translate(987.6875,575.8125)"/>
<path d="M0 0 C1.21236328 0.02707031 1.21236328 0.02707031 2.44921875 0.0546875 C3.37154297 0.08949219 3.37154297 0.08949219 4.3125 0.125 C4.3125 2.765 4.3125 5.405 4.3125 8.125 C0.91785554 10.21401197 -1.73591529 10.46861606 -5.6875 10.125 C-7.6875 8.125 -7.6875 8.125 -8 5.125 C-7.896875 4.135 -7.79375 3.145 -7.6875 2.125 C-4.48369983 -0.01086678 -3.66810033 -0.10632175 0 0 Z " fill="#FCF8F3" transform="translate(872.6875,575.875)"/>
<path d="M0 0 C1.93166016 0.01740234 1.93166016 0.01740234 3.90234375 0.03515625 C5.19269531 0.04417969 6.48304688 0.05320312 7.8125 0.0625 C8.81152344 0.07410156 9.81054688 0.08570313 10.83984375 0.09765625 C11.16984375 1.41765625 11.49984375 2.73765625 11.83984375 4.09765625 C8.7658767 6.80075024 6.85770649 7.49016336 2.77734375 7.41015625 C1.49150391 7.40435547 1.49150391 7.40435547 0.1796875 7.3984375 C-2.16015625 7.09765625 -2.16015625 7.09765625 -5.16015625 5.09765625 C-4.03724427 0.12476033 -4.03724427 0.12476033 0 0 Z " fill="#EFF2EF" transform="translate(794.16015625,662.90234375)"/>
<path d="M0 0 C1 1 1 1 1.1875 4.4375 C1 8 1 8 -1 10 C-4.13704316 10.333728 -6.16554166 10.52849028 -8.875 8.8125 C-10.40659584 6.34492892 -10.42822025 4.85480169 -10 2 C-7.59027568 -2.25245468 -4.23782457 -0.94173879 0 0 Z " fill="#F0F3F0" transform="translate(801,640)"/>
<path d="M0 0 C0 3.63 0 7.26 0 11 C3.96 11.33 7.92 11.66 12 12 C8.58078453 14.27947698 7.09689823 14.32513105 3.0625 14.375 C2.02222656 14.40335938 0.98195313 14.43171875 -0.08984375 14.4609375 C-3.70468922 13.88838479 -4.86023141 12.93132976 -7 10 C-7.50755847 7.21857957 -7.19028514 4.8542771 -7 2 C-2.25 0 -2.25 0 0 0 Z " fill="#DB934B" transform="translate(941,592)"/>
<path d="M0 0 C0.66 0.99 1.32 1.98 2 3 C1.125 5.6875 1.125 5.6875 0 8 C1.32 8 2.64 8 4 8 C4 8.66 4 9.32 4 10 C3.1028125 10.061875 3.1028125 10.061875 2.1875 10.125 C-0.35100832 10.87739901 -0.35100832 10.87739901 -1.75 14.0625 C-2.36875 15.5165625 -2.36875 15.5165625 -3 17 C-3.66 17 -4.32 17 -5 17 C-6.97941438 13.04117125 -6.7036473 8.29161462 -6 4 C-4.14714676 1.76901344 -2.7189131 1.18952448 0 0 Z " fill="#6E876D" transform="translate(864,639)"/>
<path d="M0 0 C-8.23311977 3.39204534 -16.38296958 6.68860831 -25 9 C-26 6 -26 6 -26 3 C-24.83082031 2.79503906 -23.66164063 2.59007812 -22.45703125 2.37890625 C-20.90884878 2.10680145 -19.360672 1.83466433 -17.8125 1.5625 C-17.04357422 1.42779297 -16.27464844 1.29308594 -15.48242188 1.15429688 C-14.73154297 1.02216797 -13.98066406 0.89003906 -13.20703125 0.75390625 C-12.47564941 0.6264502 -11.74426758 0.49899414 -10.99072266 0.36767578 C-9.38438899 0.07099458 -7.78915176 -0.28540217 -6.19921875 -0.66015625 C-3.81712361 -1.02825976 -2.26999207 -0.75666402 0 0 Z " fill="#69816A" transform="translate(1059,492)"/>
<path d="M0 0 C1.32 0.33 2.64 0.66 4 1 C4 1.66 4 2.32 4 3 C3.01 3.33 2.02 3.66 1 4 C1.99 4.99 2.98 5.98 4 7 C-5.9 7 -15.8 7 -26 7 C-21.42438228 3.94958818 -18.01436288 3.74171561 -12.625 3.5 C-11.09618406 3.43074156 -9.5675238 3.3579375 -8.0390625 3.28125 C-7.02126709 3.23581055 -7.02126709 3.23581055 -5.98291016 3.18945312 C-3.90938014 2.99134191 -2.00539763 2.55359957 0 2 C0 1.34 0 0.68 0 0 Z " fill="#E3B177" transform="translate(862,352)"/>
<path d="M0 0 C0.66 0.33 1.32 0.66 2 1 C2 7.66666667 2 14.33333333 2 21 C1.67 21 1.34 21 1 21 C1 18.36 1 15.72 1 13 C-0.45922693 13.11409593 -1.91740598 13.24165544 -3.375 13.375 C-4.18710937 13.44460938 -4.99921875 13.51421875 -5.8359375 13.5859375 C-8.20334191 13.82892588 -8.20334191 13.82892588 -10 16 C-10.69748583 17.31747324 -11.36959957 18.64914193 -12 20 C-11.67 17.36 -11.34 14.72 -11 12 C-12.32 12.33 -13.64 12.66 -15 13 C-12.40019136 9.67042052 -9.88935445 9.38238288 -5.8125 8.8125 C-4.72582031 8.65394531 -3.63914062 8.49539063 -2.51953125 8.33203125 C-1.68808594 8.22246094 -0.85664062 8.11289062 0 8 C0 5.36 0 2.72 0 0 Z " fill="#DBA76B" transform="translate(991,563)"/>
<path d="M0 0 C3.125 0.375 3.125 0.375 5.5 2.1875 C7.125 4.375 7.125 4.375 7.125 7.375 C2.835 7.375 -1.455 7.375 -5.875 7.375 C-4.51785714 0.58928571 -4.51785714 0.58928571 0 0 Z " fill="#E6EAE6" transform="translate(869.875,639.625)"/>
<path d="M0 0 C0.29296875 2.1640625 0.29296875 2.1640625 0.1875 4.625 C0.16042969 5.44226563 0.13335938 6.25953125 0.10546875 7.1015625 C0.07066406 7.72804688 0.03585937 8.35453125 0 9 C-0.33 9 -0.66 9 -1 9 C-1 6.36 -1 3.72 -1 1 C-2.43791516 1.14168137 -3.8753237 1.28851043 -5.3125 1.4375 C-6.11300781 1.51871094 -6.91351562 1.59992187 -7.73828125 1.68359375 C-10.16087179 1.95265693 -10.16087179 1.95265693 -13 3 C-13 4.65 -13 6.3 -13 8 C-13.33 8 -13.66 8 -14 8 C-14.33 6.02 -14.66 4.04 -15 2 C-16.65 2.66 -18.3 3.32 -20 4 C-18.63016497 0.83884224 -18.0109362 0.0072908 -15 -2 C-8.86361127 -3.07143295 -5.30272186 -3.53514791 0 0 Z " fill="#E5B784" transform="translate(878,575)"/>
<path d="M0 0 C0.33 0.66 0.66 1.32 1 2 C-1.97 2 -4.94 2 -8 2 C-8 2.66 -8 3.32 -8 4 C-5.36 4.99 -2.72 5.98 0 7 C0 14.59 0 22.18 0 30 C-0.33 30 -0.66 30 -1 30 C-1.02505615 29.36908447 -1.0501123 28.73816895 -1.07592773 28.08813477 C-1.19154137 25.24603175 -1.31442316 22.40428917 -1.4375 19.5625 C-1.47681641 18.56927734 -1.51613281 17.57605469 -1.55664062 16.55273438 C-1.59853516 15.60849609 -1.64042969 14.66425781 -1.68359375 13.69140625 C-1.72025146 12.81685791 -1.75690918 11.94230957 -1.79467773 11.04125977 C-1.78181066 9.0072598 -1.78181066 9.0072598 -3 8 C-4.34747084 7.76924918 -5.70377565 7.58846937 -7.0625 7.4375 C-8.361875 7.293125 -9.66125 7.14875 -11 7 C-11 6.67 -11 6.34 -11 6 C-12.65 5.67 -14.3 5.34 -16 5 C-16 4.01 -16 3.02 -16 2 C-16.99 1.67 -17.98 1.34 -19 1 C-17.68 1 -16.36 1 -15 1 C-15 1.99 -15 2.98 -15 4 C-14.41992188 3.71125 -13.83984375 3.4225 -13.2421875 3.125 C-8.65550815 0.94519199 -5.19777151 -0.53310477 0 0 Z " fill="#E2BB8B" transform="translate(920,556)"/>
<path d="M0 0 C-0.02320313 0.69867187 -0.04640625 1.39734375 -0.0703125 2.1171875 C-0.08835937 3.02726563 -0.10640625 3.93734375 -0.125 4.875 C-0.14820313 5.77992188 -0.17140625 6.68484375 -0.1953125 7.6171875 C-0.24324836 10.18806994 -0.24324836 10.18806994 2 12 C4.57061311 12.64767793 4.57061311 12.64767793 7 13 C7 13.33 7 13.66 7 14 C3.6209652 14.28528436 0.37110789 14.42342418 -3 14 C-5.97945601 11.10817505 -5.9842817 9.3196054 -6.1875 5.1875 C-6.125625 4.135625 -6.06375 3.08375 -6 2 C-2.25 0 -2.25 0 0 0 Z " fill="#DC9748" transform="translate(980,575)"/>
<path d="M0 0 C6.40593286 1.10690752 12.71363856 2.33945169 19 4 C18.67 4.66 18.34 5.32 18 6 C13.13157451 7.47528045 7.24508829 7.89803532 2.5 6 C2.005 5.67 1.51 5.34 1 5 C1.66 5 2.32 5 3 5 C2.65213292 3.02463255 2.65213292 3.02463255 2 1 C1.34 0.67 0.68 0.34 0 0 Z " fill="#3F5888" transform="translate(849,436)"/>
<path d="M0 0 C2.01822917 0.06510417 4.03645833 0.13020833 6.0546875 0.1953125 C6.0546875 2.1753125 6.0546875 4.1553125 6.0546875 6.1953125 C3.48255616 7.81480261 2.37799591 8.23940001 -0.6953125 7.8203125 C-1.4378125 7.6140625 -2.1803125 7.4078125 -2.9453125 7.1953125 C-3.5703125 4.8203125 -3.5703125 4.8203125 -3.9453125 2.1953125 C-1.9453125 0.1953125 -1.9453125 0.1953125 0 0 Z " fill="#F2F4F3" transform="translate(702.9453125,649.8046875)"/>
<path d="M0 0 C2.76713403 0.18135551 5.3919776 0.4643386 8.125 0.875 C8.87910156 0.97941406 9.63320313 1.08382812 10.41015625 1.19140625 C12.27484156 1.45104598 14.13762887 1.72425029 16 2 C16.33 3.65 16.66 5.3 17 7 C11.72 6.34 6.44 5.68 1 5 C1 4.34 1 3.68 1 3 C0.01 2.67 -0.98 2.34 -2 2 C-1.34 1.34 -0.68 0.68 0 0 Z " fill="#668265" transform="translate(790,657)"/>
<path d="M0 0 C2.98093122 2.5550839 4.52359755 5.38281401 6 9 C6 11.1875 6 11.1875 5 13 C2.4375 14.75 2.4375 14.75 0 16 C-0.625 14.25 -0.625 14.25 -1 12 C-0.649375 11.34 -0.29875 10.68 0.0625 10 C0.371875 9.34 0.68125 8.68 1 8 C0.36729133 6.65022151 -0.30062468 5.31647119 -1 4 C-0.625 1.75 -0.625 1.75 0 0 Z " fill="#6D876E" transform="translate(787,644)"/>
<path d="M0 0 C3 3.75 3 3.75 3 6 C5.97 6.33 8.94 6.66 12 7 C12 7.33 12 7.66 12 8 C9.69 8 7.38 8 5 8 C5 8.99 5 9.98 5 11 C7.64 11 10.28 11 13 11 C13 11.33 13 11.66 13 12 C7.158256 12.35050464 3.1468192 12.16727335 -2 9 C-1.34 6.03 -0.68 3.06 0 0 Z " fill="#546A91" transform="translate(587,580)"/>
<path d="M0 0 C1.25248502 2.50497004 1.11374406 4.20853274 1.09765625 7.0078125 C1.09443359 7.99394531 1.09121094 8.98007812 1.08789062 9.99609375 C1.07951172 11.02863281 1.07113281 12.06117188 1.0625 13.125 C1.05798828 14.16527344 1.05347656 15.20554687 1.04882812 16.27734375 C1.03701952 18.85161962 1.02055075 21.42578146 1 24 C0.67 24 0.34 24 0 24 C-0.33 17.73 -0.66 11.46 -1 5 C-4.16666667 6.83333333 -4.16666667 6.83333333 -6 10 C-6 7.03 -6 4.06 -6 1 C-3 0 -3 0 0 0 Z " fill="#D89D5B" transform="translate(999,561)"/>
<path d="M0 0 C-0.87199472 2.93307315 -1.68703967 4.70723066 -3.9375 6.8125 C-8.56800202 8.60800078 -13.09182224 8.23208546 -18 8 C-17.67 7.34 -17.34 6.68 -17 6 C-15.07069883 5.53430661 -13.14024464 5.07264449 -11.203125 4.640625 C-7.32895607 3.51409361 -3.94891091 0 0 0 Z " fill="#638168" transform="translate(781,583)"/>
<path d="M0 0 C0.66 0.33 1.32 0.66 2 1 C1.98428955 1.62567871 1.9685791 2.25135742 1.95239258 2.89599609 C1.89015325 5.72223931 1.85104538 8.54833861 1.8125 11.375 C1.78736328 12.35984375 1.76222656 13.3446875 1.73632812 14.359375 C1.72666016 15.30039062 1.71699219 16.24140625 1.70703125 17.2109375 C1.6913208 18.08024902 1.67561035 18.94956055 1.65942383 19.84521484 C1.82800903 20.9118335 1.82800903 20.9118335 2 22 C2.99 22.66 3.98 23.32 5 24 C5 24.66 5 25.32 5 26 C-0.28 26 -5.56 26 -11 26 C-11 25.34 -11 24.68 -11 24 C-9.35 23.67 -7.7 23.34 -6 23 C-6 23.33 -6 23.66 -6 24 C-3.69 24.33 -1.38 24.66 1 25 C0.67 24.34 0.34 23.68 0 23 C-0.08449628 21.2595583 -0.10723024 19.51590278 -0.09765625 17.7734375 C-0.09443359 16.7421875 -0.09121094 15.7109375 -0.08789062 14.6484375 C-0.07951172 13.56820312 -0.07113281 12.48796875 -0.0625 11.375 C-0.05798828 10.28703125 -0.05347656 9.1990625 -0.04882812 8.078125 C-0.03701776 5.38536211 -0.02054778 2.69270812 0 0 Z " fill="#D8A56B" transform="translate(904,564)"/>
<path d="M0 0 C5.94 0 11.88 0 18 0 C18 0.99 18 1.98 18 3 C16.02 3.99 16.02 3.99 14 5 C14 4.01 14 3.02 14 2 C11.36 2.33 8.72 2.66 6 3 C6 3.66 6 4.32 6 5 C4.02 4.34 2.04 3.68 0 3 C0 2.01 0 1.02 0 0 Z " fill="#DCB07B" transform="translate(835,567)"/>
<path d="M0 0 C-1.32 3.3 -2.64 6.6 -4 10 C-5.32 10 -6.64 10 -8 10 C-8.48695652 2.57391304 -8.48695652 2.57391304 -6.25 -0.0625 C-4 -1 -4 -1 0 0 Z " fill="#E4B780" transform="translate(868,558)"/>
<path d="M0 0 C8.25 0 16.5 0 25 0 C25 0.99 25 1.98 25 3 C21.34543185 3.75241109 17.68266103 4.40049704 14 5 C13.67 4.34 13.34 3.68 13 3 C9.9600352 2.30662208 9.9600352 2.30662208 6.4375 1.875 C4.64119141 1.62363281 4.64119141 1.62363281 2.80859375 1.3671875 C1.88175781 1.24601562 0.95492188 1.12484375 0 1 C0 0.67 0 0.34 0 0 Z " fill="#F2E4D2" transform="translate(1027,407)"/>
<path d="M0 0 C0.99 0 1.98 0 3 0 C3 0.66 3 1.32 3 2 C6.96 2 10.92 2 15 2 C15 2.33 15 2.66 15 3 C13.75283203 3.05607422 13.75283203 3.05607422 12.48046875 3.11328125 C11.39378906 3.17902344 10.30710937 3.24476563 9.1875 3.3125 C7.56908203 3.39951172 7.56908203 3.39951172 5.91796875 3.48828125 C2.73468757 4.04652735 1.98763393 4.57605618 0 7 C-1.64605826 8.03357147 -3.30963442 9.04060332 -5 10 C-5.36625971 5.48279689 -5.36625971 5.48279689 -3.625 3.1875 C-2 2 -2 2 0 2 C0 1.34 0 0.68 0 0 Z " fill="#899F8B" transform="translate(788,660)"/>
<path d="M0 0 C2 1 2 1 3 2 C4.34747084 2.23075082 5.70377565 2.41153063 7.0625 2.5625 C8.361875 2.706875 9.66125 2.85125 11 3 C11 3.33 11 3.66 11 4 C6.545 4.495 6.545 4.495 2 5 C1.67 6.65 1.34 8.3 1 10 C-0.32 10 -1.64 10 -3 10 C-3.36923077 4.58461538 -3.36923077 4.58461538 -1.5 1.625 C-1.005 1.08875 -0.51 0.5525 0 0 Z " fill="#E5BB88" transform="translate(978,558)"/>
<path d="M0 0 C4.22910589 -0.05907207 8.45810289 -0.09395041 12.6875 -0.125 C14.45577148 -0.15013672 14.45577148 -0.15013672 16.25976562 -0.17578125 C24.35994059 -0.22016577 32.03592235 0.52630919 40 2 C40 2.33 40 2.66 40 3 C36.68751813 3.02888146 33.37506833 3.04675799 30.0625 3.0625 C29.11697266 3.07087891 28.17144531 3.07925781 27.19726562 3.08789062 C25.84858398 3.09272461 25.84858398 3.09272461 24.47265625 3.09765625 C23.22367554 3.10551147 23.22367554 3.10551147 21.94946289 3.11352539 C20 3 20 3 19 2 C17.58672053 1.84379445 16.1664541 1.74943827 14.74609375 1.68359375 C13.89208984 1.64169922 13.03808594 1.59980469 12.15820312 1.55664062 C11.26037109 1.51732422 10.36253906 1.47800781 9.4375 1.4375 C8.53580078 1.39431641 7.63410156 1.35113281 6.70507812 1.30664062 C4.47021515 1.20021858 2.23523692 1.09820012 0 1 C0 0.67 0 0.34 0 0 Z " fill="#D9AD77" transform="translate(895,322)"/>
<path d="M0 0 C1.75570312 0.04060547 1.75570312 0.04060547 3.546875 0.08203125 C4.43890625 0.11683594 5.3309375 0.15164063 6.25 0.1875 C6.25 0.5175 6.25 0.8475 6.25 1.1875 C0.805 1.6825 0.805 1.6825 -4.75 2.1875 C-2.11 2.5175 0.53 2.8475 3.25 3.1875 C3.25 3.5175 3.25 3.8475 3.25 4.1875 C1.5484375 4.4040625 1.5484375 4.4040625 -0.1875 4.625 C-3.55777201 4.79921478 -3.55777201 4.79921478 -4.75 6.1875 C-4.98287008 7.86933948 -5.16264166 9.5587416 -5.3125 11.25 C-5.43818359 12.62865234 -5.43818359 12.62865234 -5.56640625 14.03515625 C-5.62699219 14.74542969 -5.68757812 15.45570313 -5.75 16.1875 C-6.08 16.1875 -6.41 16.1875 -6.75 16.1875 C-6.75 12.2275 -6.75 8.2675 -6.75 4.1875 C-8.07 3.8575 -9.39 3.5275 -10.75 3.1875 C-7.26391463 -0.10012011 -4.6928191 -0.14078457 0 0 Z " fill="#DFB27F" transform="translate(949.75,556.8125)"/>
<path d="M0 0 C2.31 0 4.62 0 7 0 C7 5.94 7 11.88 7 18 C6.67 18 6.34 18 6 18 C6 12.39 6 6.78 6 1 C1.61997313 3.56137835 1.61997313 3.56137835 1.390625 7.79296875 C1.32437634 9.25706424 1.27815468 10.7221769 1.25 12.1875 C1.22035156 12.93708984 1.19070313 13.68667969 1.16015625 14.45898438 C1.0895921 16.30541307 1.04251524 18.15271261 1 20 C0.67 20 0.34 20 0 20 C0 13.4 0 6.8 0 0 Z " fill="#9DAD9F" transform="translate(822,636)"/>
<path d="M0 0 C0 0.33 0 0.66 0 1 C-8.04456097 0.29563752 -16.01350895 -0.81468505 -24 -2 C-24 -2.33 -24 -2.66 -24 -3 C-15.44187028 -4.67441669 -7.82021264 -3.91010632 0 0 Z " fill="#90A294" transform="translate(703,485)"/>
<path d="M0 0 C0.99 0.33 1.98 0.66 3 1 C-1.32912664 6.13723028 -5.49870038 11.07050027 -11 15 C-11.66 14.67 -12.32 14.34 -13 14 C-8.83295817 9.14256071 -4.58155004 4.46980492 0 0 Z " fill="#294171" transform="translate(495,365)"/>
<path d="M0 0 C-5.51288306 2.96847549 -11.64174283 6 -18 6 C-18 6.66 -18 7.32 -18 8 C-19.98 8.33 -21.96 8.66 -24 9 C-24.33 9.99 -24.66 10.98 -25 12 C-25.99 11.34 -26.98 10.68 -28 10 C-4.52427184 -2.26213592 -4.52427184 -2.26213592 0 0 Z " fill="#E2B67D" transform="translate(867,328)"/>
<path d="M0 0 C1.09570312 0.00902344 2.19140625 0.01804687 3.3203125 0.02734375 C4.16335938 0.03894531 5.00640625 0.05054688 5.875 0.0625 C5.875 0.3925 5.875 0.7225 5.875 1.0625 C3.565 1.3925 1.255 1.7225 -1.125 2.0625 C1.35 3.0525 1.35 3.0525 3.875 4.0625 C3.875 4.3925 3.875 4.7225 3.875 5.0625 C-0.085 5.0625 -4.045 5.0625 -8.125 5.0625 C-8.125 3.7425 -8.125 2.4225 -8.125 1.0625 C-5.36047967 -0.31976016 -3.0788637 -0.03275387 0 0 Z " fill="#849C83" transform="translate(702.125,635.9375)"/>
<path d="M0 0 C0 0.33 0 0.66 0 1 C-2.64 1 -5.28 1 -8 1 C-7.67 2.32 -7.34 3.64 -7 5 C-8.75 6.5625 -8.75 6.5625 -11 8 C-13.125 7.625 -13.125 7.625 -15 7 C-15.99 7.495 -15.99 7.495 -17 8 C-13.74752209 -0.27903468 -7.90448283 -0.55254637 0 0 Z " fill="#7B937B" transform="translate(765,636)"/>
<path d="M0 0 C-0.33 1.65 -0.66 3.3 -1 5 C-2.65 5 -4.3 5 -6 5 C-5.67 7.97 -5.34 10.94 -5 14 C-5.33 14 -5.66 14 -6 14 C-6.66 10.7 -7.32 7.4 -8 4 C-6.68 4 -5.36 4 -4 4 C-4 3.34 -4 2.68 -4 2 C-6.64 2 -9.28 2 -12 2 C-12 1.67 -12 1.34 -12 1 C-7.9472484 0.01751476 -4.16138263 -0.08159574 0 0 Z " fill="#DEB27D" transform="translate(970,557)"/>
<path d="M0 0 C3.96 0 7.92 0 12 0 C12 1.32 12 2.64 12 4 C8.99686252 5.50156874 6.20932478 5.09281204 2.875 5.0625 C1.59367188 5.05347656 0.31234375 5.04445313 -1.0078125 5.03515625 C-2.48894531 5.01775391 -2.48894531 5.01775391 -4 5 C-4 4.67 -4 4.34 -4 4 C-0.7 3.67 2.6 3.34 6 3 C4.02 2.34 2.04 1.68 0 1 C0 0.67 0 0.34 0 0 Z " fill="#94A597" transform="translate(870,657)"/>
<path d="M0 0 C-3.92794419 3.66608124 -6.8890336 4.69384837 -12.1875 5.375 C-13.41855469 5.54773438 -14.64960937 5.72046875 -15.91796875 5.8984375 C-16.93503906 5.93195313 -17.95210937 5.96546875 -19 6 C-19.66 5.34 -20.32 4.68 -21 4 C-19.88625 3.731875 -18.7725 3.46375 -17.625 3.1875 C-13.41502302 2.15189069 -9.31370057 0.85116298 -5.19921875 -0.51171875 C-3 -1 -3 -1 0 0 Z " fill="#D0914A" transform="translate(1050,411)"/>
<path d="M0 0 C4.29 0 8.58 0 13 0 C12.01 0.495 12.01 0.495 11 1 C11.32742188 1.55171875 11.65484375 2.1034375 11.9921875 2.671875 C13.16787715 5.38780923 13.20248638 7.30551759 13.125 10.25 C13.10695313 11.14203125 13.08890625 12.0340625 13.0703125 12.953125 C13.03550781 13.96632813 13.03550781 13.96632813 13 15 C12.67 15 12.34 15 12 15 C11.96261719 14.38511719 11.92523437 13.77023437 11.88671875 13.13671875 C11.78810547 11.92435547 11.78810547 11.92435547 11.6875 10.6875 C11.62949219 9.88699219 11.57148437 9.08648438 11.51171875 8.26171875 C10.89603348 5.54048386 10.2615797 4.61541407 8 3 C5.72838745 2.42676193 5.72838745 2.42676193 3.3125 2.3125 C2.10013672 2.21388672 2.10013672 2.21388672 0.86328125 2.11328125 C0.24839844 2.07589844 -0.36648438 2.03851562 -1 2 C-0.67 1.34 -0.34 0.68 0 0 Z " fill="#D99D5D" transform="translate(945,558)"/>
<path d="M0 0 C4.455 0.99 4.455 0.99 9 2 C5.13081233 3.93459384 2.47693399 4.53322924 -1.75 5.125 C-2.92046875 5.29257812 -4.0909375 5.46015625 -5.296875 5.6328125 C-6.18890625 5.75398438 -7.0809375 5.87515625 -8 6 C-7.34 4.68 -6.68 3.36 -6 2 C-3 2 -3 2 0 3 C0 2.01 0 1.02 0 0 Z " fill="#2D4B82" transform="translate(510,363)"/>
<path d="M0 0 C1.2065625 0.0309375 1.2065625 0.0309375 2.4375 0.0625 C3.0625 2.4375 3.0625 2.4375 3.4375 5.0625 C2.7775 5.7225 2.1175 6.3825 1.4375 7.0625 C-0.6875 6.6875 -0.6875 6.6875 -2.5625 6.0625 C-2.94468767 4.40635343 -3.27645102 2.73792976 -3.5625 1.0625 C-2.5625 0.0625 -2.5625 0.0625 0 0 Z " fill="#758C73" transform="translate(677.5625,624.9375)"/>
<path d="M0 0 C0.66 0 1.32 0 2 0 C2.33 0.66 2.66 1.32 3 2 C5.58605332 2.4683265 5.58605332 2.4683265 8.5625 2.625 C10.08037109 2.73714844 10.08037109 2.73714844 11.62890625 2.8515625 C12.80259766 2.92503906 12.80259766 2.92503906 14 3 C14 3.33 14 3.66 14 4 C8.555 4.495 8.555 4.495 3 5 C3 7.97 3 10.94 3 14 C3.66 14.33 4.32 14.66 5 15 C4.01 15 3.02 15 2 15 C0.50702788 12.01405576 0.88244772 9.29146376 1 6 C1.33 5.34 1.66 4.68 2 4 C0.35 4.33 -1.3 4.66 -3 5 C-2.505 4.360625 -2.01 3.72125 -1.5 3.0625 C0.09802862 1.29025661 0.09802862 1.29025661 0 0 Z " fill="#DFB07D" transform="translate(939,588)"/>
<path d="M0 0 C0.66 0.99 1.32 1.98 2 3 C-7.01531729 5.27571116 -7.01531729 5.27571116 -11.125 4.125 C-11.74375 3.75375 -12.3625 3.3825 -13 3 C-9.51169658 -0.48830342 -4.76220429 -0.42330705 0 0 Z " fill="#4E6892" transform="translate(694,572)"/>
<path d="M0 0 C0.66 0.33 1.32 0.66 2 1 C2 7.66666667 2 14.33333333 2 21 C1.67 21 1.34 21 1 21 C1 18.36 1 15.72 1 13 C-0.65 13 -2.3 13 -4 13 C-3.67 12.34 -3.34 11.68 -3 11 C-4.32 10.34 -5.64 9.68 -7 9 C-3.535 8.505 -3.535 8.505 0 8 C0 5.36 0 2.72 0 0 Z " fill="#E3BC8D" transform="translate(991,563)"/>
<path d="M0 0 C0.33 0.66 0.66 1.32 1 2 C-0.328125 4.8203125 -0.328125 4.8203125 -2.25 8.125 C-2.87390625 9.22070312 -3.4978125 10.31640625 -4.140625 11.4453125 C-4.75421875 12.28835938 -5.3678125 13.13140625 -6 14 C-6.99 14 -7.98 14 -9 14 C-10.33981486 14.3062434 -11.67511887 14.63451555 -13 15 C-12.34 14.38125 -11.68 13.7625 -11 13.125 C-6.94330155 9.09168309 -3.51970455 4.49788547 0 0 Z " fill="#5D6D8A" transform="translate(919,418)"/>
<path d="M0 0 C1.65 0 3.3 0 5 0 C5 0.66 5 1.32 5 2 C5.763125 2.12375 6.52625 2.2475 7.3125 2.375 C10 3 10 3 13 5 C13 5.99 13 6.98 13 8 C13.66 8 14.32 8 15 8 C14.67 8.66 14.34 9.32 14 10 C11.66390677 8.52504318 9.33109833 7.04531255 7 5.5625 C6.33226562 5.14162109 5.66453125 4.72074219 4.9765625 4.28710938 C3.30037435 3.21811183 1.64799163 2.11197395 0 1 C0 0.67 0 0.34 0 0 Z " fill="#DBA66C" transform="translate(898,371)"/>
<path d="M0 0 C0.99 0.33 1.98 0.66 3 1 C4.2077558 4.62326739 3.54311128 5.64146369 2 9 C0.68 9 -0.64 9 -2 9 C-2.125 5.625 -2.125 5.625 -2 2 C-1.34 1.34 -0.68 0.68 0 0 Z " fill="#506A95" transform="translate(680,559)"/>
<path d="M0 0 C7.31707317 0.48780488 7.31707317 0.48780488 10.5 2.875 C12 5 12 5 12 8 C12.66 8 13.32 8 14 8 C13.67 8.66 13.34 9.32 13 10 C10.8304939 8.52485505 8.66436293 7.0451561 6.5 5.5625 C5.87996094 5.14162109 5.25992188 4.72074219 4.62109375 4.28710938 C3.06289602 3.21691863 1.52921949 2.11120482 0 1 C0 0.67 0 0.34 0 0 Z " fill="#D9A468" transform="translate(997,389)"/>
<path d="M0 0 C4.35970831 1.34849837 8.31341438 3.04907846 12.375 5.125 C13.43460938 5.66382813 14.49421875 6.20265625 15.5859375 6.7578125 C16.38257813 7.16773438 17.17921875 7.57765625 18 8 C17.01 8.99 16.02 9.98 15 11 C12.49720508 9.35828571 9.99772323 7.71189741 7.5 6.0625 C6.78457031 5.59392578 6.06914063 5.12535156 5.33203125 4.64257812 C3.53711592 3.45451512 1.7663474 2.23013479 0 1 C0 0.67 0 0.34 0 0 Z " fill="#F5E3D0" transform="translate(937,352)"/>
<path d="M0 0 C0 0.33 0 0.66 0 1 C-2.31 1 -4.62 1 -7 1 C-7 1.66 -7 2.32 -7 3 C-6.01 3.33 -5.02 3.66 -4 4 C-10.75 5 -10.75 5 -13 5 C-13.99 5.33 -14.98 5.66 -16 6 C-15 3 -15 3 -13.0625 1.3125 C-8.70616699 -0.55449986 -4.6736598 -0.24502682 0 0 Z " fill="#819681" transform="translate(876,636)"/>
<path d="M0 0 C1.06347656 0.00386719 2.12695312 0.00773438 3.22265625 0.01171875 C5.9375 0.3125 5.9375 0.3125 7.9375 2.3125 C5.6275 2.3125 3.3175 2.3125 0.9375 2.3125 C0.9375 2.9725 0.9375 3.6325 0.9375 4.3125 C-2.55484244 4.41228121 -5.65687148 4.09092938 -9.0625 3.3125 C-6.43897626 -0.15201393 -4.19734485 -0.06630071 0 0 Z " fill="#4D6894" transform="translate(596.0625,556.6875)"/>
<path d="M0 0 C6.258654 -0.5326514 10.45108785 1.18150494 16 4 C16 4.66 16 5.32 16 6 C10.23955788 5.39363767 5.27985631 3.24341721 0 1 C0 0.67 0 0.34 0 0 Z " fill="#5C739D" transform="translate(721,480)"/>
<path d="M0 0 C3.63 0.33 7.26 0.66 11 1 C11 1.99 11 2.98 11 4 C7.37 4 3.74 4 0 4 C0 2.68 0 1.36 0 0 Z " fill="#69826C" transform="translate(893,657)"/>
<path d="M0 0 C4.48525648 0.656379 8.66914029 1.70074209 13 3 C13 3.33 13 3.66 13 4 C8.71 4 4.42 4 0 4 C0 2.68 0 1.36 0 0 Z " fill="#657F65" transform="translate(866,657)"/>
<path d="M0 0 C3.96 0 7.92 0 12 0 C12 1.32 12 2.64 12 4 C8.37 3.67 4.74 3.34 1 3 C0.67 2.01 0.34 1.02 0 0 Z " fill="#6B856B" transform="translate(899,637)"/>
<path d="M0 0 C0.33 1.32 0.66 2.64 1 4 C-2.63 4 -6.26 4 -10 4 C-10 3.01 -10 2.02 -10 1 C-3.375 0 -3.375 0 0 0 Z " fill="#2F4D81" transform="translate(602,587)"/>
<path d="M0 0 C0.33 0.66 0.66 1.32 1 2 C2.32 2.33 3.64 2.66 5 3 C-0.445 6.96 -0.445 6.96 -6 11 C-6 7.39426104 -5.18292538 6.58663434 -3 3.8125 C-2.443125 3.09707031 -1.88625 2.38164062 -1.3125 1.64453125 C-0.879375 1.10183594 -0.44625 0.55914062 0 0 Z " fill="#DCAE74" transform="translate(802,367)"/>
<path d="M0 0 C0.598125 0.20625 1.19625 0.4125 1.8125 0.625 C0.3275 3.1 0.3275 3.1 -1.1875 5.625 C0.1325 5.955 1.4525 6.285 2.8125 6.625 C2.4825 7.615 2.1525 8.605 1.8125 9.625 C-2.57908329 8.1611389 -3.06697433 5.64668662 -5.1875 1.625 C-2.1875 -0.375 -2.1875 -0.375 0 0 Z " fill="#DE9C52" transform="translate(831.1875,344.375)"/>
<path d="M0 0 C3.66327268 -0.21548663 6.46750111 -0.19260598 9.9375 1.0625 C12 3 12 3 12.3125 6.6875 C12.1578125 8.3271875 12.1578125 8.3271875 12 10 C11.67 10 11.34 10 11 10 C10.67 8.35 10.34 6.7 10 5 C9.01 5.66 8.02 6.32 7 7 C6.67 5.02 6.34 3.04 6 1 C4.02 1 2.04 1 0 1 C0 0.67 0 0.34 0 0 Z " fill="#788E77" transform="translate(800,658)"/>
<path d="M0 0 C2.64 0 5.28 0 8 0 C8 1.32 8 2.64 8 4 C5.69 4.33 3.38 4.66 1 5 C0.67 3.35 0.34 1.7 0 0 Z " fill="#809681" transform="translate(805,636)"/>
<path d="M0 0 C8.18462594 -0.61770762 8.18462594 -0.61770762 11.0625 1.5625 C12.30611966 4.79591112 12.19795384 7.56880011 12 11 C11.34 11 10.68 11 10 11 C9.896875 9.88625 9.79375 8.7725 9.6875 7.625 C9.460625 6.42875 9.23375 5.2325 9 4 C5.81237635 1.87491756 3.73487777 1.4979837 0 1 C0 0.67 0 0.34 0 0 Z " fill="#DCA66B" transform="translate(867,560)"/>
<path d="M0 0 C6.41249814 1.25121915 9.10273324 5.17863906 13 10 C13.66 10.66 14.32 11.32 15 12 C10.6811346 12 8.78127223 9.38440717 5.8125 6.5625 C5.25369141 6.04623047 4.69488281 5.52996094 4.11914062 4.99804688 C2.72081232 3.69191604 1.357217 2.34880015 0 1 C0 0.67 0 0.34 0 0 Z " fill="#3E5584" transform="translate(621,404)"/>
<path d="M0 0 C0 0.66 0 1.32 0 2 C0.66 2 1.32 2 2 2 C1 4 1 4 -2.0625 5.125 C-3.5165625 5.558125 -3.5165625 5.558125 -5 6 C-5 5.01 -5 4.02 -5 3 C-6.98 3 -8.96 3 -11 3 C-10.67 2.34 -10.34 1.68 -10 1 C-9.05125 1.020625 -8.1025 1.04125 -7.125 1.0625 C-4.31337204 1.00626744 -2.6726858 0 0 0 Z " fill="#D69F66" transform="translate(877,584)"/>
<path d="M0 0 C1.4540625 0.0309375 1.4540625 0.0309375 2.9375 0.0625 C2.2775 3.0325 1.6175 6.0025 0.9375 9.0625 C0.6075 9.0625 0.2775 9.0625 -0.0625 9.0625 C-0.3925 7.0825 -0.7225 5.1025 -1.0625 3.0625 C-2.7125 3.7225 -4.3625 4.3825 -6.0625 5.0625 C-3.64893617 0.07446809 -3.64893617 0.07446809 0 0 Z " fill="#DEAA6F" transform="translate(864.0625,573.9375)"/>
<path d="M0 0 C0 0.66 0 1.32 0 2 C-3.3 2.66 -6.6 3.32 -10 4 C-10.33 3.01 -10.66 2.02 -11 1 C-7.32589215 -0.17571451 -3.83070817 -0.07366746 0 0 Z " fill="#345285" transform="translate(693,558)"/>
<path d="M0 0 C0.625 1.8125 0.625 1.8125 1 4 C0.01 5.485 0.01 5.485 -1 7 C-1.29452584 9.38677076 -1.4928217 11.78626094 -1.625 14.1875 C-1.69976563 15.45980469 -1.77453125 16.73210938 -1.8515625 18.04296875 C-1.90054688 19.01878906 -1.94953125 19.99460937 -2 21 C-2.33 21 -2.66 21 -3 21 C-3.08132187 18.43685501 -3.14064175 15.87631582 -3.1875 13.3125 C-3.21263672 12.59126953 -3.23777344 11.87003906 -3.26367188 11.12695312 C-3.32672457 6.52410662 -2.77816458 3.69692767 0 0 Z " fill="#D9AF7F" transform="translate(809,553)"/>
<path d="M0 0 C0.66 0 1.32 0 2 0 C2 0.66 2 1.32 2 2 C2.66 2 3.32 2 4 2 C4.33 1.34 4.66 0.68 5 0 C5.268125 0.7425 5.53625 1.485 5.8125 2.25 C6.94229421 4.86636554 8.20893202 6.80187111 10 9 C9.67 9.66 9.34 10.32 9 11 C7.68141572 9.73548068 6.37032369 8.46314525 5.0625 7.1875 C4.33160156 6.47980469 3.60070312 5.77210938 2.84765625 5.04296875 C1 3 1 3 0 0 Z " fill="#395281" transform="translate(753,387)"/>
<path d="M0 0 C0.66 0 1.32 0 2 0 C2 0.99 2 1.98 2 3 C2.66 3 3.32 3 4 3 C4 3.99 4 4.98 4 6 C1.5 7.6875 1.5 7.6875 -1 9 C-2.0326802 6.21176345 -2.04509293 5.1322726 -1.0625 2.25 C-0.711875 1.5075 -0.36125 0.765 0 0 Z " fill="#7E947D" transform="translate(788,651)"/>
<path d="M0 0 C1.47668858 0.0133035 2.95331108 0.03716415 4.4296875 0.0703125 C5.18378906 0.07933594 5.93789063 0.08835937 6.71484375 0.09765625 C8.57826004 0.1212438 10.44151343 0.15711531 12.3046875 0.1953125 C12.3046875 0.5253125 12.3046875 0.8553125 12.3046875 1.1953125 C11.31726563 1.31648437 10.32984375 1.43765625 9.3125 1.5625 C8.03117188 1.73007812 6.74984375 1.89765625 5.4296875 2.0703125 C3.51542969 2.31394531 3.51542969 2.31394531 1.5625 2.5625 C-1.76695477 2.89408723 -1.76695477 2.89408723 -3.6953125 5.1953125 C-4.3553125 4.2053125 -5.0153125 3.2153125 -5.6953125 2.1953125 C-3.6953125 0.1953125 -3.6953125 0.1953125 0 0 Z " fill="#6E84A6" transform="translate(659.6953125,556.8046875)"/>
<path d="M0 0 C-2.75 4.875 -2.75 4.875 -5 6 C-5 4.68 -5 3.36 -5 2 C-6.32 1.67 -7.64 1.34 -9 1 C-2.25 -1.125 -2.25 -1.125 0 0 Z " fill="#D99F5B" transform="translate(825,545)"/>
<path d="M0 0 C-0.33 0.99 -0.66 1.98 -1 3 C-3.73030993 4.2676439 -4.87352646 4.04311598 -7.75 3.0625 C-8.4925 2.711875 -9.235 2.36125 -10 2 C-6.70021068 -0.19985954 -3.76967739 -1.88483869 0 0 Z " fill="#3F5E8D" transform="translate(667,601)"/>
<path d="M0 0 C2.64 0.33 5.28 0.66 8 1 C8 1.33 8 1.66 8 2 C6.02 2.33 4.04 2.66 2 3 C4.31 3.33 6.62 3.66 9 4 C9 4.33 9 4.66 9 5 C7.54176788 5.0270043 6.08339325 5.04639787 4.625 5.0625 C3.81289063 5.07410156 3.00078125 5.08570313 2.1640625 5.09765625 C0 5 0 5 -2 4 C-2 3.34 -2 2.68 -2 2 C-1.34 2 -0.68 2 0 2 C0 1.34 0 0.68 0 0 Z " fill="#829B88" transform="translate(762,587)"/>
<path d="M0 0 C-1.4562545 0.67119549 -2.91507867 1.33681807 -4.375 2 C-5.59316406 2.556875 -5.59316406 2.556875 -6.8359375 3.125 C-9 4 -9 4 -11 4 C-11 3.34 -11 2.68 -11 2 C-12.32 1.67 -13.64 1.34 -15 1 C-13.25215171 0.63536268 -11.50159498 0.2836922 -9.75 -0.0625 C-8.28820313 -0.35833984 -8.28820313 -0.35833984 -6.796875 -0.66015625 C-4.131881 -0.98397535 -2.51128277 -0.85503199 0 0 Z " fill="#7C937E" transform="translate(1059,492)"/>
<path d="M0 0 C1 3 1 3 1 4 C1.99 4 2.98 4 4 4 C4 3.34 4 2.68 4 2 C4.99 2.33 5.98 2.66 7 3 C4.44931155 5.35448165 3.28982642 5.98327924 -0.25 6.1875 C-1.1575 6.125625 -2.065 6.06375 -3 6 C-2.42655063 3.13275314 -2.1385485 2.1385485 0 0 Z " fill="#DA9F5A" transform="translate(806,363)"/>
<path d="M0 0 C0 0.66 0 1.32 0 2 C2.97 2 5.94 2 9 2 C9 2.33 9 2.66 9 3 C5.37 3.66 1.74 4.32 -2 5 C-2.33 4.01 -2.66 3.02 -3 2 C-5.01508358 1.26676204 -5.01508358 1.26676204 -7 1 C-4 0 -4 0 0 0 Z " fill="#DEAA6C" transform="translate(826,543)"/>
<path d="M0 0 C0.66 0.33 1.32 0.66 2 1 C1.34 1.66 0.68 2.32 0 3 C-0.99 4.485 -0.99 4.485 -2 6 C-5.125 6.1875 -5.125 6.1875 -8 6 C-8 5.34 -8 4.68 -8 4 C-6.71349294 3.30289269 -5.42059335 2.61757124 -4.125 1.9375 C-3.40570312 1.55464844 -2.68640625 1.17179687 -1.9453125 0.77734375 C-1.30335938 0.52082031 -0.66140625 0.26429688 0 0 Z " fill="#849C87" transform="translate(860,490)"/>
<path d="M0 0 C0 0.33 0 0.66 0 1 C-0.94875 1.28875 -1.8975 1.5775 -2.875 1.875 C-6.05211578 2.76825109 -6.05211578 2.76825109 -8 5 C-8.45811675 6.97235333 -8.45811675 6.97235333 -8.625 9.125 C-8.74875 10.40375 -8.8725 11.6825 -9 13 C-9.33 13 -9.66 13 -10 13 C-10.61741425 4.97361478 -10.61741425 4.97361478 -8.375 1.4375 C-5.40106977 -0.3625104 -3.41756151 -0.31068741 0 0 Z " fill="#D6DDD6" transform="translate(764,640)"/>
<path d="M0 0 C-0.33 0.66 -0.66 1.32 -1 2 C-3.97 2 -6.94 2 -10 2 C-10.33 1.34 -10.66 0.68 -11 0 C-7.01803543 -1.05404945 -4.01804691 -0.84098656 0 0 Z " fill="#28497E" transform="translate(662,604)"/>
<path d="M0 0 C0.33 0 0.66 0 1 0 C1 3.96 1 7.92 1 12 C0.01 12 -0.98 12 -2 12 C-2.33 10.35 -2.66 8.7 -3 7 C-2.34 6.67 -1.68 6.34 -1 6 C-0.34227572 2.97065509 -0.34227572 2.97065509 0 0 Z " fill="#DAA770" transform="translate(847,544)"/>
<path d="M0 0 C0.33 0.99 0.66 1.98 1 3 C-0.14453125 5.0078125 -0.14453125 5.0078125 -1.8125 7.125 C-2.62654297 8.18074219 -2.62654297 8.18074219 -3.45703125 9.2578125 C-5 11 -5 11 -7 12 C-6.34 10.35 -5.68 8.7 -5 7 C-4.34 7 -3.68 7 -3 7 C-2.814375 5.824375 -2.814375 5.824375 -2.625 4.625 C-2 2 -2 2 0 0 Z " fill="#3B517A" transform="translate(911,430)"/>
<path d="M0 0 C1.32 0.99 2.64 1.98 4 3 C4.375 6.5625 4.375 6.5625 4 10 C3.34 10.66 2.68 11.32 2 12 C1.34 8.04 0.68 4.08 0 0 Z " fill="#D6A872" transform="translate(965,587)"/>
<path d="M0 0 C-0.33 0.99 -0.66 1.98 -1 3 C-1.66 3.28875 -2.32 3.5775 -3 3.875 C-5.29150599 4.8553382 -5.29150599 4.8553382 -5.75 7.625 C-5.8325 8.40875 -5.915 9.1925 -6 10 C-6.33 10 -6.66 10 -7 10 C-7 7.36 -7 4.72 -7 2 C-2.25 0 -2.25 0 0 0 Z " fill="#DB9B5F" transform="translate(941,592)"/>
<path d="M0 0 C-0.33 1.65 -0.66 3.3 -1 5 C-1.99 5.33 -2.98 5.66 -4 6 C-4.66 6.99 -5.32 7.98 -6 9 C-5.6875 5.625 -5.6875 5.625 -5 2 C-2 0 -2 0 0 0 Z " fill="#D89958" transform="translate(944,579)"/>
<path d="M0 0 C2.31 0.33 4.62 0.66 7 1 C7.33 2.65 7.66 4.3 8 6 C4.64532525 4.82133049 2.28780716 3.76945078 0 1 C0 0.67 0 0.34 0 0 Z " fill="#465F8B" transform="translate(591,382)"/>
<path d="M0 0 C2.4375 0.75 2.4375 0.75 5 2 C5.8125 4.125 5.8125 4.125 6 6 C3.13275314 5.42655063 2.1385485 5.1385485 0 3 C0 2.01 0 1.02 0 0 Z " fill="#3B5E97" transform="translate(633,341)"/>
<path d="M0 0 C0.33 0.99 0.66 1.98 1 3 C1.99 3.33 2.98 3.66 4 4 C2.02 4.99 2.02 4.99 0 6 C0 5.34 0 4.68 0 4 C-2.31 4.33 -4.62 4.66 -7 5 C-6.01 4.34 -5.02 3.68 -4 3 C-2.66209359 2.00612666 -1.32781878 1.0073108 0 0 Z " fill="#D8A86F" transform="translate(961,598)"/>
<path d="M0 0 C3.63 0 7.26 0 11 0 C11 0.33 11 0.66 11 1 C10.04287109 1.07347656 10.04287109 1.07347656 9.06640625 1.1484375 C8.24011719 1.22320313 7.41382813 1.29796875 6.5625 1.375 C5.73878906 1.44460938 4.91507813 1.51421875 4.06640625 1.5859375 C3.38449219 1.72257813 2.70257812 1.85921875 2 2 C1.67 2.66 1.34 3.32 1 4 C1.99 4.33 2.98 4.66 4 5 C2.35 4.67 0.7 4.34 -1 4 C-0.67 2.68 -0.34 1.36 0 0 Z " fill="#EFD6BA" transform="translate(944,580)"/>
<path d="M0 0 C1.98 0.495 1.98 0.495 4 1 C3.34 1 2.68 1 2 1 C2.33 4.3 2.66 7.6 3 11 C2.34 9.68 1.68 8.36 1 7 C0.34 6.01 -0.32 5.02 -1 4 C-0.625 1.8125 -0.625 1.8125 0 0 Z " fill="#375287" transform="translate(658,559)"/>
<path d="M0 0 C1.65 0 3.3 0 5 0 C4.67 0.99 4.34 1.98 4 3 C5.65 3 7.3 3 9 3 C9 3.33 9 3.66 9 4 C6.36 4 3.72 4 1 4 C0.67 2.68 0.34 1.36 0 0 Z " fill="#D5DDD5" transform="translate(792,654)"/>
<path d="M0 0 C-0.8125 2.4375 -0.8125 2.4375 -2 5 C-2.99 5.33 -3.98 5.66 -5 6 C-5.33 4.68 -5.66 3.36 -6 2 C-2.25 0 -2.25 0 0 0 Z " fill="#6E8A6E" transform="translate(781,583)"/>
<path d="M0 0 C2.64 0 5.28 0 8 0 C8 0.33 8 0.66 8 1 C6.35 1 4.7 1 3 1 C3.33 2.32 3.66 3.64 4 5 C1.525 4.01 1.525 4.01 -1 3 C-0.67 2.01 -0.34 1.02 0 0 Z " fill="#DEB889" transform="translate(893,558)"/>
<path d="M0 0 C1.65 0 3.3 0 5 0 C5 0.99 5 1.98 5 3 C1.7 3 -1.6 3 -5 3 C-5 2.67 -5 2.34 -5 2 C-3.35 2 -1.7 2 0 2 C0 1.34 0 0.68 0 0 Z " fill="#637C64" transform="translate(833,658)"/>
<path d="M0 0 C0.99 0.33 1.98 0.66 3 1 C3 1.66 3 2.32 3 3 C5.97 3 8.94 3 12 3 C12 3.33 12 3.66 12 4 C8.04 4 4.08 4 0 4 C0 2.68 0 1.36 0 0 Z " fill="#A8B8A9" transform="translate(694,637)"/>
<path d="M0 0 C3.3 0 6.6 0 10 0 C9.67 0.99 9.34 1.98 9 3 C4.545 2.01 4.545 2.01 0 1 C0 0.67 0 0.34 0 0 Z " fill="#6C8C6A" transform="translate(699,637)"/>
<path d="M0 0 C1.65 0 3.3 0 5 0 C5.33 1.65 5.66 3.3 6 5 C5.01 5.495 5.01 5.495 4 6 C3.34 5.34 2.68 4.68 2 4 C2 3.34 2 2.68 2 2 C1.34 1.34 0.68 0.68 0 0 Z " fill="#879F89" transform="translate(675,625)"/>
<path d="M0 0 C0.598125 0.20625 1.19625 0.4125 1.8125 0.625 C0.8225 1.12 0.8225 1.12 -0.1875 1.625 C1.4625 1.955 3.1125 2.285 4.8125 2.625 C4.8125 2.955 4.8125 3.285 4.8125 3.625 C-1.2421875 3.8203125 -1.2421875 3.8203125 -3.1875 3.625 C-3.8475 2.965 -4.5075 2.305 -5.1875 1.625 C-2.1875 -0.375 -2.1875 -0.375 0 0 Z " fill="#D8A467" transform="translate(984.1875,557.375)"/>
<path d="M0 0 C2.31 0 4.62 0 7 0 C6.67 0.99 6.34 1.98 6 3 C4.02 3 2.04 3 0 3 C0 2.01 0 1.02 0 0 Z " fill="#618365" transform="translate(1041,494)"/>
<path d="M0 0 C2.64 0.33 5.28 0.66 8 1 C8.33 1.99 8.66 2.98 9 4 C4.545 3.01 4.545 3.01 0 2 C0 1.34 0 0.68 0 0 Z " fill="#4C689A" transform="translate(828,453)"/>
<path d="M0 0 C4.41889613 1.35021826 6.34345343 3.26115668 9 7 C8.01 7.495 8.01 7.495 7 8 C7 7.34 7 6.68 7 6 C5.68 5.34 4.36 4.68 3 4 C3 3.34 3 2.68 3 2 C2.01 2 1.02 2 0 2 C0 1.34 0 0.68 0 0 Z " fill="#4D628E" transform="translate(717,369)"/>
<path d="M0 0 C7.75 -0.125 7.75 -0.125 10 1 C10 1.66 10 2.32 10 3 C4.58461538 3.36923077 4.58461538 3.36923077 1.625 1.5 C1.08875 1.005 0.5525 0.51 0 0 Z " fill="#889E8A" transform="translate(699,647)"/>
<path d="M0 0 C2.97 0 5.94 0 9 0 C8.01 1.485 8.01 1.485 7 3 C3.375 3.1875 3.375 3.1875 0 3 C0 2.01 0 1.02 0 0 Z " fill="#6B846A" transform="translate(757,637)"/>
<path d="M0 0 C1 3 1 3 -0.4375 6.1875 C-1.2109375 7.5796875 -1.2109375 7.5796875 -2 9 C-4 6 -4 6 -3.625 3.8125 C-3.41875 3.214375 -3.2125 2.61625 -3 2 C-2.34 2 -1.68 2 -1 2 C-0.67 1.34 -0.34 0.68 0 0 Z " fill="#3B5786" transform="translate(569,563)"/>
<path d="M0 0 C3.3 0 6.6 0 10 0 C9.01 1.485 9.01 1.485 8 3 C6.68 3 5.36 3 4 3 C4 2.34 4 1.68 4 1 C2.68 0.67 1.36 0.34 0 0 Z " fill="#4D6892" transform="translate(646,557)"/>
<path d="M0 0 C-2.96178773 1.67110042 -5.37071192 2.32682752 -8.75 2.625 C-9.54921875 2.69976562 -10.3484375 2.77453125 -11.171875 2.8515625 C-11.77515625 2.90054687 -12.3784375 2.94953125 -13 3 C-8.83099908 0.22066605 -4.8978425 -1.63261417 0 0 Z " fill="#D9B17F" transform="translate(1050,411)"/>
<path d="M0 0 C6.52307692 1.47692308 6.52307692 1.47692308 8.9375 4.125 C9.288125 4.74375 9.63875 5.3625 10 6 C6.62972148 6 5.93297304 5.50175992 3.3125 3.5625 C2.68988281 3.11003906 2.06726563 2.65757812 1.42578125 2.19140625 C0.95527344 1.79824219 0.48476563 1.40507812 0 1 C0 0.67 0 0.34 0 0 Z " fill="#4E638E" transform="translate(605,392)"/>
<path d="M0 0 C2.31 0.66 4.62 1.32 7 2 C7.33 3.65 7.66 5.3 8 7 C6.66382648 6.02471263 5.3311249 5.04466681 4 4.0625 C3.2575 3.51722656 2.515 2.97195313 1.75 2.41015625 C1.1725 1.94480469 0.595 1.47945313 0 1 C0 0.67 0 0.34 0 0 Z " fill="#D9A36A" transform="translate(989,382)"/>
<path d="M0 0 C1.98 0 3.96 0 6 0 C6 0.99 6 1.98 6 3 C7.32 3.33 8.64 3.66 10 4 C8.72125 3.896875 7.4425 3.79375 6.125 3.6875 C5.04605469 3.60048828 5.04605469 3.60048828 3.9453125 3.51171875 C2 3 2 3 0 0 Z " fill="#77937A" transform="translate(641,657)"/>
<path d="M0 0 C4.875 1.75 4.875 1.75 6 4 C4.35 4.33 2.7 4.66 1 5 C0.67 3.35 0.34 1.7 0 0 Z " fill="#DBA35C" transform="translate(992,557)"/>
<path d="M0 0 C1.98 0 3.96 0 6 0 C5.67 0.66 5.34 1.32 5 2 C2.6859378 2.73075648 0.35171131 3.40138258 -2 4 C-1.34 2.68 -0.68 1.36 0 0 Z " fill="#6B846C" transform="translate(767,559)"/>
<path d="M0 0 C1.98 0.99 3.96 1.98 6 3 C5.67 3.66 5.34 4.32 5 5 C3.35 4.67 1.7 4.34 0 4 C0 2.68 0 1.36 0 0 Z " fill="#3E5D91" transform="translate(783,435)"/>
<path d="M0 0 C0.66 0.99 1.32 1.98 2 3 C0.35 4.32 -1.3 5.64 -3 7 C-3.66 6.67 -4.32 6.34 -5 6 C-3.35 4.02 -1.7 2.04 0 0 Z " fill="#5F6C8F" transform="translate(487,373)"/>
<path d="M0 0 C0.66 0.33 1.32 0.66 2 1 C0.68 2.65 -0.64 4.3 -2 6 C-3.32 5.67 -4.64 5.34 -6 5 C-4.02 3.35 -2.04 1.7 0 0 Z " fill="#DFAD6A" transform="translate(824,347)"/>
<path d="M0 0 C0.33 0.99 0.66 1.98 1 3 C1.66 3.33 2.32 3.66 3 4 C2.34 4.66 1.68 5.32 1 6 C0.60235737 7.98821313 0.26224651 9.98944339 0 12 C-0.33 12 -0.66 12 -1 12 C-1.14285714 3.42857143 -1.14285714 3.42857143 0 0 Z " fill="#879C8B" transform="translate(732,576)"/>
<path d="M0 0 C-0.33 0.99 -0.66 1.98 -1 3 C-3.5625 4.1875 -3.5625 4.1875 -6 5 C-5.6875 3.0625 -5.6875 3.0625 -5 1 C-2 0 -2 0 0 0 Z " fill="#4C6996" transform="translate(665,574)"/>
<path d="M0 0 C1.32 0.33 2.64 0.66 4 1 C2.35 2.98 0.7 4.96 -1 7 C-1.625 5.1875 -1.625 5.1875 -2 3 C-1.34 2.01 -0.68 1.02 0 0 Z " fill="#3A5582" transform="translate(641,560)"/>
<path d="M0 0 C2.64 0 5.28 0 8 0 C8 0.66 8 1.32 8 2 C8.99 2.33 9.98 2.66 11 3 C9.35 3.33 7.7 3.66 6 4 C6 3.01 6 2.02 6 1 C4.02 1 2.04 1 0 1 C0 0.67 0 0.34 0 0 Z " fill="#748C76" transform="translate(1033,495)"/>
<path d="M0 0 C0.99 0.33 1.98 0.66 3 1 C2.67 1.66 2.34 2.32 2 3 C-0.64860427 3.59355614 -3.29197322 3.74209269 -6 4 C-4.03617993 2.49440461 -2.21736634 1.10868317 0 0 Z " fill="#415C89" transform="translate(895,440)"/>
<path d="M0 0 C2.02045442 0.60183749 4.02111039 1.27306096 6 2 C6.33 2.66 6.66 3.32 7 4 C5.02 4 3.04 4 1 4 C0.67 2.68 0.34 1.36 0 0 Z " fill="#3D619B" transform="translate(629,346)"/>
</svg>
