<svg version="1.1" id="Layer_1" xmlns="http://www.w3.org/2000/svg" xmlns:xlink="http://www.w3.org/1999/xlink" x="0px" y="0px"
	 width="100%" viewBox="0 0 1024 1024" enable-background="new 0 0 1024 1024" xml:space="preserve">
<path fill="#FEFEFE" opacity="1.000000" stroke="none" 
	d="

M436.002838,324.995453 
	C436.002838,324.995453 436.027802,324.975433 435.698547,324.403229 
	C433.298157,322.552032 430.897797,320.700867 428.066833,318.250580 
	C427.464081,318.006470 426.801178,317.854218 426.267395,317.504791 
	C414.648102,309.897583 403.075256,302.218781 391.416931,294.672089 
	C387.660339,292.240356 383.685913,290.145172 379.811127,287.896027 
	C381.990448,287.175415 383.802429,287.261292 385.568329,287.592712 
	C410.215088,292.218170 432.265778,302.693665 452.668091,317.064392 
	C472.599884,331.103668 488.675812,349.177795 505.168945,366.794281 
	C525.621521,388.639862 548.660950,406.444458 577.621704,415.633759 
	C598.948425,422.400726 620.598572,423.987854 642.685486,420.403809 
	C623.617249,417.091034 605.879517,410.294952 588.915405,401.148499 
	C564.510071,387.989960 544.609070,369.424347 525.846802,349.431305 
	C500.176819,322.077393 472.244080,297.388245 438.972534,279.675323 
	C424.228699,271.826111 408.359772,266.090149 392.406158,258.917816 
	C339.490601,241.059601 286.291901,240.077301 232.925400,256.634735 
	C204.761246,265.372894 180.188248,281.053314 156.210159,297.681396 
	C141.270493,308.041595 127.454582,319.731842 115.546959,334.192596 
	C115.606148,334.368439 115.665337,334.544312 115.724525,334.720154 
	C115.835365,334.670807 116.043831,334.613953 116.040710,334.573395 
	C116.024300,334.359955 115.954453,334.150665 116.561401,334.419312 
	C117.317406,334.074768 118.082031,333.747833 118.828171,333.383118 
	C165.449783,310.593658 211.214371,314.106873 256.224213,338.027405 
	C282.021606,351.737488 304.208252,370.313904 325.556213,390.002930 
	C348.692108,411.340942 371.463562,433.251251 398.280975,449.996552 
	C442.680084,477.720245 490.910858,492.111084 543.709595,490.335663 
	C580.649414,489.093536 615.427734,480.627808 647.657043,462.307098 
	C671.730591,448.622559 691.585815,430.610199 705.132568,406.161133 
	C707.024475,402.746582 708.658081,399.188873 710.411194,395.697388 
	C709.278503,395.514679 708.848328,395.703217 708.564880,396.022125 
	C684.939819,422.602509 654.751892,435.790344 619.824463,437.951233 
	C606.991699,438.745178 593.980286,436.651276 580.449280,435.437439 
	C566.298889,430.362244 552.148560,425.287048 537.674622,419.927002 
	C537.674622,419.927002 537.243713,419.911652 536.852051,419.403992 
	C535.900940,418.947876 534.949768,418.491791 533.857239,417.813507 
	C533.857239,417.813507 533.598755,417.864288 533.231812,417.329498 
	C532.834045,417.180847 532.436218,417.032196 532.036743,416.968536 
	C532.036743,416.968536 532.106445,416.919861 531.724060,416.360840 
	C517.374329,407.692230 504.553619,397.103302 492.956512,385.052521 
	C483.494904,375.220764 474.272766,365.158600 464.668549,354.615845 
	C463.488220,353.391724 462.307892,352.167603 460.904633,350.301544 
	C458.563141,347.598114 456.406586,344.702820 453.841858,342.230957 
	C448.422943,337.008331 442.790649,332.007111 437.120667,326.299683 
	C436.755341,325.857788 436.389984,325.415924 436.002838,324.995453 
M788.922424,515.887390 
	C831.088135,514.304016 872.412720,508.553680 911.412964,491.283447 
	C904.673706,492.147278 898.063293,493.663757 891.403748,494.919312 
	C865.831604,499.740601 839.975220,501.604156 813.075073,502.012665 
	C799.100830,501.577972 785.098755,501.559448 771.157593,500.629028 
	C732.217224,498.030060 693.873901,491.456085 655.926208,482.450989 
	C654.522034,482.117767 652.850220,481.828583 651.559509,482.269470 
	C639.613159,486.349487 627.723267,490.594757 615.695557,494.834747 
	C616.672913,495.132996 617.607117,495.458984 618.562134,495.703644 
	C649.060791,503.516632 679.872681,510.032593 711.245850,512.587708 
	C736.747986,514.664673 762.410706,514.770081 788.922424,515.887390 
M754.056396,302.284515 
	C772.163818,308.391998 789.070862,317.004791 804.880127,327.625214 
	C818.423767,336.723572 831.393127,346.673248 844.857727,355.894135 
	C858.905396,365.514252 873.865784,373.138733 891.518494,372.824493 
	C902.883362,372.622223 913.210266,369.768524 920.050415,359.724670 
	C913.416321,356.753815 906.524231,354.712402 900.812866,350.901398 
	C887.129272,341.770721 873.544312,332.376038 860.731689,322.077454 
	C817.510681,287.336945 770.330750,262.330231 713.689453,258.674866 
	C654.384949,254.847580 603.584900,273.415436 561.411438,315.315704 
	C557.660095,319.042816 554.487000,323.352020 551.045349,327.390900 
	C551.333130,327.714294 551.620850,328.037720 551.908630,328.361115 
	C553.748108,327.364990 555.633911,326.445160 557.420166,325.361389 
	C587.212158,307.286377 619.103577,301.959869 652.971558,310.242950 
	C675.056580,315.644318 694.088257,327.422546 712.024048,340.872955 
	C729.072083,353.657562 744.985901,368.037018 762.541260,380.044373 
	C794.248108,401.730957 829.171753,407.584473 866.422729,396.946503 
	C876.472656,394.076477 885.838379,389.674713 894.254089,383.289398 
	C892.509399,383.114136 890.890930,383.291870 889.291077,383.574829 
	C878.183411,385.539581 867.090088,385.661133 856.039551,383.223633 
	C836.265076,378.861816 820.695618,367.474945 806.550537,353.641876 
	C788.321289,335.814819 770.108948,317.950653 748.100281,304.623444 
	C745.249268,302.896973 742.391541,301.181519 739.536926,299.460999 
	C739.670105,299.109131 739.803345,298.757294 739.936584,298.405457 
	C744.390320,299.618958 748.843994,300.832428 754.056396,302.284515 
M202.607666,486.937103 
	C280.282684,476.691284 357.823151,478.148682 435.329895,489.870117 
	C433.924530,488.673889 432.453339,488.063324 430.921844,487.727966 
	C405.420929,482.143585 380.104553,475.384186 354.364288,471.297180 
	C306.192871,463.648560 257.817719,464.313934 209.573273,471.822449 
	C176.079453,477.035278 143.443680,485.588104 111.546715,496.965912 
	C109.511024,497.692047 106.481148,500.588348 106.751183,501.883575 
	C107.534325,505.640045 111.048225,505.183990 114.117287,504.468201 
	C114.603691,504.354767 115.083504,504.210205 115.572914,504.113007 
	C144.289108,498.412170 173.005966,492.714783 202.607666,486.937103 
M606.638794,564.248779 
	C612.994080,566.168701 618.215393,569.846985 621.043518,575.802429 
	C623.639709,581.269531 627.457581,581.554138 632.792725,580.318787 
	C632.792725,576.031799 632.787598,571.897583 632.793762,567.763306 
	C632.808228,558.082947 632.852783,557.891479 623.166138,555.748657 
	C607.567139,552.297913 592.347412,552.432373 578.557251,562.009155 
	C563.692932,572.331970 558.112549,586.786987 561.407288,604.223206 
	C564.480164,620.485535 574.733704,630.784607 590.876343,634.618347 
	C607.890991,638.659119 622.754272,634.072632 635.705139,622.240479 
	C635.461182,621.514893 635.210693,620.741882 634.941956,619.975281 
	C631.826782,611.087830 633.370911,606.168518 640.477905,600.049683 
	C641.949097,598.783142 642.250793,596.158203 643.500305,593.187500 
	C635.107117,593.187500 628.308533,593.187500 621.509949,593.187500 
	C615.533264,593.187500 609.556580,593.187500 603.508545,593.187500 
	C603.117493,594.376709 602.722107,595.289551 602.528748,596.243286 
	C602.309509,597.324524 602.271179,598.442444 602.140564,599.671814 
	C603.709290,600.086792 604.972717,600.450012 606.250244,600.754333 
	C616.541260,603.205811 616.542053,603.202515 616.472107,613.682434 
	C616.457642,615.847961 616.286743,618.026672 616.467896,620.175720 
	C616.711548,623.065430 615.596619,624.292480 612.685364,624.758423 
	C597.887512,627.126953 584.746277,619.120483 580.855286,604.624207 
	C579.538147,599.717102 578.876160,594.425720 579.079285,589.356689 
	C579.789917,571.624207 589.945740,562.242676 606.638794,564.248779 
M144.387314,633.835999 
	C146.460175,633.215698 148.503662,632.459961 150.611893,632.002869 
	C155.217773,631.004517 157.608154,628.436890 159.284576,623.778137 
	C165.481384,606.557617 172.147476,589.497620 179.059540,572.549561 
	C180.482513,569.060547 183.189774,565.527893 186.269409,563.432983 
	C189.715347,561.088928 191.295166,559.038818 189.791367,555.171143 
	C179.488266,555.171143 169.238617,555.171143 158.790710,555.171143 
	C158.482895,557.223267 158.217499,558.992615 157.955811,560.737183 
	C161.640564,562.586243 165.190109,564.077820 168.383499,566.125000 
	C169.521042,566.854248 170.717209,569.269592 170.323837,570.342041 
	C164.719955,585.619019 158.847717,600.797546 152.735275,616.798157 
	C146.076721,601.355225 139.761307,586.765625 133.497742,572.153809 
	C130.867493,566.017822 130.968857,565.161926 137.264664,562.404236 
	C141.058228,560.742493 141.552322,558.516418 140.693054,555.098389 
	C128.382446,555.098389 116.274956,555.098389 103.930931,555.098389 
	C103.523117,557.044678 103.157715,558.788574 102.696167,560.991333 
	C110.019638,562.429199 113.072227,567.701782 115.631882,573.752441 
	C123.277435,591.825317 131.099274,609.824646 139.021225,627.778198 
	C140.034912,630.075500 142.049072,631.931274 144.387314,633.835999 
M829.932800,608.377686 
	C834.909119,602.917542 835.756226,596.703369 832.739014,589.596558 
	C835.956238,589.183350 838.653687,588.836914 841.665955,588.450073 
	C841.546509,586.182617 841.444885,584.253235 841.378967,583.002319 
	C832.669312,581.839294 824.481323,580.876648 816.338013,579.623657 
	C807.163757,578.211975 799.174377,580.652222 792.208008,586.582153 
	C787.010254,591.006531 784.596313,596.626648 785.904602,603.487183 
	C787.200928,610.284485 791.875671,614.046265 798.042480,616.189209 
	C800.514648,617.048157 803.146973,617.446350 806.144531,618.158386 
	C805.373657,619.026062 804.890503,619.650391 804.327393,620.191528 
	C795.575500,628.601685 796.059082,631.062561 807.439392,635.934082 
	C808.205017,636.261780 808.993591,636.541016 809.740723,636.905884 
	C812.726990,638.364258 815.923950,639.537659 818.586182,641.451721 
	C819.927429,642.416077 821.163025,644.926025 820.850586,646.398438 
	C820.537842,647.872864 818.401672,649.603455 816.768005,650.000183 
	C814.457642,650.561279 811.466003,650.788635 809.489929,649.762939 
	C804.711365,647.282776 799.904419,644.484314 795.962158,640.880798 
	C792.648193,637.851562 789.653076,636.394348 785.305298,637.703125 
	C785.305298,641.966553 785.139893,646.104065 785.417419,650.211670 
	C785.489990,651.286072 786.797119,652.985291 787.778259,653.179443 
	C796.704712,654.945679 805.637146,656.867981 814.664734,657.875000 
	C821.241577,658.608765 827.012939,655.507019 831.921631,651.195618 
	C841.254028,642.998840 840.070557,635.294250 828.810913,630.252380 
	C824.864868,628.485352 820.732727,627.029846 817.032532,624.844666 
	C812.667725,622.267029 813.228333,618.576050 817.655640,616.196838 
	C821.717407,614.014038 825.520325,611.349548 829.932800,608.377686 
M294.210602,640.118042 
	C291.532135,638.803284 288.853699,637.488464 285.224030,635.706726 
	C285.224030,641.795959 285.049133,646.095337 285.352264,650.360718 
	C285.424164,651.372437 286.948608,652.829529 288.060974,653.128357 
	C294.474854,654.851013 300.895172,656.795349 307.446533,657.703064 
	C317.576477,659.106750 326.595795,656.243652 333.697266,648.523254 
	C340.469116,641.161194 339.140045,635.157288 329.978149,631.024292 
	C325.586029,629.043091 321.055634,627.234497 316.987976,624.704468 
	C312.672150,622.020020 313.197693,618.184204 317.737030,616.049194 
	C319.691803,615.129822 321.689941,614.300415 323.627472,613.346924 
	C329.507233,610.453369 333.705261,606.023865 334.464478,599.373352 
	C334.840515,596.079529 333.936462,592.639587 333.600739,589.153503 
	C336.319855,588.949829 339.084930,588.742676 342.090179,588.517517 
	C341.943817,586.122559 341.826263,584.198486 341.751770,582.979248 
	C332.565704,581.802124 323.903290,580.592529 315.215576,579.605957 
	C305.886292,578.546631 297.705658,581.415222 290.969574,587.843323 
	C281.545227,596.836792 284.345551,610.674133 296.458801,615.341980 
	C299.483856,616.507690 302.728851,617.102539 306.746246,618.197937 
	C305.176849,619.528320 303.995880,620.417847 302.943268,621.439636 
	C295.713928,628.456970 296.245880,630.921204 305.648529,635.065369 
	C309.901459,636.939758 314.196899,638.809021 318.160156,641.199463 
	C319.525696,642.023010 320.796143,644.555420 320.557159,646.060608 
	C320.307983,647.630127 318.416290,649.622803 316.827118,650.131104 
	C314.592773,650.845764 311.513916,651.232483 309.610077,650.223633 
	C304.413269,647.469604 299.643036,643.910645 294.210602,640.118042 
M719.377441,625.608032 
	C716.951538,627.972595 710.867310,627.769348 713.477966,633.738159 
	C713.943054,633.900024 714.248718,634.095703 714.557495,634.100830 
	C722.546509,634.234253 730.545593,634.150146 738.521362,634.542786 
	C742.951050,634.760864 745.089661,633.282471 744.844238,628.222656 
	C736.634399,627.911499 736.565918,622.276306 736.952881,615.983459 
	C737.299683,610.343811 737.235718,604.654907 736.943359,599.008850 
	C736.762756,595.521057 738.195007,593.935547 741.303894,592.874878 
	C750.753967,589.650940 755.837708,593.152893 755.816772,603.039978 
	C755.795044,613.308655 755.811951,623.577515 755.811951,634.275879 
	C762.044250,634.275879 768.002747,634.112366 773.946838,634.334412 
	C777.795288,634.478271 779.182495,632.596863 779.643738,628.724426 
	C772.224304,628.262695 771.509949,623.463806 771.778748,617.497375 
	C772.115540,610.021301 771.896851,602.514893 771.766785,595.024170 
	C771.538391,581.865417 759.916565,575.200317 748.344727,581.625793 
	C744.776855,583.606873 741.435059,585.995056 737.654480,588.411072 
	C737.005981,586.420593 736.291016,584.912354 736.041565,583.330566 
	C735.313721,578.715942 733.023315,578.078186 729.055786,579.962708 
	C725.005188,581.886780 720.706177,583.283752 716.625610,585.151062 
	C714.954651,585.915710 713.571472,587.309082 712.057373,588.416443 
	C713.321777,590.011108 714.265076,592.227722 715.913452,593.078491 
	C720.089722,595.234192 721.533691,598.302979 720.930054,602.801819 
	C720.644714,604.928467 720.960083,607.128479 720.855652,609.288086 
	C720.601746,614.536804 720.261475,619.781311 719.377441,625.608032 
M879.181885,630.481934 
	C878.728333,633.591492 880.141907,634.555176 883.153015,634.422058 
	C887.641235,634.223633 892.185547,634.013489 896.632141,634.493164 
	C901.738342,635.044006 903.346619,632.610229 903.756165,628.289307 
	C895.734680,625.090759 895.739014,625.090759 895.752319,616.575500 
	C895.761475,610.745605 895.791992,604.915527 895.750244,599.085938 
	C895.672363,588.212585 890.493164,582.150452 879.874878,579.984192 
	C867.251221,577.408813 857.034912,581.400513 848.390991,591.070435 
	C849.402588,592.703613 850.406555,594.324463 850.760681,594.896301 
	C857.232910,593.472778 862.814880,591.362366 868.449158,591.212097 
	C876.959167,590.985107 881.011963,596.744873 878.749268,605.217407 
	C872.658813,605.217407 866.332397,604.816040 860.075378,605.304138 
	C848.417603,606.213501 841.755310,616.671753 846.510071,626.010437 
	C850.302063,633.458191 861.106750,637.098694 868.465393,633.085571 
	C872.023865,631.144958 875.186218,628.477844 878.937439,625.853088 
	C879.037720,627.447876 879.107178,628.552856 879.181885,630.481934 
M375.325317,604.945007 
	C370.166443,604.969482 364.996216,604.786133 359.851288,605.066772 
	C351.951630,605.497559 345.445007,610.292480 343.854492,616.459412 
	C342.390594,622.135254 344.322266,627.520203 349.070740,631.000732 
	C354.887360,635.264221 362.739136,635.912720 368.303009,632.330566 
	C371.431366,630.316467 374.317139,627.925537 377.748810,625.380554 
	C378.000305,628.591309 378.200684,631.149048 378.417603,633.918335 
	C385.969513,633.918335 393.227509,633.918335 400.595551,633.918335 
	C401.269287,631.944458 401.886169,630.137207 402.498230,628.344116 
	C394.236237,625.357788 394.254578,625.357910 394.302643,616.902527 
	C394.340485,610.245361 394.466614,603.584290 394.298523,596.931396 
	C394.095398,588.892761 390.337433,583.701172 382.776306,581.237976 
	C371.241119,577.480164 360.552399,578.448792 351.214935,587.167725 
	C346.731598,591.354126 346.520874,591.493347 349.854187,594.844482 
	C356.012878,593.485107 361.379303,591.819092 366.860046,591.246033 
	C371.101624,590.802551 375.323395,592.478210 377.314392,596.664551 
	C378.568085,599.300476 380.545441,602.695068 375.325317,604.945007 
M659.658997,605.851074 
	C648.480347,610.064026 644.554749,619.791748 650.662537,628.144592 
	C655.313477,634.505066 665.427917,636.732971 672.223633,632.666077 
	C675.532227,630.685974 678.564270,628.243774 682.027710,625.794189 
	C682.343567,628.850952 682.596558,631.298767 682.895935,634.196228 
	C688.892944,634.196228 694.568726,633.845520 700.177856,634.306274 
	C704.736755,634.680725 706.539307,632.964661 706.641174,628.052185 
	C698.514587,627.930908 698.849915,622.129639 698.944763,616.369629 
	C699.049072,610.038330 699.094482,603.702881 698.990723,597.372192 
	C698.860229,589.414368 694.798096,583.627991 687.265564,581.148315 
	C675.474487,577.266846 664.802124,578.877747 655.153442,587.381958 
	C651.362122,590.723511 651.447571,592.926392 653.721191,595.064697 
	C660.263062,593.598389 665.830139,591.443481 671.447327,591.303528 
	C679.941650,591.091858 684.014954,596.678406 682.251465,604.569031 
	C675.014771,604.918518 667.736633,605.270020 659.658997,605.851074 
M238.341751,617.737244 
	C242.557419,607.844482 242.400162,598.196594 235.813049,589.419312 
	C228.846451,580.136414 219.000183,577.671082 208.195801,580.160400 
	C196.720688,582.804199 187.665848,588.851257 184.909714,601.353210 
	C180.702026,620.439392 193.554947,636.379883 212.295303,634.921021 
	C223.615250,634.039856 232.340408,628.419800 238.341751,617.737244 
M529.179749,616.532532 
	C535.239014,599.602844 526.764893,583.200378 510.358063,580.101379 
	C497.927246,577.753357 483.278473,584.719910 477.236755,595.852905 
	C468.233002,612.444092 479.088776,633.458313 497.456482,634.993652 
	C510.931091,636.119934 522.776794,629.448120 529.179749,616.532532 
M255.854233,617.308716 
	C256.750366,622.751343 254.886322,626.553467 249.679962,628.924011 
	C248.548904,629.438965 248.257477,631.797913 247.171967,634.214478 
	C258.110199,634.214478 267.740417,634.362366 277.355621,634.049255 
	C278.740051,634.004211 280.052185,631.740051 281.651642,630.269409 
	C272.282288,625.667236 272.305878,625.667297 272.325928,616.127991 
	C272.354279,602.646545 272.344971,589.165039 272.349121,575.683533 
	C272.351746,567.070557 272.349609,558.457581 272.349609,548.955078 
	C269.454926,549.298584 266.989502,549.220581 264.777161,549.930908 
	C260.195312,551.402039 255.676895,553.132812 251.281876,555.092163 
	C249.616699,555.834473 248.363586,557.501160 246.922638,558.746460 
	C248.305237,560.127991 249.451477,562.050598 251.119308,562.778992 
	C254.660172,564.325500 255.884506,566.446655 255.825089,570.417542 
	C255.596039,585.725769 255.807831,601.040527 255.854233,617.308716 
M469.073029,627.569153 
	C468.805176,625.877991 468.537292,624.186890 468.237427,622.293701 
	C465.379822,623.375000 463.441315,624.382629 461.381042,624.831482 
	C456.971497,625.792358 453.539307,623.909180 453.374298,619.641357 
	C452.984558,609.562439 453.249207,599.458191 453.249207,588.856506 
	C458.632812,588.856506 463.537781,588.856506 468.353760,588.856506 
	C468.353760,586.278259 468.353760,584.225281 468.353760,581.780518 
	C463.165955,581.780518 458.386230,581.780518 453.100220,581.780518 
	C453.100220,575.012207 453.100220,568.623413 453.100220,561.695312 
	C450.608521,562.077515 447.977051,561.672241 446.928711,562.773682 
	C440.282959,569.756287 433.916321,577.011780 427.681244,584.366882 
	C427.027130,585.138489 427.830994,587.146057 427.965302,588.657959 
	C431.011383,588.807922 433.621307,588.936401 436.385773,589.072510 
	C436.478638,590.941406 436.602783,592.416321 436.616852,593.892273 
	C436.699463,602.555725 436.622375,611.222961 436.856689,619.882019 
	C437.135834,630.198730 442.762238,635.288757 453.089966,635.165344 
	C459.364929,635.090454 464.232452,632.242249 469.073029,627.569153 
M398.451355,691.855042 
	C397.303619,682.320801 392.638794,676.815796 383.077271,675.770691 
	C374.865112,674.873047 366.505554,675.307190 358.210419,675.229980 
	C357.757385,675.225830 357.297729,675.935242 357.212830,676.005432 
	C358.172333,678.315796 359.933929,680.413635 359.603577,682.102112 
	C357.021118,695.301208 354.036957,708.421631 351.137939,721.744995 
	C356.900635,721.744995 363.384857,722.175720 369.794098,721.665100 
	C389.911407,720.062500 399.492310,705.490479 398.451355,691.855042 
M515.719177,730.473938 
	C516.638855,731.741638 517.295471,733.412415 518.520691,734.211853 
	C526.799988,739.614197 541.677917,736.659424 545.023987,727.591492 
	C549.615295,715.148865 552.153687,701.948608 555.571838,689.073059 
	C554.982849,688.685669 554.393860,688.298218 553.804871,687.910828 
	C551.547180,689.001282 549.289429,690.091675 546.855835,691.267090 
	C542.573608,688.183655 539.468079,687.532349 534.088684,688.759460 
	C524.767029,690.885925 517.586060,700.760864 518.051208,710.813416 
	C518.432251,719.049133 524.327759,723.636780 532.295715,721.470886 
	C535.638306,720.562317 538.716125,718.680054 542.097046,717.158142 
	C541.751648,723.183838 540.344543,728.602112 534.576538,731.491516 
	C527.694763,734.938782 522.482422,731.242065 517.393372,726.456848 
	C516.770325,727.785034 516.300110,728.787537 515.719177,730.473938 
M455.873383,690.654541 
	C454.583679,687.585388 453.190002,687.633240 448.613800,690.903992 
	C441.071350,686.615173 435.105316,687.210938 428.082397,692.954468 
	C421.184692,698.595337 417.873688,707.585449 420.215698,714.604553 
	C421.817688,719.405701 425.348572,722.412170 430.291748,721.831055 
	C434.664154,721.317017 438.857208,719.276978 442.913696,717.979675 
	C444.052582,719.033997 445.624023,721.698425 447.331238,721.788452 
	C449.950256,721.926575 452.662689,720.293213 455.335480,719.411682 
	C455.542725,718.735168 455.749969,718.058716 455.957214,717.382202 
	C449.586365,718.332703 450.632874,714.893738 451.258179,711.893127 
	C452.679993,705.069885 454.222809,698.271851 455.873383,690.654541 
M590.941528,688.893860 
	C589.377563,689.331726 587.813599,689.769653 586.590881,690.112000 
	C585.584778,699.094910 586.093140,708.241760 578.272705,714.119629 
	C575.927612,715.882263 572.263550,715.890076 569.203735,716.701843 
	C568.779480,713.944702 567.963135,711.176514 568.040283,708.433472 
	C568.118652,705.649597 569.102966,702.895142 569.647400,700.119324 
	C570.398132,696.292114 571.108521,692.457092 572.006348,687.729126 
	C567.674500,688.662109 564.307251,689.387329 562.241211,689.832336 
	C562.566650,693.747742 563.242554,696.429443 562.900818,698.974548 
	C562.304993,703.411316 560.979370,707.744446 560.145142,712.156128 
	C558.724731,719.667786 562.625793,723.657898 570.007019,721.649475 
	C574.195923,720.509705 578.022156,718.037109 581.264648,716.515381 
	C582.357239,718.077759 583.525391,721.417480 585.084534,721.611328 
	C587.870544,721.957642 590.892456,720.406433 593.815735,719.648499 
	C593.903931,719.082458 593.992188,718.516357 594.080383,717.950256 
	C589.268066,717.634888 589.167114,715.039856 589.931824,711.642029 
	C591.429688,704.986633 592.671753,698.273376 593.996826,691.579529 
	C594.359009,689.750305 595.091675,687.537964 590.941528,688.893860 
M496.926758,721.739380 
	C507.613770,719.017334 514.216980,710.890625 513.973511,700.759583 
	C513.831055,694.830139 510.205078,690.286560 504.479919,688.863403 
	C491.040314,685.522766 478.468292,696.746826 479.675415,711.008484 
	C480.182556,717.000061 483.632996,720.840820 489.605804,721.725403 
	C491.720703,722.038696 493.913422,721.826660 496.926758,721.739380 
M609.068665,721.923340 
	C614.400940,721.039551 619.801636,720.430359 625.029785,719.128479 
	C626.952332,718.649780 629.322388,716.772217 626.644531,714.013550 
	C621.833496,717.589050 616.764709,719.595764 611.177979,716.863953 
	C607.385254,715.009338 606.840698,711.315857 607.451111,706.768127 
	C609.758789,706.768127 612.136047,707.159790 614.326111,706.686218 
	C618.821350,705.714172 623.399597,704.703918 627.593689,702.896973 
	C630.856567,701.491333 633.283813,698.639648 632.262878,694.462708 
	C631.286072,690.466492 628.254761,689.047180 624.515991,688.520630 
	C612.464111,686.823120 600.351990,696.781799 599.655029,709.004822 
	C599.259399,715.942993 601.495605,719.274902 609.068665,721.923340 
M633.951294,716.630493 
	C634.355164,717.626953 634.476074,718.975586 635.208069,719.563599 
	C640.598633,723.894104 654.483276,722.348816 658.871643,717.055725 
	C662.173767,713.072754 661.502075,707.855652 657.045044,704.974426 
	C654.548340,703.360535 651.492004,702.562012 649.136475,700.797241 
	C647.525635,699.590454 646.688904,697.350342 645.506042,695.572205 
	C647.474609,694.346436 649.780762,691.780273 651.341614,692.173462 
	C654.611206,692.996887 657.488281,695.378662 661.148682,697.477173 
	C662.943726,696.099976 664.348755,693.334290 661.815552,690.834717 
	C657.319336,686.398254 644.870605,687.794617 640.577637,692.729858 
	C637.108887,696.717590 637.307312,701.202820 641.509644,704.475952 
	C643.837891,706.289490 646.846741,707.221130 649.210144,709.000122 
	C651.022888,710.364624 652.305542,712.433350 653.823975,714.188843 
	C651.835205,715.715088 650.056824,717.872742 647.809082,718.621643 
	C644.322510,719.783325 641.309265,718.321106 639.476624,714.895508 
	C638.900696,713.818970 638.129395,712.846985 636.948853,711.081299 
	C635.711487,713.169128 634.910706,714.520386 633.951294,716.630493 
M464.181763,704.532898 
	C463.320526,708.933716 462.377991,713.320679 461.625122,717.739929 
	C461.070862,720.993347 462.785065,722.661011 465.887451,722.079102 
	C468.403290,721.607239 470.771393,720.347778 473.205017,719.437622 
	C473.508148,718.850769 473.811279,718.263916 474.114441,717.677002 
	C468.380127,718.213928 469.076050,715.432373 469.715820,712.574646 
	C470.405060,709.496094 470.924774,706.379883 471.583405,703.294006 
	C473.755371,693.117249 475.956818,682.946777 478.312134,672.006531 
	C474.093201,672.534790 470.642548,672.966797 468.553314,673.228394 
	C468.636780,677.142395 469.175659,680.277283 468.671783,683.234436 
	C467.501038,690.104736 465.827148,696.889282 464.181763,704.532898 
M412.695801,702.324707 
	C413.594696,697.666077 414.493591,693.007507 415.552887,687.517456 
	C411.032013,688.558838 407.493744,689.373840 405.496246,689.833923 
	C405.822418,693.789856 406.554871,696.546448 406.155426,699.127747 
	C405.369873,704.203796 403.909058,709.172424 402.819733,714.205505 
	C402.244232,716.864502 400.628571,720.150146 404.379730,721.536377 
	C408.204102,722.949768 411.474121,721.398987 414.328949,717.921326 
	C409.614899,718.293396 409.394623,715.877502 410.122925,712.816345 
	C410.892120,709.583618 411.683807,706.356262 412.695801,702.324707 
M414.379669,680.910645 
	C415.751648,679.167053 417.123627,677.423401 418.495605,675.679810 
	C417.073212,674.833862 415.539246,673.171997 414.256622,673.347534 
	C412.637085,673.569092 410.431824,674.988159 409.886200,676.424927 
	C408.793823,679.301575 411.035767,680.509033 414.379669,680.910645 
z"/>
<path fill="#224D83" opacity="1.000000" stroke="none" 
	d="
M581.050354,435.874634 
	C593.980286,436.651276 606.991699,438.745178 619.824463,437.951233 
	C654.751892,435.790344 684.939819,422.602509 708.564880,396.022125 
	C708.848328,395.703217 709.278503,395.514679 710.411194,395.697388 
	C708.658081,399.188873 707.024475,402.746582 705.132568,406.161133 
	C691.585815,430.610199 671.730591,448.622559 647.657043,462.307098 
	C615.427734,480.627808 580.649414,489.093536 543.709595,490.335663 
	C490.910858,492.111084 442.680084,477.720245 398.280975,449.996552 
	C371.463562,433.251251 348.692108,411.340942 325.556213,390.002930 
	C304.208252,370.313904 282.021606,351.737488 256.224213,338.027405 
	C211.214371,314.106873 165.449783,310.593658 118.828171,333.383118 
	C118.082031,333.747833 117.317406,334.074768 116.261620,334.195801 
	C115.961838,333.972290 116.017548,334.009521 116.017548,334.009521 
	C127.454582,319.731842 141.270493,308.041595 156.210159,297.681396 
	C180.188248,281.053314 204.761246,265.372894 232.925400,256.634735 
	C286.291901,240.077301 339.490601,241.059601 392.783295,259.458008 
	C394.833649,261.815521 395.434174,263.064636 392.205719,264.050293 
	C385.024841,266.242615 384.175751,267.969818 385.820221,274.929352 
	C386.807434,279.107574 384.917664,281.509094 381.014984,282.886017 
	C374.789062,285.082611 373.235657,290.074005 376.401215,295.800629 
	C380.123627,302.534760 386.959534,303.058502 393.193726,305.085571 
	C395.690155,305.897278 399.553467,307.585083 399.813843,309.321106 
	C400.989197,317.158478 405.164337,320.630432 412.752991,321.678497 
	C415.426727,322.047729 417.721161,324.770050 420.321472,326.171875 
	C423.059570,327.648041 424.458649,326.754944 425.140594,323.552612 
	C425.508514,321.825043 427.331116,320.407227 428.497406,318.849670 
	C430.897797,320.700867 433.298157,322.552032 435.480408,324.706085 
	C431.194794,327.748749 430.749298,331.532257 434.656830,333.681854 
	C438.238739,335.652313 439.330505,341.013794 444.534821,340.720917 
	C444.936310,340.698334 445.564209,342.291321 445.862061,343.206543 
	C448.930756,352.635986 451.900177,354.155060 461.127563,350.943512 
	C462.307892,352.167603 463.488220,353.391724 464.824219,355.320862 
	C462.970062,363.439087 463.159088,370.535950 467.813965,377.077362 
	C468.228394,377.659760 467.731262,378.876007 468.132172,379.485748 
	C469.170502,381.064911 470.242401,383.416321 471.712952,383.776306 
	C477.372406,385.161835 480.763031,388.906860 483.767700,393.442596 
	C484.626678,394.739258 486.137024,395.600555 487.333862,396.677917 
	C490.725342,399.730743 494.485016,402.472687 497.414246,405.919556 
	C502.767975,412.219391 510.630768,413.996735 517.325745,417.857788 
	C517.694641,418.070526 518.301025,417.899170 518.794006,417.864777 
	C523.231812,417.555115 527.669067,417.236115 532.106445,416.919861 
	C532.106445,416.919861 532.036743,416.968536 532.213623,417.200470 
	C532.793274,417.576355 533.195984,417.720337 533.598755,417.864288 
	C533.598755,417.864288 533.857239,417.813507 533.994629,418.281433 
	C535.169312,419.136749 536.206482,419.524200 537.243713,419.911652 
	C537.243713,419.911652 537.674622,419.927002 537.829346,420.438171 
	C537.139771,423.802032 534.766785,426.409058 537.329834,429.678009 
	C539.874329,432.923309 549.467773,436.549286 553.387390,434.961731 
	C559.232910,432.594086 564.756287,431.886536 570.840942,434.620728 
	C573.828613,435.963226 577.621765,435.513367 581.050354,435.874634 
z"/>
<path fill="#F88A24" opacity="1.000000" stroke="none" 
	d="
M753.677063,302.165222 
	C748.843994,300.832428 744.390320,299.618958 739.936584,298.405457 
	C739.803345,298.757294 739.670105,299.109131 739.536926,299.460999 
	C742.391541,301.181519 745.249268,302.896973 748.100281,304.623444 
	C770.108948,317.950653 788.321289,335.814819 806.550537,353.641876 
	C820.695618,367.474945 836.265076,378.861816 856.039551,383.223633 
	C867.090088,385.661133 878.183411,385.539581 889.291077,383.574829 
	C890.890930,383.291870 892.509399,383.114136 894.254089,383.289398 
	C885.838379,389.674713 876.472656,394.076477 866.422729,396.946503 
	C829.171753,407.584473 794.248108,401.730957 762.541260,380.044373 
	C744.985901,368.037018 729.072083,353.657562 712.024048,340.872955 
	C694.088257,327.422546 675.056580,315.644318 652.971558,310.242950 
	C619.103577,301.959869 587.212158,307.286377 557.420166,325.361389 
	C555.633911,326.445160 553.748108,327.364990 551.908630,328.361115 
	C551.620850,328.037720 551.333130,327.714294 551.045349,327.390900 
	C554.487000,323.352020 557.660095,319.042816 561.411438,315.315704 
	C603.584900,273.415436 654.384949,254.847580 713.689453,258.674866 
	C770.330750,262.330231 817.510681,287.336945 860.731689,322.077454 
	C873.544312,332.376038 887.129272,341.770721 900.812866,350.901398 
	C906.524231,354.712402 913.416321,356.753815 920.050415,359.724670 
	C913.210266,369.768524 902.883362,372.622223 891.518494,372.824493 
	C873.865784,373.138733 858.905396,365.514252 844.857727,355.894135 
	C831.393127,346.673248 818.423767,336.723572 804.880127,327.625214 
	C789.070862,317.004791 772.163818,308.391998 753.677063,302.165222 
z"/>
<path fill="#224B81" opacity="1.000000" stroke="none" 
	d="
M428.282104,318.550110 
	C427.331116,320.407227 425.508514,321.825043 425.140594,323.552612 
	C424.458649,326.754944 423.059570,327.648041 420.321472,326.171875 
	C417.721161,324.770050 415.426727,322.047729 412.752991,321.678497 
	C405.164337,320.630432 400.989197,317.158478 399.813843,309.321106 
	C399.553467,307.585083 395.690155,305.897278 393.193726,305.085571 
	C386.959534,303.058502 380.123627,302.534760 376.401215,295.800629 
	C373.235657,290.074005 374.789062,285.082611 381.014984,282.886017 
	C384.917664,281.509094 386.807434,279.107574 385.820221,274.929352 
	C384.175751,267.969818 385.024841,266.242615 392.205719,264.050293 
	C395.434174,263.064636 394.833649,261.815521 393.080994,259.696533 
	C408.359772,266.090149 424.228699,271.826111 438.972534,279.675323 
	C472.244080,297.388245 500.176819,322.077393 525.846802,349.431305 
	C544.609070,369.424347 564.510071,387.989960 588.915405,401.148499 
	C605.879517,410.294952 623.617249,417.091034 642.685486,420.403809 
	C620.598572,423.987854 598.948425,422.400726 577.621704,415.633759 
	C548.660950,406.444458 525.621521,388.639862 505.168945,366.794281 
	C488.675812,349.177795 472.599884,331.103668 452.668091,317.064392 
	C432.265778,302.693665 410.215088,292.218170 385.568329,287.592712 
	C383.802429,287.261292 381.990448,287.175415 379.811127,287.896027 
	C383.685913,290.145172 387.660339,292.240356 391.416931,294.672089 
	C403.075256,302.218781 414.648102,309.897583 426.267395,317.504791 
	C426.801178,317.854218 427.464081,318.006470 428.282104,318.550110 
z"/>
<path fill="#437B50" opacity="1.000000" stroke="none" 
	d="
M202.165222,486.977112 
	C173.005966,492.714783 144.289108,498.412170 115.572914,504.113007 
	C115.083504,504.210205 114.603691,504.354767 114.117287,504.468201 
	C111.048225,505.183990 107.534325,505.640045 106.751183,501.883575 
	C106.481148,500.588348 109.511024,497.692047 111.546715,496.965912 
	C143.443680,485.588104 176.079453,477.035278 209.573273,471.822449 
	C257.817719,464.313934 306.192871,463.648560 354.364288,471.297180 
	C380.104553,475.384186 405.420929,482.143585 430.921844,487.727966 
	C432.453339,488.063324 433.924530,488.673889 435.329895,489.870117 
	C357.823151,478.148682 280.282684,476.691284 202.165222,486.977112 
z"/>
<path fill="#447C50" opacity="1.000000" stroke="none" 
	d="
M788.002197,515.749878 
	C762.410706,514.770081 736.747986,514.664673 711.245850,512.587708 
	C679.872681,510.032593 649.060791,503.516632 618.562134,495.703644 
	C617.607117,495.458984 616.672913,495.132996 615.695557,494.834747 
	C627.723267,490.594757 639.613159,486.349487 651.559509,482.269470 
	C652.850220,481.828583 654.522034,482.117767 655.926208,482.450989 
	C693.873901,491.456085 732.217224,498.030060 771.157593,500.629028 
	C785.098755,501.559448 799.100830,501.577972 813.546814,502.473846 
	C815.396667,506.622498 815.158142,508.858673 810.746704,510.970398 
	C804.925903,513.756775 799.097900,513.782532 793.066040,514.076599 
	C791.354980,514.159912 789.688904,515.166626 788.002197,515.749878 
z"/>
<path fill="#F48423" opacity="1.000000" stroke="none" 
	d="
M606.225891,564.145264 
	C589.945740,562.242676 579.789917,571.624207 579.079285,589.356689 
	C578.876160,594.425720 579.538147,599.717102 580.855286,604.624207 
	C584.746277,619.120483 597.887512,627.126953 612.685364,624.758423 
	C615.596619,624.292480 616.711548,623.065430 616.467896,620.175720 
	C616.286743,618.026672 616.457642,615.847961 616.472107,613.682434 
	C616.542053,603.202515 616.541260,603.205811 606.250244,600.754333 
	C604.972717,600.450012 603.709290,600.086792 602.140564,599.671814 
	C602.271179,598.442444 602.309509,597.324524 602.528748,596.243286 
	C602.722107,595.289551 603.117493,594.376709 603.508545,593.187500 
	C609.556580,593.187500 615.533264,593.187500 621.509949,593.187500 
	C628.308533,593.187500 635.107117,593.187500 643.500305,593.187500 
	C642.250793,596.158203 641.949097,598.783142 640.477905,600.049683 
	C633.370911,606.168518 631.826782,611.087830 634.941956,619.975281 
	C635.210693,620.741882 635.461182,621.514893 635.705139,622.240479 
	C622.754272,634.072632 607.890991,638.659119 590.876343,634.618347 
	C574.733704,630.784607 564.480164,620.485535 561.407288,604.223206 
	C558.112549,586.786987 563.692932,572.331970 578.557251,562.009155 
	C592.347412,552.432373 607.567139,552.297913 623.166138,555.748657 
	C632.852783,557.891479 632.808228,558.082947 632.793762,567.763306 
	C632.787598,571.897583 632.792725,576.031799 632.792725,580.318787 
	C627.457581,581.554138 623.639709,581.269531 621.043518,575.802429 
	C618.215393,569.846985 612.994080,566.168701 606.225891,564.145264 
z"/>
<path fill="#1E416B" opacity="1.000000" stroke="none" 
	d="
M143.993530,633.913818 
	C142.049072,631.931274 140.034912,630.075500 139.021225,627.778198 
	C131.099274,609.824646 123.277435,591.825317 115.631882,573.752441 
	C113.072227,567.701782 110.019638,562.429199 102.696167,560.991333 
	C103.157715,558.788574 103.523117,557.044678 103.930931,555.098389 
	C116.274956,555.098389 128.382446,555.098389 140.693054,555.098389 
	C141.552322,558.516418 141.058228,560.742493 137.264664,562.404236 
	C130.968857,565.161926 130.867493,566.017822 133.497742,572.153809 
	C139.761307,586.765625 146.076721,601.355225 152.735275,616.798157 
	C158.847717,600.797546 164.719955,585.619019 170.323837,570.342041 
	C170.717209,569.269592 169.521042,566.854248 168.383499,566.125000 
	C165.190109,564.077820 161.640564,562.586243 157.955811,560.737183 
	C158.217499,558.992615 158.482895,557.223267 158.790710,555.171143 
	C169.238617,555.171143 179.488266,555.171143 189.791367,555.171143 
	C191.295166,559.038818 189.715347,561.088928 186.269409,563.432983 
	C183.189774,565.527893 180.482513,569.060547 179.059540,572.549561 
	C172.147476,589.497620 165.481384,606.557617 159.284576,623.778137 
	C157.608154,628.436890 155.217773,631.004517 150.611893,632.002869 
	C148.503662,632.459961 146.460175,633.215698 143.993530,633.913818 
z"/>
<path fill="#F48323" opacity="1.000000" stroke="none" 
	d="
M829.685059,608.637512 
	C825.520325,611.349548 821.717407,614.014038 817.655640,616.196838 
	C813.228333,618.576050 812.667725,622.267029 817.032532,624.844666 
	C820.732727,627.029846 824.864868,628.485352 828.810913,630.252380 
	C840.070557,635.294250 841.254028,642.998840 831.921631,651.195618 
	C827.012939,655.507019 821.241577,658.608765 814.664734,657.875000 
	C805.637146,656.867981 796.704712,654.945679 787.778259,653.179443 
	C786.797119,652.985291 785.489990,651.286072 785.417419,650.211670 
	C785.139893,646.104065 785.305298,641.966553 785.305298,637.703125 
	C789.653076,636.394348 792.648193,637.851562 795.962158,640.880798 
	C799.904419,644.484314 804.711365,647.282776 809.489929,649.762939 
	C811.466003,650.788635 814.457642,650.561279 816.768005,650.000183 
	C818.401672,649.603455 820.537842,647.872864 820.850586,646.398438 
	C821.163025,644.926025 819.927429,642.416077 818.586182,641.451721 
	C815.923950,639.537659 812.726990,638.364258 809.740723,636.905884 
	C808.993591,636.541016 808.205017,636.261780 807.439392,635.934082 
	C796.059082,631.062561 795.575500,628.601685 804.327393,620.191528 
	C804.890503,619.650391 805.373657,619.026062 806.144531,618.158386 
	C803.146973,617.446350 800.514648,617.048157 798.042480,616.189209 
	C791.875671,614.046265 787.200928,610.284485 785.904602,603.487183 
	C784.596313,596.626648 787.010254,591.006531 792.208008,586.582153 
	C799.174377,580.652222 807.163757,578.211975 816.338013,579.623657 
	C824.481323,580.876648 832.669312,581.839294 841.378967,583.002319 
	C841.444885,584.253235 841.546509,586.182617 841.665955,588.450073 
	C838.653687,588.836914 835.956238,589.183350 832.739014,589.596558 
	C835.756226,596.703369 834.909119,602.917542 829.685059,608.637512 
M813.164490,608.960876 
	C819.169983,606.446594 821.264343,600.211792 818.117065,594.217346 
	C815.278931,588.811768 807.241943,586.011902 802.753601,589.194824 
	C801.343567,590.194824 800.178894,592.311584 799.939636,594.059204 
	C798.867126,601.894592 803.953491,607.827393 813.164490,608.960876 
z"/>
<path fill="#20426D" opacity="1.000000" stroke="none" 
	d="
M294.457214,640.394287 
	C299.643036,643.910645 304.413269,647.469604 309.610077,650.223633 
	C311.513916,651.232483 314.592773,650.845764 316.827118,650.131104 
	C318.416290,649.622803 320.307983,647.630127 320.557159,646.060608 
	C320.796143,644.555420 319.525696,642.023010 318.160156,641.199463 
	C314.196899,638.809021 309.901459,636.939758 305.648529,635.065369 
	C296.245880,630.921204 295.713928,628.456970 302.943268,621.439636 
	C303.995880,620.417847 305.176849,619.528320 306.746246,618.197937 
	C302.728851,617.102539 299.483856,616.507690 296.458801,615.341980 
	C284.345551,610.674133 281.545227,596.836792 290.969574,587.843323 
	C297.705658,581.415222 305.886292,578.546631 315.215576,579.605957 
	C323.903290,580.592529 332.565704,581.802124 341.751770,582.979248 
	C341.826263,584.198486 341.943817,586.122559 342.090179,588.517517 
	C339.084930,588.742676 336.319855,588.949829 333.600739,589.153503 
	C333.936462,592.639587 334.840515,596.079529 334.464478,599.373352 
	C333.705261,606.023865 329.507233,610.453369 323.627472,613.346924 
	C321.689941,614.300415 319.691803,615.129822 317.737030,616.049194 
	C313.197693,618.184204 312.672150,622.020020 316.987976,624.704468 
	C321.055634,627.234497 325.586029,629.043091 329.978149,631.024292 
	C339.140045,635.157288 340.469116,641.161194 333.697266,648.523254 
	C326.595795,656.243652 317.576477,659.106750 307.446533,657.703064 
	C300.895172,656.795349 294.474854,654.851013 288.060974,653.128357 
	C286.948608,652.829529 285.424164,651.372437 285.352264,650.360718 
	C285.049133,646.095337 285.224030,641.795959 285.224030,635.706726 
	C288.853699,637.488464 291.532135,638.803284 294.457214,640.394287 
M317.840851,606.295044 
	C322.171906,596.322449 316.500916,586.894348 306.520844,587.914001 
	C304.462463,588.124329 301.849945,589.862000 300.807495,591.658630 
	C298.426056,595.762695 300.319092,602.063843 304.247253,605.616089 
	C308.346497,609.323059 312.252716,609.696350 317.840851,606.295044 
z"/>
<path fill="#F58322" opacity="1.000000" stroke="none" 
	d="
M719.666748,625.317749 
	C720.261475,619.781311 720.601746,614.536804 720.855652,609.288086 
	C720.960083,607.128479 720.644714,604.928467 720.930054,602.801819 
	C721.533691,598.302979 720.089722,595.234192 715.913452,593.078491 
	C714.265076,592.227722 713.321777,590.011108 712.057373,588.416443 
	C713.571472,587.309082 714.954651,585.915710 716.625610,585.151062 
	C720.706177,583.283752 725.005188,581.886780 729.055786,579.962708 
	C733.023315,578.078186 735.313721,578.715942 736.041565,583.330566 
	C736.291016,584.912354 737.005981,586.420593 737.654480,588.411072 
	C741.435059,585.995056 744.776855,583.606873 748.344727,581.625793 
	C759.916565,575.200317 771.538391,581.865417 771.766785,595.024170 
	C771.896851,602.514893 772.115540,610.021301 771.778748,617.497375 
	C771.509949,623.463806 772.224304,628.262695 779.643738,628.724426 
	C779.182495,632.596863 777.795288,634.478271 773.946838,634.334412 
	C768.002747,634.112366 762.044250,634.275879 755.811951,634.275879 
	C755.811951,623.577515 755.795044,613.308655 755.816772,603.039978 
	C755.837708,593.152893 750.753967,589.650940 741.303894,592.874878 
	C738.195007,593.935547 736.762756,595.521057 736.943359,599.008850 
	C737.235718,604.654907 737.299683,610.343811 736.952881,615.983459 
	C736.565918,622.276306 736.634399,627.911499 744.844238,628.222656 
	C745.089661,633.282471 742.951050,634.760864 738.521362,634.542786 
	C730.545593,634.150146 722.546509,634.234253 714.557495,634.100830 
	C714.248718,634.095703 713.943054,633.900024 713.477966,633.738159 
	C710.867310,627.769348 716.951538,627.972595 719.666748,625.317749 
z"/>
<path fill="#F48323" opacity="1.000000" stroke="none" 
	d="
M879.179321,630.069946 
	C879.107178,628.552856 879.037720,627.447876 878.937439,625.853088 
	C875.186218,628.477844 872.023865,631.144958 868.465393,633.085571 
	C861.106750,637.098694 850.302063,633.458191 846.510071,626.010437 
	C841.755310,616.671753 848.417603,606.213501 860.075378,605.304138 
	C866.332397,604.816040 872.658813,605.217407 878.749268,605.217407 
	C881.011963,596.744873 876.959167,590.985107 868.449158,591.212097 
	C862.814880,591.362366 857.232910,593.472778 850.760681,594.896301 
	C850.406555,594.324463 849.402588,592.703613 848.390991,591.070435 
	C857.034912,581.400513 867.251221,577.408813 879.874878,579.984192 
	C890.493164,582.150452 895.672363,588.212585 895.750244,599.085938 
	C895.791992,604.915527 895.761475,610.745605 895.752319,616.575500 
	C895.739014,625.090759 895.734680,625.090759 903.756165,628.289307 
	C903.346619,632.610229 901.738342,635.044006 896.632141,634.493164 
	C892.185547,634.013489 887.641235,634.223633 883.153015,634.422058 
	C880.141907,634.555176 878.728333,633.591492 879.179321,630.069946 
M861.828369,619.397095 
	C865.207947,623.918274 868.499329,624.658142 873.844482,622.098206 
	C879.367371,619.453186 880.176147,617.574707 878.531250,610.765198 
	C875.318542,610.599854 872.022705,610.315002 868.724548,610.284546 
	C861.944336,610.221924 860.631653,611.815552 861.828369,619.397095 
z"/>
<path fill="#20426D" opacity="1.000000" stroke="none" 
	d="
M375.805420,604.942627 
	C380.545441,602.695068 378.568085,599.300476 377.314392,596.664551 
	C375.323395,592.478210 371.101624,590.802551 366.860046,591.246033 
	C361.379303,591.819092 356.012878,593.485107 349.854187,594.844482 
	C346.520874,591.493347 346.731598,591.354126 351.214935,587.167725 
	C360.552399,578.448792 371.241119,577.480164 382.776306,581.237976 
	C390.337433,583.701172 394.095398,588.892761 394.298523,596.931396 
	C394.466614,603.584290 394.340485,610.245361 394.302643,616.902527 
	C394.254578,625.357910 394.236237,625.357788 402.498230,628.344116 
	C401.886169,630.137207 401.269287,631.944458 400.595551,633.918335 
	C393.227509,633.918335 385.969513,633.918335 378.417603,633.918335 
	C378.200684,631.149048 378.000305,628.591309 377.748810,625.380554 
	C374.317139,627.925537 371.431366,630.316467 368.303009,632.330566 
	C362.739136,635.912720 354.887360,635.264221 349.070740,631.000732 
	C344.322266,627.520203 342.390594,622.135254 343.854492,616.459412 
	C345.445007,610.292480 351.951630,605.497559 359.851288,605.066772 
	C364.996216,604.786133 370.166443,604.969482 375.805420,604.942627 
M375.971130,610.464722 
	C372.336060,610.372803 368.694153,610.099670 365.067657,610.235962 
	C360.779175,610.397217 358.349854,613.159363 359.752808,617.117065 
	C360.595490,619.494385 363.045776,622.080688 365.386902,622.984741 
	C370.150513,624.824219 374.363220,621.983643 377.081238,618.511963 
	C378.326233,616.921692 377.007812,613.324463 375.971130,610.464722 
z"/>
<path fill="#F38122" opacity="1.000000" stroke="none" 
	d="
M660.058777,605.736328 
	C667.736633,605.270020 675.014771,604.918518 682.251465,604.569031 
	C684.014954,596.678406 679.941650,591.091858 671.447327,591.303528 
	C665.830139,591.443481 660.263062,593.598389 653.721191,595.064697 
	C651.447571,592.926392 651.362122,590.723511 655.153442,587.381958 
	C664.802124,578.877747 675.474487,577.266846 687.265564,581.148315 
	C694.798096,583.627991 698.860229,589.414368 698.990723,597.372192 
	C699.094482,603.702881 699.049072,610.038330 698.944763,616.369629 
	C698.849915,622.129639 698.514587,627.930908 706.641174,628.052185 
	C706.539307,632.964661 704.736755,634.680725 700.177856,634.306274 
	C694.568726,633.845520 688.892944,634.196228 682.895935,634.196228 
	C682.596558,631.298767 682.343567,628.850952 682.027710,625.794189 
	C678.564270,628.243774 675.532227,630.685974 672.223633,632.666077 
	C665.427917,636.732971 655.313477,634.505066 650.662537,628.144592 
	C644.554749,619.791748 648.480347,610.064026 660.058777,605.736328 
M664.319275,618.694214 
	C665.823792,622.183777 668.805420,624.321716 672.207092,623.350220 
	C675.853455,622.308899 679.809021,620.381348 682.253601,617.621582 
	C685.030945,614.486145 682.510132,610.518494 678.273376,610.310181 
	C675.949646,610.195801 673.617615,610.205139 671.289917,610.226990 
	C664.886841,610.287048 663.812744,611.450684 664.319275,618.694214 
z"/>
<path fill="#1F426E" opacity="1.000000" stroke="none" 
	d="
M238.199097,618.087402 
	C232.340408,628.419800 223.615250,634.039856 212.295303,634.921021 
	C193.554947,636.379883 180.702026,620.439392 184.909714,601.353210 
	C187.665848,588.851257 196.720688,582.804199 208.195801,580.160400 
	C219.000183,577.671082 228.846451,580.136414 235.813049,589.419312 
	C242.400162,598.196594 242.557419,607.844482 238.199097,618.087402 
M209.244873,624.589844 
	C214.993027,627.118958 218.995728,626.334900 221.446365,622.199829 
	C225.562851,615.253967 223.841644,597.746155 218.456390,591.785950 
	C213.500443,586.300903 205.795715,587.159424 202.833786,593.526733 
	C198.839569,602.113220 201.732498,617.345703 209.244873,624.589844 
z"/>
<path fill="#447C50" opacity="1.000000" stroke="none" 
	d="
M529.055664,616.899292 
	C522.776794,629.448120 510.931091,636.119934 497.456482,634.993652 
	C479.088776,633.458313 468.233002,612.444092 477.236755,595.852905 
	C483.278473,584.719910 497.927246,577.753357 510.358063,580.101379 
	C526.764893,583.200378 535.239014,599.602844 529.055664,616.899292 
M492.744202,594.668396 
	C490.634399,602.639648 491.106537,610.596191 494.258850,618.070557 
	C495.496552,621.005249 498.382111,623.704102 501.186707,625.409119 
	C505.193298,627.844666 509.703094,626.108643 511.855347,622.254089 
	C515.765808,615.250732 513.923584,598.161438 508.627319,592.309753 
	C503.763794,586.936157 496.748901,587.647705 492.744202,594.668396 
z"/>
<path fill="#1D406C" opacity="1.000000" stroke="none" 
	d="
M255.854767,616.830811 
	C255.807831,601.040527 255.596039,585.725769 255.825089,570.417542 
	C255.884506,566.446655 254.660172,564.325500 251.119308,562.778992 
	C249.451477,562.050598 248.305237,560.127991 246.922638,558.746460 
	C248.363586,557.501160 249.616699,555.834473 251.281876,555.092163 
	C255.676895,553.132812 260.195312,551.402039 264.777161,549.930908 
	C266.989502,549.220581 269.454926,549.298584 272.349609,548.955078 
	C272.349609,558.457581 272.351746,567.070557 272.349121,575.683533 
	C272.344971,589.165039 272.354279,602.646545 272.325928,616.127991 
	C272.305878,625.667297 272.282288,625.667236 281.651642,630.269409 
	C280.052185,631.740051 278.740051,634.004211 277.355621,634.049255 
	C267.740417,634.362366 258.110199,634.214478 247.171967,634.214478 
	C248.257477,631.797913 248.548904,629.438965 249.679962,628.924011 
	C254.886322,626.553467 256.750366,622.751343 255.854767,616.830811 
z"/>
<path fill="#447C50" opacity="1.000000" stroke="none" 
	d="
M468.797974,627.793579 
	C464.232452,632.242249 459.364929,635.090454 453.089966,635.165344 
	C442.762238,635.288757 437.135834,630.198730 436.856689,619.882019 
	C436.622375,611.222961 436.699463,602.555725 436.616852,593.892273 
	C436.602783,592.416321 436.478638,590.941406 436.385773,589.072510 
	C433.621307,588.936401 431.011383,588.807922 427.965302,588.657959 
	C427.830994,587.146057 427.027130,585.138489 427.681244,584.366882 
	C433.916321,577.011780 440.282959,569.756287 446.928711,562.773682 
	C447.977051,561.672241 450.608521,562.077515 453.100220,561.695312 
	C453.100220,568.623413 453.100220,575.012207 453.100220,581.780518 
	C458.386230,581.780518 463.165955,581.780518 468.353760,581.780518 
	C468.353760,584.225281 468.353760,586.278259 468.353760,588.856506 
	C463.537781,588.856506 458.632812,588.856506 453.249207,588.856506 
	C453.249207,599.458191 452.984558,609.562439 453.374298,619.641357 
	C453.539307,623.909180 456.971497,625.792358 461.381042,624.831482 
	C463.441315,624.382629 465.379822,623.375000 468.237427,622.293701 
	C468.537292,624.186890 468.805176,625.877991 468.797974,627.793579 
z"/>
<path fill="#224B81" opacity="1.000000" stroke="none" 
	d="
M531.915283,416.640350 
	C527.669067,417.236115 523.231812,417.555115 518.794006,417.864777 
	C518.301025,417.899170 517.694641,418.070526 517.325745,417.857788 
	C510.630768,413.996735 502.767975,412.219391 497.414246,405.919556 
	C494.485016,402.472687 490.725342,399.730743 487.333862,396.677917 
	C486.137024,395.600555 484.626678,394.739258 483.767700,393.442596 
	C480.763031,388.906860 477.372406,385.161835 471.712952,383.776306 
	C470.242401,383.416321 469.170502,381.064911 468.132172,379.485748 
	C467.731262,378.876007 468.228394,377.659760 467.813965,377.077362 
	C463.159088,370.535950 462.970062,363.439087 464.962158,355.612213 
	C474.272766,365.158600 483.494904,375.220764 492.956512,385.052521 
	C504.553619,397.103302 517.374329,407.692230 531.915283,416.640350 
z"/>
<path fill="#4B8257" opacity="1.000000" stroke="none" 
	d="
M398.468445,692.277039 
	C399.492310,705.490479 389.911407,720.062500 369.794098,721.665100 
	C363.384857,722.175720 356.900635,721.744995 351.137939,721.744995 
	C354.036957,708.421631 357.021118,695.301208 359.603577,682.102112 
	C359.933929,680.413635 358.172333,678.315796 357.212830,676.005432 
	C357.297729,675.935242 357.757385,675.225830 358.210419,675.229980 
	C366.505554,675.307190 374.865112,674.873047 383.077271,675.770691 
	C392.638794,676.815796 397.303619,682.320801 398.468445,692.277039 
M364.228149,699.809265 
	C363.338470,704.214417 362.560333,708.645996 361.525726,713.016846 
	C360.611420,716.879578 362.226898,718.061707 365.875641,718.210999 
	C379.298462,718.760498 388.280457,711.194397 390.047638,697.624146 
	C391.776703,684.346619 385.821259,678.090454 372.510468,678.885193 
	C369.620331,679.057739 368.392090,680.156555 367.869812,682.874268 
	C366.833832,688.265137 365.571259,693.612366 364.228149,699.809265 
z"/>
<path fill="#437B50" opacity="1.000000" stroke="none" 
	d="
M788.462280,515.818665 
	C789.688904,515.166626 791.354980,514.159912 793.066040,514.076599 
	C799.097900,513.782532 804.925903,513.756775 810.746704,510.970398 
	C815.158142,508.858673 815.396667,506.622498 814.009583,502.552338 
	C839.975220,501.604156 865.831604,499.740601 891.403748,494.919312 
	C898.063293,493.663757 904.673706,492.147278 911.412964,491.283447 
	C872.412720,508.553680 831.088135,514.304016 788.462280,515.818665 
z"/>
<path fill="#498155" opacity="1.000000" stroke="none" 
	d="
M515.774536,730.131958 
	C516.300110,728.787537 516.770325,727.785034 517.393372,726.456848 
	C522.482422,731.242065 527.694763,734.938782 534.576538,731.491516 
	C540.344543,728.602112 541.751648,723.183838 542.097046,717.158142 
	C538.716125,718.680054 535.638306,720.562317 532.295715,721.470886 
	C524.327759,723.636780 518.432251,719.049133 518.051208,710.813416 
	C517.586060,700.760864 524.767029,690.885925 534.088684,688.759460 
	C539.468079,687.532349 542.573608,688.183655 546.855835,691.267090 
	C549.289429,690.091675 551.547180,689.001282 553.804871,687.910828 
	C554.393860,688.298218 554.982849,688.685669 555.571838,689.073059 
	C552.153687,701.948608 549.615295,715.148865 545.023987,727.591492 
	C541.677917,736.659424 526.799988,739.614197 518.520691,734.211853 
	C517.295471,733.412415 516.638855,731.741638 515.774536,730.131958 
M544.642517,694.987671 
	C541.698425,690.984680 537.840698,691.119080 534.007141,693.102173 
	C527.166565,696.640869 525.488647,703.058350 526.037415,709.998230 
	C526.229126,712.423462 527.852966,715.770142 529.796448,716.735229 
	C531.796631,717.728394 535.400513,717.065308 537.572815,715.836670 
	C543.529297,712.467590 546.852356,702.584229 544.642517,694.987671 
z"/>
<path fill="#498256" opacity="1.000000" stroke="none" 
	d="
M455.794922,691.059082 
	C454.222809,698.271851 452.679993,705.069885 451.258179,711.893127 
	C450.632874,714.893738 449.586365,718.332703 455.957214,717.382202 
	C455.749969,718.058716 455.542725,718.735168 455.335480,719.411682 
	C452.662689,720.293213 449.950256,721.926575 447.331238,721.788452 
	C445.624023,721.698425 444.052582,719.033997 442.913696,717.979675 
	C438.857208,719.276978 434.664154,721.317017 430.291748,721.831055 
	C425.348572,722.412170 421.817688,719.405701 420.215698,714.604553 
	C417.873688,707.585449 421.184692,698.595337 428.082397,692.954468 
	C435.105316,687.210938 441.071350,686.615173 448.613800,690.903992 
	C453.190002,687.633240 454.583679,687.585388 455.794922,691.059082 
M431.800110,696.356140 
	C430.381409,700.518188 428.539856,704.595337 427.681305,708.869934 
	C427.024902,712.138000 427.807617,715.632385 431.555237,717.170227 
	C435.347839,718.726562 438.919006,717.264465 440.774811,714.297546 
	C443.431152,710.050781 445.769531,705.298096 446.855164,700.450378 
	C448.358154,693.739441 443.208069,690.096558 436.762421,692.773438 
	C435.132568,693.450378 433.766541,694.762756 431.800110,696.356140 
z"/>
<path fill="#498155" opacity="1.000000" stroke="none" 
	d="
M591.313110,688.810669 
	C595.091675,687.537964 594.359009,689.750305 593.996826,691.579529 
	C592.671753,698.273376 591.429688,704.986633 589.931824,711.642029 
	C589.167114,715.039856 589.268066,717.634888 594.080383,717.950256 
	C593.992188,718.516357 593.903931,719.082458 593.815735,719.648499 
	C590.892456,720.406433 587.870544,721.957642 585.084534,721.611328 
	C583.525391,721.417480 582.357239,718.077759 581.264648,716.515381 
	C578.022156,718.037109 574.195923,720.509705 570.007019,721.649475 
	C562.625793,723.657898 558.724731,719.667786 560.145142,712.156128 
	C560.979370,707.744446 562.304993,703.411316 562.900818,698.974548 
	C563.242554,696.429443 562.566650,693.747742 562.241211,689.832336 
	C564.307251,689.387329 567.674500,688.662109 572.006348,687.729126 
	C571.108521,692.457092 570.398132,696.292114 569.647400,700.119324 
	C569.102966,702.895142 568.118652,705.649597 568.040283,708.433472 
	C567.963135,711.176514 568.779480,713.944702 569.203735,716.701843 
	C572.263550,715.890076 575.927612,715.882263 578.272705,714.119629 
	C586.093140,708.241760 585.584778,699.094910 586.590881,690.112000 
	C587.813599,689.769653 589.377563,689.331726 591.313110,688.810669 
z"/>
<path fill="#498256" opacity="1.000000" stroke="none" 
	d="
M496.498688,721.796875 
	C493.913422,721.826660 491.720703,722.038696 489.605804,721.725403 
	C483.632996,720.840820 480.182556,717.000061 479.675415,711.008484 
	C478.468292,696.746826 491.040314,685.522766 504.479919,688.863403 
	C510.205078,690.286560 513.831055,694.830139 513.973511,700.759583 
	C514.216980,710.890625 507.613770,719.017334 496.498688,721.796875 
M502.520386,713.880310 
	C503.841400,709.312378 505.777802,704.804199 506.229401,700.151855 
	C506.462769,697.747986 504.614899,693.622742 502.712769,692.902588 
	C500.138794,691.928162 495.297485,692.369080 493.766602,694.179504 
	C490.717285,697.785645 488.629486,702.563721 487.341888,707.190918 
	C486.247101,711.125244 486.500397,715.812561 491.154480,718.052307 
	C495.721771,720.250366 499.119720,717.801697 502.520386,713.880310 
z"/>
<path fill="#4B8257" opacity="1.000000" stroke="none" 
	d="
M608.648926,721.851807 
	C601.495605,719.274902 599.259399,715.942993 599.655029,709.004822 
	C600.351990,696.781799 612.464111,686.823120 624.515991,688.520630 
	C628.254761,689.047180 631.286072,690.466492 632.262878,694.462708 
	C633.283813,698.639648 630.856567,701.491333 627.593689,702.896973 
	C623.399597,704.703918 618.821350,705.714172 614.326111,706.686218 
	C612.136047,707.159790 609.758789,706.768127 607.451111,706.768127 
	C606.840698,711.315857 607.385254,715.009338 611.177979,716.863953 
	C616.764709,719.595764 621.833496,717.589050 626.644531,714.013550 
	C629.322388,716.772217 626.952332,718.649780 625.029785,719.128479 
	C619.801636,720.430359 614.400940,721.039551 608.648926,721.851807 
M608.301514,702.119324 
	C608.307556,702.606567 608.138000,703.421631 608.345520,703.532654 
	C612.553772,705.785950 622.597595,702.615662 624.685181,698.437195 
	C626.509644,694.785583 624.647034,691.614197 620.519226,691.800354 
	C614.319702,692.079895 610.623718,695.766296 608.301514,702.119324 
z"/>
<path fill="#4B8257" opacity="1.000000" stroke="none" 
	d="
M634.030640,716.251099 
	C634.910706,714.520386 635.711487,713.169128 636.948853,711.081299 
	C638.129395,712.846985 638.900696,713.818970 639.476624,714.895508 
	C641.309265,718.321106 644.322510,719.783325 647.809082,718.621643 
	C650.056824,717.872742 651.835205,715.715088 653.823975,714.188843 
	C652.305542,712.433350 651.022888,710.364624 649.210144,709.000122 
	C646.846741,707.221130 643.837891,706.289490 641.509644,704.475952 
	C637.307312,701.202820 637.108887,696.717590 640.577637,692.729858 
	C644.870605,687.794617 657.319336,686.398254 661.815552,690.834717 
	C664.348755,693.334290 662.943726,696.099976 661.148682,697.477173 
	C657.488281,695.378662 654.611206,692.996887 651.341614,692.173462 
	C649.780762,691.780273 647.474609,694.346436 645.506042,695.572205 
	C646.688904,697.350342 647.525635,699.590454 649.136475,700.797241 
	C651.492004,702.562012 654.548340,703.360535 657.045044,704.974426 
	C661.502075,707.855652 662.173767,713.072754 658.871643,717.055725 
	C654.483276,722.348816 640.598633,723.894104 635.208069,719.563599 
	C634.476074,718.975586 634.355164,717.626953 634.030640,716.251099 
z"/>
<path fill="#498155" opacity="1.000000" stroke="none" 
	d="
M464.269470,704.120728 
	C465.827148,696.889282 467.501038,690.104736 468.671783,683.234436 
	C469.175659,680.277283 468.636780,677.142395 468.553314,673.228394 
	C470.642548,672.966797 474.093201,672.534790 478.312134,672.006531 
	C475.956818,682.946777 473.755371,693.117249 471.583405,703.294006 
	C470.924774,706.379883 470.405060,709.496094 469.715820,712.574646 
	C469.076050,715.432373 468.380127,718.213928 474.114441,717.677002 
	C473.811279,718.263916 473.508148,718.850769 473.205017,719.437622 
	C470.771393,720.347778 468.403290,721.607239 465.887451,722.079102 
	C462.785065,722.661011 461.070862,720.993347 461.625122,717.739929 
	C462.377991,713.320679 463.320526,708.933716 464.269470,704.120728 
z"/>
<path fill="#4B8257" opacity="1.000000" stroke="none" 
	d="
M412.580750,702.725586 
	C411.683807,706.356262 410.892120,709.583618 410.122925,712.816345 
	C409.394623,715.877502 409.614899,718.293396 414.328949,717.921326 
	C411.474121,721.398987 408.204102,722.949768 404.379730,721.536377 
	C400.628571,720.150146 402.244232,716.864502 402.819733,714.205505 
	C403.909058,709.172424 405.369873,704.203796 406.155426,699.127747 
	C406.554871,696.546448 405.822418,693.789856 405.496246,689.833923 
	C407.493744,689.373840 411.032013,688.558838 415.552887,687.517456 
	C414.493591,693.007507 413.594696,697.666077 412.580750,702.725586 
z"/>
<path fill="#224B81" opacity="1.000000" stroke="none" 
	d="
M461.016113,350.622528 
	C451.900177,354.155060 448.930756,352.635986 445.862061,343.206543 
	C445.564209,342.291321 444.936310,340.698334 444.534821,340.720917 
	C439.330505,341.013794 438.238739,335.652313 434.656830,333.681854 
	C430.749298,331.532257 431.194794,327.748749 435.645020,324.992188 
	C436.027802,324.975433 436.002838,324.995453 436.037231,325.299744 
	C436.463043,326.041016 436.854492,326.478058 437.245911,326.915070 
	C442.790649,332.007111 448.422943,337.008331 453.841858,342.230957 
	C456.406586,344.702820 458.563141,347.598114 461.016113,350.622528 
z"/>
<path fill="#224B81" opacity="1.000000" stroke="none" 
	d="
M580.749817,435.656036 
	C577.621765,435.513367 573.828613,435.963226 570.840942,434.620728 
	C564.756287,431.886536 559.232910,432.594086 553.387390,434.961731 
	C549.467773,436.549286 539.874329,432.923309 537.329834,429.678009 
	C534.766785,426.409058 537.139771,423.802032 537.991089,420.580627 
	C552.148560,425.287048 566.298889,430.362244 580.749817,435.656036 
z"/>
<path fill="#4B8257" opacity="1.000000" stroke="none" 
	d="
M414.002686,680.921143 
	C411.035767,680.509033 408.793823,679.301575 409.886200,676.424927 
	C410.431824,674.988159 412.637085,673.569092 414.256622,673.347534 
	C415.539246,673.171997 417.073212,674.833862 418.495605,675.679810 
	C417.123627,677.423401 415.751648,679.167053 414.002686,680.921143 
z"/>
<path fill="#224B81" opacity="1.000000" stroke="none" 
	d="
M537.047852,419.657837 
	C536.206482,419.524200 535.169312,419.136749 534.065369,418.392517 
	C534.949768,418.491791 535.900940,418.947876 537.047852,419.657837 
z"/>
<path fill="#224D83" opacity="1.000000" stroke="none" 
	d="
M437.183289,326.607361 
	C436.854492,326.478058 436.463043,326.041016 436.048157,325.289001 
	C436.389984,325.415924 436.755341,325.857788 437.183289,326.607361 
z"/>
<path fill="#224B81" opacity="1.000000" stroke="none" 
	d="
M533.415283,417.596893 
	C533.195984,417.720337 532.793274,417.576355 532.214478,417.157959 
	C532.436218,417.032196 532.834045,417.180847 533.415283,417.596893 
z"/>
<path fill="#224D83" opacity="1.000000" stroke="none" 
	d="
M115.932495,333.956116 
	C115.954453,334.150665 116.024300,334.359955 116.040710,334.573395 
	C116.043831,334.613953 115.835365,334.670807 115.724525,334.720154 
	C115.665337,334.544312 115.606148,334.368439 115.782257,334.101074 
	C116.017548,334.009521 115.961838,333.972290 115.932495,333.956116 
z"/>
<path fill="#FAFCFB" opacity="1.000000" stroke="none" 
	d="
M812.767883,608.989746 
	C803.953491,607.827393 798.867126,601.894592 799.939636,594.059204 
	C800.178894,592.311584 801.343567,590.194824 802.753601,589.194824 
	C807.241943,586.011902 815.278931,588.811768 818.117065,594.217346 
	C821.264343,600.211792 819.169983,606.446594 812.767883,608.989746 
z"/>
<path fill="#F9FBF9" opacity="1.000000" stroke="none" 
	d="
M317.579590,606.580078 
	C312.252716,609.696350 308.346497,609.323059 304.247253,605.616089 
	C300.319092,602.063843 298.426056,595.762695 300.807495,591.658630 
	C301.849945,589.862000 304.462463,588.124329 306.520844,587.914001 
	C316.500916,586.894348 322.171906,596.322449 317.579590,606.580078 
z"/>
<path fill="#FDF7F1" opacity="1.000000" stroke="none" 
	d="
M861.685303,619.037109 
	C860.631653,611.815552 861.944336,610.221924 868.724548,610.284546 
	C872.022705,610.315002 875.318542,610.599854 878.531250,610.765198 
	C880.176147,617.574707 879.367371,619.453186 873.844482,622.098206 
	C868.499329,624.658142 865.207947,623.918274 861.685303,619.037109 
z"/>
<path fill="#F9FBF9" opacity="1.000000" stroke="none" 
	d="
M376.411530,610.551086 
	C377.007812,613.324463 378.326233,616.921692 377.081238,618.511963 
	C374.363220,621.983643 370.150513,624.824219 365.386902,622.984741 
	C363.045776,622.080688 360.595490,619.494385 359.752808,617.117065 
	C358.349854,613.159363 360.779175,610.397217 365.067657,610.235962 
	C368.694153,610.099670 372.336060,610.372803 376.411530,610.551086 
z"/>
<path fill="#FDF7F1" opacity="1.000000" stroke="none" 
	d="
M664.207764,618.305298 
	C663.812744,611.450684 664.886841,610.287048 671.289917,610.226990 
	C673.617615,610.205139 675.949646,610.195801 678.273376,610.310181 
	C682.510132,610.518494 685.030945,614.486145 682.253601,617.621582 
	C679.809021,620.381348 675.853455,622.308899 672.207092,623.350220 
	C668.805420,624.321716 665.823792,622.183777 664.207764,618.305298 
z"/>
<path fill="#F9FBF9" opacity="1.000000" stroke="none" 
	d="
M208.943787,624.351440 
	C201.732498,617.345703 198.839569,602.113220 202.833786,593.526733 
	C205.795715,587.159424 213.500443,586.300903 218.456390,591.785950 
	C223.841644,597.746155 225.562851,615.253967 221.446365,622.199829 
	C218.995728,626.334900 214.993027,627.118958 208.943787,624.351440 
z"/>
<path fill="#FAFCFB" opacity="1.000000" stroke="none" 
	d="
M492.882751,594.280579 
	C496.748901,587.647705 503.763794,586.936157 508.627319,592.309753 
	C513.923584,598.161438 515.765808,615.250732 511.855347,622.254089 
	C509.703094,626.108643 505.193298,627.844666 501.186707,625.409119 
	C498.382111,623.704102 495.496552,621.005249 494.258850,618.070557 
	C491.106537,610.596191 490.634399,602.639648 492.882751,594.280579 
z"/>
<path fill="#FAFCFB" opacity="1.000000" stroke="none" 
	d="
M364.315247,699.393433 
	C365.571259,693.612366 366.833832,688.265137 367.869812,682.874268 
	C368.392090,680.156555 369.620331,679.057739 372.510468,678.885193 
	C385.821259,678.090454 391.776703,684.346619 390.047638,697.624146 
	C388.280457,711.194397 379.298462,718.760498 365.875641,718.210999 
	C362.226898,718.061707 360.611420,716.879578 361.525726,713.016846 
	C362.560333,708.645996 363.338470,704.214417 364.315247,699.393433 
z"/>
<path fill="#F9FBF9" opacity="1.000000" stroke="none" 
	d="
M544.810913,695.345947 
	C546.852356,702.584229 543.529297,712.467590 537.572815,715.836670 
	C535.400513,717.065308 531.796631,717.728394 529.796448,716.735229 
	C527.852966,715.770142 526.229126,712.423462 526.037415,709.998230 
	C525.488647,703.058350 527.166565,696.640869 534.007141,693.102173 
	C537.840698,691.119080 541.698425,690.984680 544.810913,695.345947 
z"/>
<path fill="#F9FBF9" opacity="1.000000" stroke="none" 
	d="
M432.039673,696.069641 
	C433.766541,694.762756 435.132568,693.450378 436.762421,692.773438 
	C443.208069,690.096558 448.358154,693.739441 446.855164,700.450378 
	C445.769531,705.298096 443.431152,710.050781 440.774811,714.297546 
	C438.919006,717.264465 435.347839,718.726562 431.555237,717.170227 
	C427.807617,715.632385 427.024902,712.138000 427.681305,708.869934 
	C428.539856,704.595337 430.381409,700.518188 432.039673,696.069641 
z"/>
<path fill="#F9FBF9" opacity="1.000000" stroke="none" 
	d="
M502.290527,714.177124 
	C499.119720,717.801697 495.721771,720.250366 491.154480,718.052307 
	C486.500397,715.812561 486.247101,711.125244 487.341888,707.190918 
	C488.629486,702.563721 490.717285,697.785645 493.766602,694.179504 
	C495.297485,692.369080 500.138794,691.928162 502.712769,692.902588 
	C504.614899,693.622742 506.462769,697.747986 506.229401,700.151855 
	C505.777802,704.804199 503.841400,709.312378 502.290527,714.177124 
z"/>
<path fill="#F9FBF9" opacity="1.000000" stroke="none" 
	d="
M608.434387,701.742554 
	C610.623718,695.766296 614.319702,692.079895 620.519226,691.800354 
	C624.647034,691.614197 626.509644,694.785583 624.685181,698.437195 
	C622.597595,702.615662 612.553772,705.785950 608.345520,703.532654 
	C608.138000,703.421631 608.307556,702.606567 608.434387,701.742554 
z"/>
</svg>